<svg xmlns="http://www.w3.org/2000/svg" xmlns:xlink="http://www.w3.org/1999/xlink" width="400" zoomAndPan="magnify" viewBox="0 0 300 225" height="300" preserveAspectRatio="xMidYMid meet" version="1.0"><defs><g/><clipPath id="id1"><path d="M 42 47.109375 L 61.988281 47.109375 L 61.988281 177.609375 L 42 177.609375 Z M 42 47.109375 " clip-rule="nonzero"/></clipPath><clipPath id="id2"><path d="M 238.007812 47.109375 L 258 47.109375 L 258 177.609375 L 238.007812 177.609375 Z M 238.007812 47.109375 " clip-rule="nonzero"/></clipPath></defs><g clip-path="url(#id1)"><path fill="#4b4c4d" d="M 59.679688 177.378906 C 58.949219 177.378906 58.246094 176.980469 57.886719 176.285156 C 37.230469 136.351562 37.230469 88.667969 57.886719 48.730469 C 58.398438 47.742188 59.613281 47.355469 60.601562 47.867188 C 61.59375 48.378906 61.976562 49.597656 61.464844 50.589844 C 41.410156 89.363281 41.410156 135.65625 61.464844 174.429688 C 61.976562 175.417969 61.59375 176.636719 60.601562 177.152344 C 60.308594 177.304688 59.988281 177.378906 59.679688 177.378906 " fill-opacity="1" fill-rule="nonzero"/></g><g fill="#4b4c4d" fill-opacity="1"><g transform="translate(144.77456, 126.376601)"><g><path d="M 8.0625 -3.78125 C 7.457031 -1.414062 6.425781 1.390625 4.96875 4.640625 L 1.109375 4.640625 C 1.867188 1.523438 2.460938 -1.414062 2.890625 -4.1875 L 7.8125 -4.1875 Z M 8.0625 -3.78125 "/></g></g></g><g fill="#4b4c4d" fill-opacity="1"><g transform="translate(85.155671, 126.376601)"><g><path d="M 14.875 0 L 9.4375 0 L 9.4375 -14.875 L 9.5 -17.3125 L 9.578125 -19.984375 C 8.679688 -19.085938 8.054688 -18.5 7.703125 -18.21875 L 4.75 -15.84375 L 2.125 -19.109375 L 10.40625 -25.703125 L 14.875 -25.703125 Z M 14.875 0 "/></g></g></g><g fill="#4b4c4d" fill-opacity="1"><g transform="translate(194.295738, 126.376601)"><g><path d="M 19.265625 -12.84375 C 19.265625 -8.363281 18.53125 -5.039062 17.0625 -2.875 C 15.59375 -0.71875 13.328125 0.359375 10.265625 0.359375 C 7.296875 0.359375 5.054688 -0.753906 3.546875 -2.984375 C 2.046875 -5.210938 1.296875 -8.5 1.296875 -12.84375 C 1.296875 -17.382812 2.03125 -20.726562 3.5 -22.875 C 4.96875 -25.03125 7.222656 -26.109375 10.265625 -26.109375 C 13.234375 -26.109375 15.472656 -24.984375 16.984375 -22.734375 C 18.503906 -20.484375 19.265625 -17.1875 19.265625 -12.84375 Z M 6.703125 -12.84375 C 6.703125 -9.695312 6.972656 -7.441406 7.515625 -6.078125 C 8.054688 -4.710938 8.972656 -4.03125 10.265625 -4.03125 C 11.535156 -4.03125 12.453125 -4.71875 13.015625 -6.09375 C 13.578125 -7.476562 13.859375 -9.726562 13.859375 -12.84375 C 13.859375 -16 13.570312 -18.265625 13 -19.640625 C 12.425781 -21.015625 11.515625 -21.703125 10.265625 -21.703125 C 8.984375 -21.703125 8.066406 -21.015625 7.515625 -19.640625 C 6.972656 -18.265625 6.703125 -16 6.703125 -12.84375 Z M 6.703125 -12.84375 "/></g></g></g><g clip-path="url(#id2)"><path fill="#4b4c4d" d="M 240.316406 177.378906 C 241.046875 177.378906 241.75 176.980469 242.109375 176.285156 C 262.765625 136.351562 262.765625 88.667969 242.109375 48.730469 C 241.597656 47.742188 240.378906 47.355469 239.390625 47.867188 C 238.402344 48.378906 238.015625 49.597656 238.527344 50.589844 C 258.582031 89.363281 258.582031 135.65625 238.527344 174.429688 C 238.015625 175.417969 238.402344 176.636719 239.390625 177.152344 C 239.6875 177.304688 240.003906 177.378906 240.316406 177.378906 " fill-opacity="1" fill-rule="nonzero"/></g></svg>