<svg xmlns="http://www.w3.org/2000/svg" xmlns:xlink="http://www.w3.org/1999/xlink" width="400" zoomAndPan="magnify" viewBox="0 0 300 225" height="300" preserveAspectRatio="xMidYMid meet" version="1.0"><defs><g/><clipPath id="id1"><path d="M 20 47.082031 L 40 47.082031 L 40 177.582031 L 20 177.582031 Z M 20 47.082031 " clip-rule="nonzero"/></clipPath><clipPath id="id2"><path d="M 260 47.070312 L 280 47.070312 L 280 177.570312 L 260 177.570312 Z M 260 47.070312 " clip-rule="nonzero"/></clipPath><clipPath id="id3"><path d="M 67.195312 71.667969 L 124 71.667969 L 124 109.917969 L 67.195312 109.917969 Z M 67.195312 71.667969 " clip-rule="nonzero"/></clipPath><clipPath id="id4"><path d="M 185 71.667969 L 241 71.667969 L 241 109.917969 L 185 109.917969 Z M 185 71.667969 " clip-rule="nonzero"/></clipPath></defs><g clip-path="url(#id1)"><path fill="#4b4c4d" d="M 37.847656 177.351562 C 37.121094 177.351562 36.417969 176.957031 36.058594 176.261719 C 15.402344 136.324219 15.402344 88.640625 36.058594 48.703125 C 36.570312 47.714844 37.785156 47.328125 38.773438 47.839844 C 39.761719 48.351562 40.148438 49.570312 39.636719 50.5625 C 19.582031 89.335938 19.582031 135.632812 39.636719 174.40625 C 40.148438 175.394531 39.761719 176.613281 38.773438 177.125 C 38.480469 177.28125 38.160156 177.351562 37.847656 177.351562 " fill-opacity="1" fill-rule="nonzero"/></g><g fill="#4b4c4d" fill-opacity="1"><g transform="translate(158.106202, 122.406362)"><g><path d="M 7.828125 -3.671875 C 7.234375 -1.367188 6.234375 1.351562 4.828125 4.5 L 1.078125 4.5 C 1.816406 1.476562 2.390625 -1.375 2.796875 -4.0625 L 7.578125 -4.0625 Z M 7.828125 -3.671875 "/></g></g></g><g clip-path="url(#id2)"><path fill="#4b4c4d" d="M 262.144531 177.339844 C 262.875 177.339844 263.578125 176.941406 263.9375 176.246094 C 284.59375 136.3125 284.59375 88.625 263.9375 48.691406 C 263.425781 47.699219 262.207031 47.3125 261.21875 47.824219 C 260.230469 48.339844 259.84375 49.558594 260.355469 50.546875 C 280.410156 89.320312 280.410156 135.617188 260.355469 174.390625 C 259.84375 175.378906 260.230469 176.597656 261.21875 177.113281 C 261.515625 177.265625 261.832031 177.339844 262.144531 177.339844 " fill-opacity="1" fill-rule="nonzero"/></g><g clip-path="url(#id3)"><path fill="#4b4c4d" d="M 94.167969 71.667969 C 93.71875 71.667969 93.3125 71.800781 92.953125 72.070312 C 92.589844 72.335938 92.347656 72.683594 92.222656 73.113281 L 83.886719 101.179688 L 79.84375 89.148438 C 79.703125 88.738281 79.457031 88.40625 79.101562 88.152344 C 78.746094 87.898438 78.347656 87.773438 77.910156 87.773438 L 69.78125 87.773438 C 69.511719 87.773438 69.253906 87.824219 69.003906 87.925781 C 68.753906 88.027344 68.535156 88.171875 68.34375 88.363281 C 68.15625 88.550781 68.007812 88.769531 67.90625 89.015625 C 67.800781 89.261719 67.75 89.519531 67.75 89.785156 C 67.75 90.050781 67.800781 90.308594 67.90625 90.554688 C 68.007812 90.800781 68.15625 91.019531 68.34375 91.210938 C 68.535156 91.398438 68.753906 91.542969 69.003906 91.644531 C 69.253906 91.746094 69.511719 91.796875 69.78125 91.796875 L 76.445312 91.796875 L 82.078125 108.539062 C 82.21875 108.953125 82.464844 109.285156 82.820312 109.535156 C 83.175781 109.789062 83.570312 109.917969 84.007812 109.917969 L 84.042969 109.917969 C 84.488281 109.910156 84.886719 109.773438 85.238281 109.503906 C 85.59375 109.238281 85.832031 108.894531 85.957031 108.472656 L 95.691406 75.695312 L 121.605469 75.695312 C 121.875 75.695312 122.132812 75.640625 122.382812 75.539062 C 122.632812 75.4375 122.851562 75.292969 123.042969 75.105469 C 123.234375 74.914062 123.378906 74.699219 123.484375 74.449219 C 123.585938 74.203125 123.636719 73.949219 123.636719 73.679688 C 123.636719 73.414062 123.585938 73.15625 123.484375 72.910156 C 123.378906 72.664062 123.234375 72.445312 123.042969 72.257812 C 122.851562 72.066406 122.632812 71.921875 122.382812 71.820312 C 122.132812 71.71875 121.875 71.667969 121.605469 71.667969 Z M 94.167969 71.667969 " fill-opacity="1" fill-rule="nonzero"/></g><g fill="#4b4c4d" fill-opacity="1"><g transform="translate(98.060156, 108.508395)"><g><path d="M 18.828125 0 L 1.40625 0 L 1.40625 -3.671875 L 7.65625 -10 C 9.507812 -11.894531 10.71875 -13.207031 11.28125 -13.9375 C 11.851562 -14.675781 12.265625 -15.359375 12.515625 -15.984375 C 12.765625 -16.609375 12.890625 -17.253906 12.890625 -17.921875 C 12.890625 -18.929688 12.613281 -19.675781 12.0625 -20.15625 C 11.507812 -20.644531 10.773438 -20.890625 9.859375 -20.890625 C 8.890625 -20.890625 7.953125 -20.664062 7.046875 -20.21875 C 6.140625 -19.78125 5.191406 -19.15625 4.203125 -18.34375 L 1.328125 -21.734375 C 2.554688 -22.773438 3.570312 -23.507812 4.375 -23.9375 C 5.1875 -24.375 6.070312 -24.707031 7.03125 -24.9375 C 7.988281 -25.175781 9.054688 -25.296875 10.234375 -25.296875 C 11.796875 -25.296875 13.171875 -25.007812 14.359375 -24.4375 C 15.554688 -23.875 16.484375 -23.078125 17.140625 -22.046875 C 17.804688 -21.023438 18.140625 -19.859375 18.140625 -18.546875 C 18.140625 -17.398438 17.9375 -16.320312 17.53125 -15.3125 C 17.125 -14.300781 16.492188 -13.265625 15.640625 -12.203125 C 14.796875 -11.148438 13.304688 -9.644531 11.171875 -7.6875 L 7.96875 -4.671875 L 7.96875 -4.4375 L 18.828125 -4.4375 Z M 18.828125 0 "/></g></g></g><g fill="#4b4c4d" fill-opacity="1"><g transform="translate(94.57046, 152.861987)"><g><path d="M 18.828125 0 L 1.40625 0 L 1.40625 -3.671875 L 7.65625 -10 C 9.507812 -11.894531 10.71875 -13.207031 11.28125 -13.9375 C 11.851562 -14.675781 12.265625 -15.359375 12.515625 -15.984375 C 12.765625 -16.609375 12.890625 -17.253906 12.890625 -17.921875 C 12.890625 -18.929688 12.613281 -19.675781 12.0625 -20.15625 C 11.507812 -20.644531 10.773438 -20.890625 9.859375 -20.890625 C 8.890625 -20.890625 7.953125 -20.664062 7.046875 -20.21875 C 6.140625 -19.78125 5.191406 -19.15625 4.203125 -18.34375 L 1.328125 -21.734375 C 2.554688 -22.773438 3.570312 -23.507812 4.375 -23.9375 C 5.1875 -24.375 6.070312 -24.707031 7.03125 -24.9375 C 7.988281 -25.175781 9.054688 -25.296875 10.234375 -25.296875 C 11.796875 -25.296875 13.171875 -25.007812 14.359375 -24.4375 C 15.554688 -23.875 16.484375 -23.078125 17.140625 -22.046875 C 17.804688 -21.023438 18.140625 -19.859375 18.140625 -18.546875 C 18.140625 -17.398438 17.9375 -16.320312 17.53125 -15.3125 C 17.125 -14.300781 16.492188 -13.265625 15.640625 -12.203125 C 14.796875 -11.148438 13.304688 -9.644531 11.171875 -7.6875 L 7.96875 -4.671875 L 7.96875 -4.4375 L 18.828125 -4.4375 Z M 18.828125 0 "/></g></g></g><g fill="#4b4c4d" fill-opacity="1"><g transform="translate(211.834169, 152.772923)"><g><path d="M 18.828125 0 L 1.40625 0 L 1.40625 -3.671875 L 7.65625 -10 C 9.507812 -11.894531 10.71875 -13.207031 11.28125 -13.9375 C 11.851562 -14.675781 12.265625 -15.359375 12.515625 -15.984375 C 12.765625 -16.609375 12.890625 -17.253906 12.890625 -17.921875 C 12.890625 -18.929688 12.613281 -19.675781 12.0625 -20.15625 C 11.507812 -20.644531 10.773438 -20.890625 9.859375 -20.890625 C 8.890625 -20.890625 7.953125 -20.664062 7.046875 -20.21875 C 6.140625 -19.78125 5.191406 -19.15625 4.203125 -18.34375 L 1.328125 -21.734375 C 2.554688 -22.773438 3.570312 -23.507812 4.375 -23.9375 C 5.1875 -24.375 6.070312 -24.707031 7.03125 -24.9375 C 7.988281 -25.175781 9.054688 -25.296875 10.234375 -25.296875 C 11.796875 -25.296875 13.171875 -25.007812 14.359375 -24.4375 C 15.554688 -23.875 16.484375 -23.078125 17.140625 -22.046875 C 17.804688 -21.023438 18.140625 -19.859375 18.140625 -18.546875 C 18.140625 -17.398438 17.9375 -16.320312 17.53125 -15.3125 C 17.125 -14.300781 16.492188 -13.265625 15.640625 -12.203125 C 14.796875 -11.148438 13.304688 -9.644531 11.171875 -7.6875 L 7.96875 -4.671875 L 7.96875 -4.4375 L 18.828125 -4.4375 Z M 18.828125 0 "/></g></g></g><g clip-path="url(#id4)"><path fill="#4b4c4d" d="M 211.433594 71.667969 C 210.984375 71.667969 210.578125 71.800781 210.214844 72.070312 C 209.855469 72.335938 209.613281 72.683594 209.484375 73.113281 L 201.152344 101.179688 L 197.105469 89.148438 C 196.96875 88.738281 196.71875 88.40625 196.363281 88.152344 C 196.007812 87.898438 195.613281 87.773438 195.175781 87.773438 L 187.046875 87.773438 C 186.777344 87.773438 186.515625 87.824219 186.269531 87.925781 C 186.019531 88.027344 185.800781 88.171875 185.609375 88.363281 C 185.417969 88.550781 185.269531 88.769531 185.167969 89.015625 C 185.066406 89.261719 185.011719 89.519531 185.011719 89.785156 C 185.011719 90.050781 185.066406 90.308594 185.167969 90.554688 C 185.269531 90.800781 185.417969 91.019531 185.609375 91.210938 C 185.800781 91.398438 186.019531 91.542969 186.269531 91.644531 C 186.515625 91.746094 186.777344 91.796875 187.046875 91.796875 L 193.710938 91.796875 L 199.34375 108.539062 C 199.480469 108.953125 199.726562 109.285156 200.082031 109.535156 C 200.4375 109.789062 200.835938 109.917969 201.273438 109.917969 L 201.308594 109.917969 C 201.753906 109.910156 202.152344 109.773438 202.503906 109.503906 C 202.855469 109.238281 203.097656 108.894531 203.222656 108.472656 L 212.953125 75.695312 L 238.871094 75.695312 C 239.140625 75.695312 239.398438 75.640625 239.648438 75.539062 C 239.894531 75.4375 240.117188 75.292969 240.304688 75.105469 C 240.496094 74.914062 240.644531 74.699219 240.746094 74.449219 C 240.851562 74.203125 240.902344 73.949219 240.902344 73.679688 C 240.902344 73.414062 240.851562 73.15625 240.746094 72.910156 C 240.644531 72.664062 240.496094 72.445312 240.304688 72.257812 C 240.117188 72.066406 239.894531 71.921875 239.648438 71.820312 C 239.398438 71.71875 239.140625 71.667969 238.871094 71.667969 Z M 211.433594 71.667969 " fill-opacity="1" fill-rule="nonzero"/></g><g fill="#4b4c4d" fill-opacity="1"><g transform="translate(215.757286, 108.508395)"><g><path d="M 18.828125 0 L 1.40625 0 L 1.40625 -3.671875 L 7.65625 -10 C 9.507812 -11.894531 10.71875 -13.207031 11.28125 -13.9375 C 11.851562 -14.675781 12.265625 -15.359375 12.515625 -15.984375 C 12.765625 -16.609375 12.890625 -17.253906 12.890625 -17.921875 C 12.890625 -18.929688 12.613281 -19.675781 12.0625 -20.15625 C 11.507812 -20.644531 10.773438 -20.890625 9.859375 -20.890625 C 8.890625 -20.890625 7.953125 -20.664062 7.046875 -20.21875 C 6.140625 -19.78125 5.191406 -19.15625 4.203125 -18.34375 L 1.328125 -21.734375 C 2.554688 -22.773438 3.570312 -23.507812 4.375 -23.9375 C 5.1875 -24.375 6.070312 -24.707031 7.03125 -24.9375 C 7.988281 -25.175781 9.054688 -25.296875 10.234375 -25.296875 C 11.796875 -25.296875 13.171875 -25.007812 14.359375 -24.4375 C 15.554688 -23.875 16.484375 -23.078125 17.140625 -22.046875 C 17.804688 -21.023438 18.140625 -19.859375 18.140625 -18.546875 C 18.140625 -17.398438 17.9375 -16.320312 17.53125 -15.3125 C 17.125 -14.300781 16.492188 -13.265625 15.640625 -12.203125 C 14.796875 -11.148438 13.304688 -9.644531 11.171875 -7.6875 L 7.96875 -4.671875 L 7.96875 -4.4375 L 18.828125 -4.4375 Z M 18.828125 0 "/></g></g></g><path stroke-linecap="butt" transform="matrix(3.01271, 0, 0, 3.096774, 67.193968, 117.627427)" fill="none" stroke-linejoin="miter" d="M 0.000446143 0.000477513 L 24.897572 0.000477513 " stroke="#4b4c4d" stroke-width="1" stroke-opacity="1" stroke-miterlimit="4"/><path stroke-linecap="butt" transform="matrix(3.01271, 0, 0, 3.096774, 184.457673, 117.627427)" fill="none" stroke-linejoin="miter" d="M -0.000213052 0.000477513 L 24.89821 0.000477513 " stroke="#4b4c4d" stroke-width="1" stroke-opacity="1" stroke-miterlimit="4"/><path stroke-linecap="butt" transform="matrix(2.993318, 0, 0, 3, 40.27124, 117.54985)" fill="none" stroke-linejoin="miter" d="M -0.000570829 0.000310449 L 5.263758 0.000310449 " stroke="#4b4c4d" stroke-width="1" stroke-opacity="1" stroke-miterlimit="4"/></svg>