<svg xmlns="http://www.w3.org/2000/svg" xmlns:xlink="http://www.w3.org/1999/xlink" width="400" zoomAndPan="magnify" viewBox="0 0 300 225" height="300" preserveAspectRatio="xMidYMid meet" version="1.0"><defs><g/><clipPath id="id1"><path d="M 7 47.089844 L 26.613281 47.089844 L 26.613281 177.589844 L 7 177.589844 Z M 7 47.089844 " clip-rule="nonzero"/></clipPath><clipPath id="id2"><path d="M 273.382812 47.089844 L 293 47.089844 L 293 177.589844 L 273.382812 177.589844 Z M 273.382812 47.089844 " clip-rule="nonzero"/></clipPath><clipPath id="id3"><path d="M 54 71.675781 L 110.644531 71.675781 L 110.644531 109.925781 L 54 109.925781 Z M 54 71.675781 " clip-rule="nonzero"/></clipPath><clipPath id="id4"><path d="M 199 72.367188 L 255.582031 72.367188 L 255.582031 110.617188 L 199 110.617188 Z M 199 72.367188 " clip-rule="nonzero"/></clipPath></defs><g clip-path="url(#id1)"><path fill="#4b4c4d" d="M 24.300781 177.359375 C 23.570312 177.359375 22.867188 176.964844 22.507812 176.269531 C 1.855469 136.332031 1.855469 88.648438 22.507812 48.710938 C 23.023438 47.722656 24.238281 47.335938 25.226562 47.847656 C 26.214844 48.359375 26.601562 49.578125 26.089844 50.570312 C 6.035156 89.34375 6.035156 135.640625 26.089844 174.410156 C 26.601562 175.402344 26.214844 176.621094 25.226562 177.132812 C 24.929688 177.289062 24.613281 177.359375 24.300781 177.359375 " fill-opacity="1" fill-rule="nonzero"/></g><g fill="#4b4c4d" fill-opacity="1"><g transform="translate(144.558289, 122.413394)"><g><path d="M 7.828125 -3.671875 C 7.234375 -1.367188 6.234375 1.351562 4.828125 4.5 L 1.078125 4.5 C 1.816406 1.476562 2.390625 -1.375 2.796875 -4.0625 L 7.578125 -4.0625 Z M 7.828125 -3.671875 "/></g></g></g><g clip-path="url(#id2)"><path fill="#4b4c4d" d="M 275.691406 177.359375 C 276.421875 177.359375 277.125 176.964844 277.484375 176.269531 C 298.140625 136.332031 298.140625 88.648438 277.484375 48.710938 C 276.972656 47.722656 275.757812 47.335938 274.765625 47.847656 C 273.777344 48.359375 273.390625 49.578125 273.90625 50.570312 C 293.957031 89.34375 293.957031 135.640625 273.90625 174.410156 C 273.390625 175.402344 273.777344 176.621094 274.765625 177.132812 C 275.0625 177.289062 275.378906 177.359375 275.691406 177.359375 " fill-opacity="1" fill-rule="nonzero"/></g><g clip-path="url(#id3)"><path fill="#4b4c4d" d="M 80.621094 71.675781 C 80.171875 71.675781 79.765625 71.808594 79.40625 72.074219 C 79.042969 72.34375 78.800781 72.691406 78.671875 73.121094 L 70.339844 101.183594 L 66.292969 89.15625 C 66.15625 88.746094 65.910156 88.414062 65.554688 88.160156 C 65.199219 87.90625 64.800781 87.777344 64.363281 87.78125 L 56.234375 87.78125 C 55.964844 87.78125 55.707031 87.832031 55.457031 87.933594 C 55.207031 88.035156 54.988281 88.179688 54.796875 88.371094 C 54.605469 88.558594 54.460938 88.777344 54.355469 89.023438 C 54.253906 89.269531 54.203125 89.527344 54.203125 89.792969 C 54.203125 90.058594 54.253906 90.316406 54.355469 90.5625 C 54.460938 90.808594 54.605469 91.027344 54.796875 91.214844 C 54.988281 91.40625 55.207031 91.550781 55.457031 91.652344 C 55.707031 91.753906 55.964844 91.804688 56.234375 91.804688 L 62.898438 91.804688 L 68.53125 108.546875 C 68.667969 108.957031 68.917969 109.289062 69.269531 109.542969 C 69.625 109.796875 70.023438 109.925781 70.460938 109.925781 L 70.496094 109.925781 C 70.941406 109.917969 71.339844 109.777344 71.691406 109.511719 C 72.046875 109.246094 72.285156 108.902344 72.410156 108.480469 L 82.140625 75.699219 L 108.058594 75.699219 C 108.328125 75.699219 108.585938 75.648438 108.835938 75.546875 C 109.085938 75.445312 109.304688 75.300781 109.496094 75.109375 C 109.683594 74.921875 109.832031 74.703125 109.933594 74.457031 C 110.039062 74.210938 110.089844 73.953125 110.089844 73.6875 C 110.089844 73.421875 110.039062 73.164062 109.933594 72.917969 C 109.832031 72.671875 109.683594 72.453125 109.496094 72.265625 C 109.304688 72.074219 109.085938 71.929688 108.835938 71.828125 C 108.585938 71.726562 108.328125 71.675781 108.058594 71.675781 Z M 80.621094 71.675781 " fill-opacity="1" fill-rule="nonzero"/></g><g fill="#4b4c4d" fill-opacity="1"><g transform="translate(84.512235, 108.51566)"><g><path d="M 18.828125 0 L 1.40625 0 L 1.40625 -3.671875 L 7.65625 -10 C 9.507812 -11.894531 10.71875 -13.207031 11.28125 -13.9375 C 11.851562 -14.675781 12.265625 -15.359375 12.515625 -15.984375 C 12.765625 -16.609375 12.890625 -17.253906 12.890625 -17.921875 C 12.890625 -18.929688 12.613281 -19.675781 12.0625 -20.15625 C 11.507812 -20.644531 10.773438 -20.890625 9.859375 -20.890625 C 8.890625 -20.890625 7.953125 -20.664062 7.046875 -20.21875 C 6.140625 -19.78125 5.191406 -19.15625 4.203125 -18.34375 L 1.328125 -21.734375 C 2.554688 -22.773438 3.570312 -23.507812 4.375 -23.9375 C 5.1875 -24.375 6.070312 -24.707031 7.03125 -24.9375 C 7.988281 -25.175781 9.054688 -25.296875 10.234375 -25.296875 C 11.796875 -25.296875 13.171875 -25.007812 14.359375 -24.4375 C 15.554688 -23.875 16.484375 -23.078125 17.140625 -22.046875 C 17.804688 -21.023438 18.140625 -19.859375 18.140625 -18.546875 C 18.140625 -17.398438 17.9375 -16.320312 17.53125 -15.3125 C 17.125 -14.300781 16.492188 -13.265625 15.640625 -12.203125 C 14.796875 -11.148438 13.304688 -9.644531 11.171875 -7.6875 L 7.96875 -4.671875 L 7.96875 -4.4375 L 18.828125 -4.4375 Z M 18.828125 0 "/></g></g></g><g fill="#4b4c4d" fill-opacity="1"><g transform="translate(81.022537, 152.869487)"><g><path d="M 18.828125 0 L 1.40625 0 L 1.40625 -3.671875 L 7.65625 -10 C 9.507812 -11.894531 10.71875 -13.207031 11.28125 -13.9375 C 11.851562 -14.675781 12.265625 -15.359375 12.515625 -15.984375 C 12.765625 -16.609375 12.890625 -17.253906 12.890625 -17.921875 C 12.890625 -18.929688 12.613281 -19.675781 12.0625 -20.15625 C 11.507812 -20.644531 10.773438 -20.890625 9.859375 -20.890625 C 8.890625 -20.890625 7.953125 -20.664062 7.046875 -20.21875 C 6.140625 -19.78125 5.191406 -19.15625 4.203125 -18.34375 L 1.328125 -21.734375 C 2.554688 -22.773438 3.570312 -23.507812 4.375 -23.9375 C 5.1875 -24.375 6.070312 -24.707031 7.03125 -24.9375 C 7.988281 -25.175781 9.054688 -25.296875 10.234375 -25.296875 C 11.796875 -25.296875 13.171875 -25.007812 14.359375 -24.4375 C 15.554688 -23.875 16.484375 -23.078125 17.140625 -22.046875 C 17.804688 -21.023438 18.140625 -19.859375 18.140625 -18.546875 C 18.140625 -17.398438 17.9375 -16.320312 17.53125 -15.3125 C 17.125 -14.300781 16.492188 -13.265625 15.640625 -12.203125 C 14.796875 -11.148438 13.304688 -9.644531 11.171875 -7.6875 L 7.96875 -4.671875 L 7.96875 -4.4375 L 18.828125 -4.4375 Z M 18.828125 0 "/></g></g></g><g fill="#4b4c4d" fill-opacity="1"><g transform="translate(225.95897, 153.471361)"><g><path d="M 18.828125 0 L 1.40625 0 L 1.40625 -3.671875 L 7.65625 -10 C 9.507812 -11.894531 10.71875 -13.207031 11.28125 -13.9375 C 11.851562 -14.675781 12.265625 -15.359375 12.515625 -15.984375 C 12.765625 -16.609375 12.890625 -17.253906 12.890625 -17.921875 C 12.890625 -18.929688 12.613281 -19.675781 12.0625 -20.15625 C 11.507812 -20.644531 10.773438 -20.890625 9.859375 -20.890625 C 8.890625 -20.890625 7.953125 -20.664062 7.046875 -20.21875 C 6.140625 -19.78125 5.191406 -19.15625 4.203125 -18.34375 L 1.328125 -21.734375 C 2.554688 -22.773438 3.570312 -23.507812 4.375 -23.9375 C 5.1875 -24.375 6.070312 -24.707031 7.03125 -24.9375 C 7.988281 -25.175781 9.054688 -25.296875 10.234375 -25.296875 C 11.796875 -25.296875 13.171875 -25.007812 14.359375 -24.4375 C 15.554688 -23.875 16.484375 -23.078125 17.140625 -22.046875 C 17.804688 -21.023438 18.140625 -19.859375 18.140625 -18.546875 C 18.140625 -17.398438 17.9375 -16.320312 17.53125 -15.3125 C 17.125 -14.300781 16.492188 -13.265625 15.640625 -12.203125 C 14.796875 -11.148438 13.304688 -9.644531 11.171875 -7.6875 L 7.96875 -4.671875 L 7.96875 -4.4375 L 18.828125 -4.4375 Z M 18.828125 0 "/></g></g></g><g clip-path="url(#id4)"><path fill="#4b4c4d" d="M 225.558594 72.367188 C 225.109375 72.367188 224.703125 72.5 224.339844 72.765625 C 223.980469 73.035156 223.738281 73.382812 223.609375 73.8125 L 215.277344 101.875 L 211.230469 89.847656 C 211.09375 89.4375 210.84375 89.105469 210.488281 88.851562 C 210.132812 88.597656 209.738281 88.46875 209.300781 88.472656 L 201.171875 88.472656 C 200.902344 88.472656 200.640625 88.523438 200.394531 88.625 C 200.144531 88.726562 199.925781 88.871094 199.734375 89.058594 C 199.542969 89.25 199.394531 89.46875 199.292969 89.714844 C 199.191406 89.960938 199.136719 90.21875 199.136719 90.484375 C 199.136719 90.75 199.191406 91.007812 199.292969 91.253906 C 199.394531 91.5 199.542969 91.71875 199.734375 91.90625 C 199.925781 92.097656 200.144531 92.242188 200.394531 92.34375 C 200.640625 92.445312 200.902344 92.496094 201.171875 92.496094 L 207.835938 92.496094 L 213.46875 109.238281 C 213.605469 109.648438 213.851562 109.980469 214.207031 110.234375 C 214.5625 110.488281 214.960938 110.617188 215.398438 110.617188 L 215.433594 110.617188 C 215.878906 110.609375 216.277344 110.46875 216.628906 110.203125 C 216.980469 109.9375 217.21875 109.59375 217.347656 109.171875 L 227.078125 76.390625 L 252.996094 76.390625 C 253.265625 76.390625 253.523438 76.339844 253.773438 76.238281 C 254.019531 76.136719 254.242188 75.992188 254.429688 75.800781 C 254.621094 75.613281 254.769531 75.394531 254.871094 75.148438 C 254.976562 74.902344 255.027344 74.644531 255.027344 74.378906 C 255.027344 74.113281 254.976562 73.855469 254.871094 73.609375 C 254.769531 73.363281 254.621094 73.144531 254.429688 72.957031 C 254.242188 72.765625 254.019531 72.621094 253.773438 72.519531 C 253.523438 72.417969 253.265625 72.367188 252.996094 72.367188 Z M 225.558594 72.367188 " fill-opacity="1" fill-rule="nonzero"/></g><g fill="#4b4c4d" fill-opacity="1"><g transform="translate(229.882099, 109.207066)"><g><path d="M 18.828125 0 L 1.40625 0 L 1.40625 -3.671875 L 7.65625 -10 C 9.507812 -11.894531 10.71875 -13.207031 11.28125 -13.9375 C 11.851562 -14.675781 12.265625 -15.359375 12.515625 -15.984375 C 12.765625 -16.609375 12.890625 -17.253906 12.890625 -17.921875 C 12.890625 -18.929688 12.613281 -19.675781 12.0625 -20.15625 C 11.507812 -20.644531 10.773438 -20.890625 9.859375 -20.890625 C 8.890625 -20.890625 7.953125 -20.664062 7.046875 -20.21875 C 6.140625 -19.78125 5.191406 -19.15625 4.203125 -18.34375 L 1.328125 -21.734375 C 2.554688 -22.773438 3.570312 -23.507812 4.375 -23.9375 C 5.1875 -24.375 6.070312 -24.707031 7.03125 -24.9375 C 7.988281 -25.175781 9.054688 -25.296875 10.234375 -25.296875 C 11.796875 -25.296875 13.171875 -25.007812 14.359375 -24.4375 C 15.554688 -23.875 16.484375 -23.078125 17.140625 -22.046875 C 17.804688 -21.023438 18.140625 -19.859375 18.140625 -18.546875 C 18.140625 -17.398438 17.9375 -16.320312 17.53125 -15.3125 C 17.125 -14.300781 16.492188 -13.265625 15.640625 -12.203125 C 14.796875 -11.148438 13.304688 -9.644531 11.171875 -7.6875 L 7.96875 -4.671875 L 7.96875 -4.4375 L 18.828125 -4.4375 Z M 18.828125 0 "/></g></g></g><path stroke-linecap="butt" transform="matrix(3.01271, 0, 0, 3.096774, 53.646043, 117.634692)" fill="none" stroke-linejoin="miter" d="M -0.000501912 -0.000607018 L 24.897921 -0.000607018 " stroke="#4b4c4d" stroke-width="1" stroke-opacity="1" stroke-miterlimit="4"/><path stroke-linecap="butt" transform="matrix(3.01271, 0, 0, 3.096774, 198.582472, 118.325863)" fill="none" stroke-linejoin="miter" d="M -0.000146206 -0.000531107 L 24.898276 -0.000531107 " stroke="#4b4c4d" stroke-width="1" stroke-opacity="1" stroke-miterlimit="4"/><path stroke-linecap="butt" transform="matrix(2.993318, 0, 0, 3, 26.723317, 117.557115)" fill="none" stroke-linejoin="miter" d="M -0.000220837 0.000493016 L 5.264108 0.000493016 " stroke="#4b4c4d" stroke-width="1" stroke-opacity="1" stroke-miterlimit="4"/><path stroke-linecap="butt" transform="matrix(2.993318, 0, 0, 3, 170.909743, 117.586412)" fill="none" stroke-linejoin="miter" d="M 0.000137964 -0.000158 L 5.264467 -0.000158 " stroke="#4b4c4d" stroke-width="1" stroke-opacity="1" stroke-miterlimit="4"/></svg>