<svg xmlns="http://www.w3.org/2000/svg" xmlns:xlink="http://www.w3.org/1999/xlink" width="400" zoomAndPan="magnify" viewBox="0 0 300 225" height="300" preserveAspectRatio="xMidYMid meet" version="1.0"><defs><g/><clipPath id="id1"><path d="M 20 47.074219 L 40 47.074219 L 40 177.574219 L 20 177.574219 Z M 20 47.074219 " clip-rule="nonzero"/></clipPath><clipPath id="id2"><path d="M 260 47.074219 L 280 47.074219 L 280 177.574219 L 260 177.574219 Z M 260 47.074219 " clip-rule="nonzero"/></clipPath><clipPath id="id3"><path d="M 40.097656 71.660156 L 97 71.660156 L 97 109.910156 L 40.097656 109.910156 Z M 40.097656 71.660156 " clip-rule="nonzero"/></clipPath><clipPath id="id4"><path d="M 185.035156 72.351562 L 242 72.351562 L 242 110.601562 L 185.035156 110.601562 Z M 185.035156 72.351562 " clip-rule="nonzero"/></clipPath></defs><g clip-path="url(#id1)"><path fill="#4b4c4d" d="M 37.847656 177.347656 C 37.121094 177.347656 36.417969 176.949219 36.058594 176.253906 C 15.402344 136.320312 15.402344 88.632812 36.058594 48.699219 C 36.570312 47.707031 37.785156 47.320312 38.773438 47.832031 C 39.761719 48.347656 40.148438 49.566406 39.636719 50.554688 C 19.582031 89.328125 19.582031 135.625 39.636719 174.398438 C 40.148438 175.386719 39.761719 176.605469 38.773438 177.117188 C 38.480469 177.273438 38.160156 177.347656 37.847656 177.347656 " fill-opacity="1" fill-rule="nonzero"/></g><g fill="#4b4c4d" fill-opacity="1"><g transform="translate(131.010359, 122.399098)"><g><path d="M 7.828125 -3.671875 C 7.234375 -1.367188 6.234375 1.351562 4.828125 4.5 L 1.078125 4.5 C 1.816406 1.476562 2.390625 -1.375 2.796875 -4.0625 L 7.578125 -4.0625 Z M 7.828125 -3.671875 "/></g></g></g><g clip-path="url(#id2)"><path fill="#4b4c4d" d="M 262.144531 177.347656 C 262.875 177.347656 263.578125 176.949219 263.9375 176.253906 C 284.59375 136.320312 284.59375 88.632812 263.9375 48.699219 C 263.425781 47.707031 262.207031 47.320312 261.21875 47.832031 C 260.230469 48.347656 259.84375 49.566406 260.355469 50.554688 C 280.410156 89.328125 280.410156 135.625 260.355469 174.398438 C 259.84375 175.386719 260.230469 176.605469 261.21875 177.117188 C 261.515625 177.273438 261.832031 177.347656 262.144531 177.347656 " fill-opacity="1" fill-rule="nonzero"/></g><g clip-path="url(#id3)"><path fill="#4b4c4d" d="M 67.074219 71.660156 C 66.625 71.660156 66.21875 71.792969 65.855469 72.0625 C 65.496094 72.328125 65.253906 72.675781 65.125 73.105469 L 56.792969 101.171875 L 52.746094 89.140625 C 52.609375 88.730469 52.359375 88.398438 52.003906 88.144531 C 51.648438 87.890625 51.253906 87.765625 50.816406 87.765625 L 42.6875 87.765625 C 42.417969 87.765625 42.15625 87.816406 41.910156 87.917969 C 41.660156 88.019531 41.441406 88.164062 41.25 88.355469 C 41.058594 88.542969 40.910156 88.761719 40.808594 89.007812 C 40.707031 89.253906 40.652344 89.511719 40.652344 89.777344 C 40.652344 90.046875 40.707031 90.300781 40.808594 90.546875 C 40.910156 90.796875 41.058594 91.011719 41.25 91.203125 C 41.441406 91.390625 41.660156 91.535156 41.910156 91.636719 C 42.15625 91.738281 42.417969 91.792969 42.6875 91.792969 L 49.351562 91.792969 L 54.984375 108.53125 C 55.121094 108.945312 55.367188 109.277344 55.722656 109.53125 C 56.078125 109.78125 56.476562 109.910156 56.914062 109.910156 L 56.949219 109.910156 C 57.394531 109.902344 57.792969 109.765625 58.144531 109.496094 C 58.496094 109.230469 58.734375 108.886719 58.863281 108.464844 L 68.59375 75.6875 L 94.511719 75.6875 C 94.78125 75.6875 95.039062 75.636719 95.289062 75.53125 C 95.535156 75.429688 95.757812 75.285156 95.945312 75.097656 C 96.136719 74.90625 96.285156 74.691406 96.386719 74.441406 C 96.492188 74.195312 96.542969 73.941406 96.542969 73.671875 C 96.542969 73.40625 96.492188 73.148438 96.386719 72.902344 C 96.285156 72.65625 96.136719 72.4375 95.945312 72.25 C 95.757812 72.0625 95.535156 71.914062 95.289062 71.8125 C 95.039062 71.710938 94.78125 71.660156 94.511719 71.660156 Z M 67.074219 71.660156 " fill-opacity="1" fill-rule="nonzero"/></g><g fill="#4b4c4d" fill-opacity="1"><g transform="translate(70.96431, 108.501363)"><g><path d="M 18.828125 0 L 1.40625 0 L 1.40625 -3.671875 L 7.65625 -10 C 9.507812 -11.894531 10.71875 -13.207031 11.28125 -13.9375 C 11.851562 -14.675781 12.265625 -15.359375 12.515625 -15.984375 C 12.765625 -16.609375 12.890625 -17.253906 12.890625 -17.921875 C 12.890625 -18.929688 12.613281 -19.675781 12.0625 -20.15625 C 11.507812 -20.644531 10.773438 -20.890625 9.859375 -20.890625 C 8.890625 -20.890625 7.953125 -20.664062 7.046875 -20.21875 C 6.140625 -19.78125 5.191406 -19.15625 4.203125 -18.34375 L 1.328125 -21.734375 C 2.554688 -22.773438 3.570312 -23.507812 4.375 -23.9375 C 5.1875 -24.375 6.070312 -24.707031 7.03125 -24.9375 C 7.988281 -25.175781 9.054688 -25.296875 10.234375 -25.296875 C 11.796875 -25.296875 13.171875 -25.007812 14.359375 -24.4375 C 15.554688 -23.875 16.484375 -23.078125 17.140625 -22.046875 C 17.804688 -21.023438 18.140625 -19.859375 18.140625 -18.546875 C 18.140625 -17.398438 17.9375 -16.320312 17.53125 -15.3125 C 17.125 -14.300781 16.492188 -13.265625 15.640625 -12.203125 C 14.796875 -11.148438 13.304688 -9.644531 11.171875 -7.6875 L 7.96875 -4.671875 L 7.96875 -4.4375 L 18.828125 -4.4375 Z M 18.828125 0 "/></g></g></g><g fill="#4b4c4d" fill-opacity="1"><g transform="translate(67.474607, 152.854719)"><g><path d="M 18.828125 0 L 1.40625 0 L 1.40625 -3.671875 L 7.65625 -10 C 9.507812 -11.894531 10.71875 -13.207031 11.28125 -13.9375 C 11.851562 -14.675781 12.265625 -15.359375 12.515625 -15.984375 C 12.765625 -16.609375 12.890625 -17.253906 12.890625 -17.921875 C 12.890625 -18.929688 12.613281 -19.675781 12.0625 -20.15625 C 11.507812 -20.644531 10.773438 -20.890625 9.859375 -20.890625 C 8.890625 -20.890625 7.953125 -20.664062 7.046875 -20.21875 C 6.140625 -19.78125 5.191406 -19.15625 4.203125 -18.34375 L 1.328125 -21.734375 C 2.554688 -22.773438 3.570312 -23.507812 4.375 -23.9375 C 5.1875 -24.375 6.070312 -24.707031 7.03125 -24.9375 C 7.988281 -25.175781 9.054688 -25.296875 10.234375 -25.296875 C 11.796875 -25.296875 13.171875 -25.007812 14.359375 -24.4375 C 15.554688 -23.875 16.484375 -23.078125 17.140625 -22.046875 C 17.804688 -21.023438 18.140625 -19.859375 18.140625 -18.546875 C 18.140625 -17.398438 17.9375 -16.320312 17.53125 -15.3125 C 17.125 -14.300781 16.492188 -13.265625 15.640625 -12.203125 C 14.796875 -11.148438 13.304688 -9.644531 11.171875 -7.6875 L 7.96875 -4.671875 L 7.96875 -4.4375 L 18.828125 -4.4375 Z M 18.828125 0 "/></g></g></g><g fill="#4b4c4d" fill-opacity="1"><g transform="translate(212.41104, 153.456829)"><g><path d="M 18.828125 0 L 1.40625 0 L 1.40625 -3.671875 L 7.65625 -10 C 9.507812 -11.894531 10.71875 -13.207031 11.28125 -13.9375 C 11.851562 -14.675781 12.265625 -15.359375 12.515625 -15.984375 C 12.765625 -16.609375 12.890625 -17.253906 12.890625 -17.921875 C 12.890625 -18.929688 12.613281 -19.675781 12.0625 -20.15625 C 11.507812 -20.644531 10.773438 -20.890625 9.859375 -20.890625 C 8.890625 -20.890625 7.953125 -20.664062 7.046875 -20.21875 C 6.140625 -19.78125 5.191406 -19.15625 4.203125 -18.34375 L 1.328125 -21.734375 C 2.554688 -22.773438 3.570312 -23.507812 4.375 -23.9375 C 5.1875 -24.375 6.070312 -24.707031 7.03125 -24.9375 C 7.988281 -25.175781 9.054688 -25.296875 10.234375 -25.296875 C 11.796875 -25.296875 13.171875 -25.007812 14.359375 -24.4375 C 15.554688 -23.875 16.484375 -23.078125 17.140625 -22.046875 C 17.804688 -21.023438 18.140625 -19.859375 18.140625 -18.546875 C 18.140625 -17.398438 17.9375 -16.320312 17.53125 -15.3125 C 17.125 -14.300781 16.492188 -13.265625 15.640625 -12.203125 C 14.796875 -11.148438 13.304688 -9.644531 11.171875 -7.6875 L 7.96875 -4.671875 L 7.96875 -4.4375 L 18.828125 -4.4375 Z M 18.828125 0 "/></g></g></g><g clip-path="url(#id4)"><path fill="#4b4c4d" d="M 212.011719 72.351562 C 211.558594 72.351562 211.152344 72.484375 210.792969 72.753906 C 210.433594 73.019531 210.1875 73.367188 210.0625 73.796875 L 201.730469 101.863281 L 197.683594 89.832031 C 197.542969 89.421875 197.296875 89.089844 196.941406 88.835938 C 196.585938 88.582031 196.191406 88.457031 195.75 88.457031 L 187.621094 88.457031 C 187.351562 88.457031 187.09375 88.507812 186.84375 88.609375 C 186.597656 88.710938 186.375 88.855469 186.1875 89.046875 C 185.996094 89.234375 185.847656 89.453125 185.746094 89.699219 C 185.640625 89.945312 185.589844 90.203125 185.589844 90.46875 C 185.589844 90.738281 185.640625 90.992188 185.746094 91.238281 C 185.847656 91.488281 185.996094 91.703125 186.1875 91.894531 C 186.375 92.082031 186.597656 92.226562 186.84375 92.328125 C 187.09375 92.429688 187.351562 92.484375 187.621094 92.484375 L 194.285156 92.484375 L 199.921875 109.222656 C 200.058594 109.636719 200.304688 109.96875 200.660156 110.222656 C 201.015625 110.472656 201.410156 110.601562 201.847656 110.601562 L 201.886719 110.601562 C 202.328125 110.59375 202.726562 110.457031 203.082031 110.1875 C 203.433594 109.921875 203.671875 109.578125 203.796875 109.15625 L 213.53125 76.378906 L 239.445312 76.378906 C 239.714844 76.378906 239.976562 76.328125 240.222656 76.222656 C 240.472656 76.121094 240.691406 75.976562 240.882812 75.789062 C 241.074219 75.597656 241.222656 75.382812 241.324219 75.132812 C 241.425781 74.886719 241.480469 74.632812 241.480469 74.363281 C 241.480469 74.097656 241.425781 73.839844 241.324219 73.59375 C 241.222656 73.347656 241.074219 73.128906 240.882812 72.941406 C 240.691406 72.753906 240.472656 72.605469 240.222656 72.503906 C 239.976562 72.402344 239.714844 72.351562 239.445312 72.351562 Z M 212.011719 72.351562 " fill-opacity="1" fill-rule="nonzero"/></g><g fill="#4b4c4d" fill-opacity="1"><g transform="translate(216.334169, 109.192534)"><g><path d="M 18.828125 0 L 1.40625 0 L 1.40625 -3.671875 L 7.65625 -10 C 9.507812 -11.894531 10.71875 -13.207031 11.28125 -13.9375 C 11.851562 -14.675781 12.265625 -15.359375 12.515625 -15.984375 C 12.765625 -16.609375 12.890625 -17.253906 12.890625 -17.921875 C 12.890625 -18.929688 12.613281 -19.675781 12.0625 -20.15625 C 11.507812 -20.644531 10.773438 -20.890625 9.859375 -20.890625 C 8.890625 -20.890625 7.953125 -20.664062 7.046875 -20.21875 C 6.140625 -19.78125 5.191406 -19.15625 4.203125 -18.34375 L 1.328125 -21.734375 C 2.554688 -22.773438 3.570312 -23.507812 4.375 -23.9375 C 5.1875 -24.375 6.070312 -24.707031 7.03125 -24.9375 C 7.988281 -25.175781 9.054688 -25.296875 10.234375 -25.296875 C 11.796875 -25.296875 13.171875 -25.007812 14.359375 -24.4375 C 15.554688 -23.875 16.484375 -23.078125 17.140625 -22.046875 C 17.804688 -21.023438 18.140625 -19.859375 18.140625 -18.546875 C 18.140625 -17.398438 17.9375 -16.320312 17.53125 -15.3125 C 17.125 -14.300781 16.492188 -13.265625 15.640625 -12.203125 C 14.796875 -11.148438 13.304688 -9.644531 11.171875 -7.6875 L 7.96875 -4.671875 L 7.96875 -4.4375 L 18.828125 -4.4375 Z M 18.828125 0 "/></g></g></g><path stroke-linecap="butt" transform="matrix(3.01271, 0, 0, 3.096774, 40.098118, 117.619927)" fill="none" stroke-linejoin="miter" d="M -0.000153377 0.000376602 L 24.898269 0.000376602 " stroke="#4b4c4d" stroke-width="1" stroke-opacity="1" stroke-miterlimit="4"/><path stroke-linecap="butt" transform="matrix(3.01271, 0, 0, 3.096774, 185.034542, 118.311334)" fill="none" stroke-linejoin="miter" d="M 0.000203923 0.000376563 L 24.898627 0.000376563 " stroke="#4b4c4d" stroke-width="1" stroke-opacity="1" stroke-miterlimit="4"/><path stroke-linecap="butt" transform="matrix(2.993318, 0, 0, 3, 157.36183, 117.571647)" fill="none" stroke-linejoin="miter" d="M 0.000484749 -0.000444734 L 5.264814 -0.000444734 " stroke="#4b4c4d" stroke-width="1" stroke-opacity="1" stroke-miterlimit="4"/></svg>