<svg xmlns="http://www.w3.org/2000/svg" xmlns:xlink="http://www.w3.org/1999/xlink" width="400" zoomAndPan="magnify" viewBox="0 0 300 225" height="300" preserveAspectRatio="xMidYMid meet" version="1.0"><defs><g/><clipPath id="id1"><path d="M 42 46 L 62 46 L 62 175.996094 L 42 175.996094 Z M 42 46 " clip-rule="nonzero"/></clipPath><clipPath id="id2"><path d="M 238 46 L 258 46 L 258 175.996094 L 238 175.996094 Z M 238 46 " clip-rule="nonzero"/></clipPath><clipPath id="id3"><path d="M 163.199219 69.128906 L 220 69.128906 L 220 107.378906 L 163.199219 107.378906 Z M 163.199219 69.128906 " clip-rule="nonzero"/></clipPath></defs><g clip-path="url(#id1)"><path fill="#4b4c4d" d="M 59.753906 175.761719 C 59.023438 175.761719 58.320312 175.363281 57.960938 174.667969 C 37.304688 134.734375 37.304688 87.054688 57.960938 47.121094 C 58.472656 46.128906 59.691406 45.742188 60.679688 46.253906 C 61.667969 46.769531 62.054688 47.984375 61.542969 48.976562 C 41.488281 87.746094 41.488281 134.042969 61.542969 172.8125 C 62.054688 173.800781 61.667969 175.019531 60.679688 175.535156 C 60.382812 175.6875 60.066406 175.761719 59.753906 175.761719 " fill-opacity="1" fill-rule="nonzero"/></g><path stroke-linecap="butt" transform="matrix(3.006809, 0, 0, 3.023622, 69.617831, 115.535631)" fill="none" stroke-linejoin="miter" d="M -0.00021418 -0.000156943 L 17.213323 -0.000156943 " stroke="#4b4c4d" stroke-width="1" stroke-opacity="1" stroke-miterlimit="4"/><g fill="#4b4c4d" fill-opacity="1"><g transform="translate(85.495013, 106.713568)"><g><path d="M 14.390625 0 L 9.140625 0 L 9.140625 -14.390625 L 9.1875 -16.765625 L 9.265625 -19.34375 C 8.398438 -18.46875 7.796875 -17.894531 7.453125 -17.625 L 4.59375 -15.328125 L 2.0625 -18.5 L 10.078125 -24.875 L 14.390625 -24.875 Z M 14.390625 0 "/></g></g></g><g fill="#4b4c4d" fill-opacity="1"><g transform="translate(85.495013, 150.69263)"><g><path d="M 18.78125 0 L 1.390625 0 L 1.390625 -3.65625 L 7.640625 -9.96875 C 9.484375 -11.863281 10.6875 -13.175781 11.25 -13.90625 C 11.820312 -14.632812 12.234375 -15.3125 12.484375 -15.9375 C 12.734375 -16.5625 12.859375 -17.207031 12.859375 -17.875 C 12.859375 -18.875 12.582031 -19.617188 12.03125 -20.109375 C 11.488281 -20.597656 10.753906 -20.84375 9.828125 -20.84375 C 8.867188 -20.84375 7.9375 -20.617188 7.03125 -20.171875 C 6.125 -19.734375 5.175781 -19.109375 4.1875 -18.296875 L 1.328125 -21.671875 C 2.554688 -22.710938 3.570312 -23.445312 4.375 -23.875 C 5.175781 -24.3125 6.050781 -24.644531 7 -24.875 C 7.957031 -25.113281 9.023438 -25.234375 10.203125 -25.234375 C 11.753906 -25.234375 13.125 -24.945312 14.3125 -24.375 C 15.507812 -23.8125 16.4375 -23.019531 17.09375 -22 C 17.75 -20.976562 18.078125 -19.8125 18.078125 -18.5 C 18.078125 -17.351562 17.875 -16.273438 17.46875 -15.265625 C 17.070312 -14.265625 16.453125 -13.234375 15.609375 -12.171875 C 14.765625 -11.117188 13.273438 -9.617188 11.140625 -7.671875 L 7.953125 -4.65625 L 7.953125 -4.421875 L 18.78125 -4.421875 Z M 18.78125 0 "/></g></g></g><g clip-path="url(#id2)"><path fill="#4b4c4d" d="M 240.238281 175.761719 C 240.96875 175.761719 241.671875 175.363281 242.03125 174.667969 C 262.6875 134.734375 262.6875 87.054688 242.03125 47.121094 C 241.519531 46.128906 240.300781 45.742188 239.3125 46.253906 C 238.324219 46.769531 237.9375 47.984375 238.449219 48.976562 C 258.503906 87.746094 258.503906 134.042969 238.449219 172.8125 C 237.9375 173.800781 238.324219 175.019531 239.3125 175.535156 C 239.609375 175.6875 239.925781 175.761719 240.238281 175.761719 " fill-opacity="1" fill-rule="nonzero"/></g><g fill="#4b4c4d" fill-opacity="1"><g transform="translate(136.847658, 123.843314)"><g><path d="M 7.828125 -3.671875 C 7.234375 -1.367188 6.234375 1.351562 4.828125 4.5 L 1.078125 4.5 C 1.816406 1.476562 2.390625 -1.375 2.796875 -4.0625 L 7.578125 -4.0625 Z M 7.828125 -3.671875 "/></g></g></g><g clip-path="url(#id3)"><path fill="#4b4c4d" d="M 190.175781 69.128906 C 189.722656 69.128906 189.320312 69.265625 188.957031 69.53125 C 188.597656 69.800781 188.351562 70.148438 188.226562 70.574219 L 179.894531 98.640625 L 175.847656 86.613281 C 175.707031 86.199219 175.460938 85.867188 175.105469 85.613281 C 174.75 85.363281 174.355469 85.234375 173.917969 85.234375 L 165.789062 85.234375 C 165.519531 85.234375 165.257812 85.285156 165.007812 85.390625 C 164.761719 85.492188 164.539062 85.636719 164.351562 85.824219 C 164.160156 86.015625 164.011719 86.230469 163.910156 86.476562 C 163.804688 86.726562 163.753906 86.980469 163.753906 87.25 C 163.753906 87.515625 163.804688 87.773438 163.910156 88.019531 C 164.011719 88.265625 164.160156 88.484375 164.351562 88.671875 C 164.539062 88.859375 164.761719 89.007812 165.007812 89.109375 C 165.257812 89.210938 165.519531 89.261719 165.789062 89.261719 L 172.453125 89.261719 L 178.085938 106.003906 C 178.222656 106.414062 178.46875 106.746094 178.824219 107 C 179.179688 107.253906 179.574219 107.378906 180.011719 107.378906 L 180.050781 107.378906 C 180.492188 107.371094 180.890625 107.234375 181.246094 106.96875 C 181.597656 106.703125 181.835938 106.355469 181.960938 105.933594 L 191.695312 73.15625 L 217.609375 73.15625 C 217.878906 73.15625 218.140625 73.105469 218.386719 73.003906 C 218.636719 72.902344 218.855469 72.753906 219.046875 72.566406 C 219.238281 72.378906 219.386719 72.160156 219.488281 71.914062 C 219.589844 71.667969 219.644531 71.410156 219.644531 71.144531 C 219.644531 70.875 219.589844 70.621094 219.488281 70.375 C 219.386719 70.125 219.238281 69.910156 219.046875 69.71875 C 218.855469 69.53125 218.636719 69.386719 218.386719 69.285156 C 218.140625 69.179688 217.878906 69.128906 217.609375 69.128906 Z M 190.175781 69.128906 " fill-opacity="1" fill-rule="nonzero"/></g><path stroke-linecap="butt" transform="matrix(3.01271, 0, 0, 3.096774, 163.199129, 116.268989)" fill="none" stroke-linejoin="miter" d="M 0.0000297241 0.000175051 L 24.898452 0.000175051 " stroke="#4b4c4d" stroke-width="1" stroke-opacity="1" stroke-miterlimit="4"/><g fill="#4b4c4d" fill-opacity="1"><g transform="translate(194.516608, 106.963599)"><g><path d="M 17.859375 -19.359375 C 17.859375 -17.796875 17.382812 -16.46875 16.4375 -15.375 C 15.488281 -14.289062 14.164062 -13.539062 12.46875 -13.125 L 12.46875 -13.03125 C 14.476562 -12.78125 16 -12.164062 17.03125 -11.1875 C 18.070312 -10.21875 18.59375 -8.910156 18.59375 -7.265625 C 18.59375 -4.867188 17.722656 -3 15.984375 -1.65625 C 14.242188 -0.320312 11.757812 0.34375 8.53125 0.34375 C 5.820312 0.34375 3.421875 -0.101562 1.328125 -1 L 1.328125 -5.484375 C 2.296875 -4.992188 3.359375 -4.597656 4.515625 -4.296875 C 5.679688 -3.992188 6.832031 -3.84375 7.96875 -3.84375 C 9.707031 -3.84375 10.988281 -4.132812 11.8125 -4.71875 C 12.644531 -5.3125 13.0625 -6.265625 13.0625 -7.578125 C 13.0625 -8.742188 12.582031 -9.570312 11.625 -10.0625 C 10.675781 -10.550781 9.15625 -10.796875 7.0625 -10.796875 L 5.171875 -10.796875 L 5.171875 -14.828125 L 7.09375 -14.828125 C 9.03125 -14.828125 10.441406 -15.082031 11.328125 -15.59375 C 12.222656 -16.101562 12.671875 -16.96875 12.671875 -18.1875 C 12.671875 -20.082031 11.488281 -21.03125 9.125 -21.03125 C 8.300781 -21.03125 7.46875 -20.890625 6.625 -20.609375 C 5.78125 -20.335938 4.835938 -19.867188 3.796875 -19.203125 L 1.359375 -22.828125 C 3.640625 -24.460938 6.351562 -25.28125 9.5 -25.28125 C 12.082031 -25.28125 14.117188 -24.757812 15.609375 -23.71875 C 17.109375 -22.675781 17.859375 -21.222656 17.859375 -19.359375 Z M 17.859375 -19.359375 "/></g></g></g><g fill="#4b4c4d" fill-opacity="1"><g transform="translate(190.576617, 151.63852)"><g><path d="M 18.828125 0 L 1.390625 0 L 1.390625 -3.671875 L 7.65625 -10 C 9.507812 -11.894531 10.71875 -13.207031 11.28125 -13.9375 C 11.851562 -14.675781 12.265625 -15.359375 12.515625 -15.984375 C 12.765625 -16.609375 12.890625 -17.253906 12.890625 -17.921875 C 12.890625 -18.921875 12.613281 -19.664062 12.0625 -20.15625 C 11.507812 -20.644531 10.773438 -20.890625 9.859375 -20.890625 C 8.890625 -20.890625 7.945312 -20.664062 7.03125 -20.21875 C 6.125 -19.78125 5.175781 -19.148438 4.1875 -18.328125 L 1.328125 -21.71875 C 2.554688 -22.769531 3.570312 -23.507812 4.375 -23.9375 C 5.1875 -24.375 6.066406 -24.707031 7.015625 -24.9375 C 7.972656 -25.164062 9.046875 -25.28125 10.234375 -25.28125 C 11.785156 -25.28125 13.15625 -24.992188 14.34375 -24.421875 C 15.539062 -23.859375 16.46875 -23.066406 17.125 -22.046875 C 17.789062 -21.023438 18.125 -19.851562 18.125 -18.53125 C 18.125 -17.382812 17.921875 -16.304688 17.515625 -15.296875 C 17.117188 -14.296875 16.492188 -13.265625 15.640625 -12.203125 C 14.796875 -11.148438 13.304688 -9.644531 11.171875 -7.6875 L 7.96875 -4.671875 L 7.96875 -4.4375 L 18.828125 -4.4375 Z M 18.828125 0 "/></g></g></g></svg>