<svg xmlns="http://www.w3.org/2000/svg" xmlns:xlink="http://www.w3.org/1999/xlink" width="400" zoomAndPan="magnify" viewBox="0 0 300 225" height="300" preserveAspectRatio="xMidYMid meet" version="1.0"><defs><g/><clipPath id="id1"><path d="M 32 46.085938 L 51.652344 46.085938 L 51.652344 176.585938 L 32 176.585938 Z M 32 46.085938 " clip-rule="nonzero"/></clipPath><clipPath id="id2"><path d="M 247 46.085938 L 267 46.085938 L 267 176.585938 L 247 176.585938 Z M 247 46.085938 " clip-rule="nonzero"/></clipPath><clipPath id="id3"><path d="M 172.199219 69.367188 L 229 69.367188 L 229 107.617188 L 172.199219 107.617188 Z M 172.199219 69.367188 " clip-rule="nonzero"/></clipPath></defs><g clip-path="url(#id1)"><path fill="#4b4c4d" d="M 49.34375 176.351562 C 48.613281 176.351562 47.910156 175.953125 47.550781 175.261719 C 26.894531 135.324219 26.894531 87.644531 47.550781 47.710938 C 48.0625 46.71875 49.277344 46.332031 50.269531 46.84375 C 51.257812 47.359375 51.644531 48.578125 51.128906 49.566406 C 31.078125 88.339844 31.078125 134.632812 51.128906 173.402344 C 51.644531 174.390625 51.257812 175.609375 50.269531 176.125 C 49.972656 176.277344 49.65625 176.351562 49.34375 176.351562 " fill-opacity="1" fill-rule="nonzero"/></g><path stroke-linecap="butt" transform="matrix(3.006809, 0, 0, 3.023622, 78.617831, 116.125553)" fill="none" stroke-linejoin="miter" d="M -0.000214056 -0.000182947 L 17.213323 -0.000182947 " stroke="#4b4c4d" stroke-width="1" stroke-opacity="1" stroke-miterlimit="4"/><g fill="#4b4c4d" fill-opacity="1"><g transform="translate(94.495013, 107.043803)"><g><path d="M 14.390625 0 L 9.140625 0 L 9.140625 -14.390625 L 9.1875 -16.765625 L 9.265625 -19.34375 C 8.398438 -18.46875 7.796875 -17.894531 7.453125 -17.625 L 4.59375 -15.328125 L 2.0625 -18.5 L 10.078125 -24.875 L 14.390625 -24.875 Z M 14.390625 0 "/></g></g></g><g fill="#4b4c4d" fill-opacity="1"><g transform="translate(94.495013, 151.282785)"><g><path d="M 18.78125 0 L 1.390625 0 L 1.390625 -3.65625 L 7.640625 -9.96875 C 9.484375 -11.863281 10.6875 -13.175781 11.25 -13.90625 C 11.820312 -14.632812 12.234375 -15.3125 12.484375 -15.9375 C 12.734375 -16.5625 12.859375 -17.207031 12.859375 -17.875 C 12.859375 -18.875 12.582031 -19.617188 12.03125 -20.109375 C 11.488281 -20.597656 10.753906 -20.84375 9.828125 -20.84375 C 8.867188 -20.84375 7.9375 -20.617188 7.03125 -20.171875 C 6.125 -19.734375 5.175781 -19.109375 4.1875 -18.296875 L 1.328125 -21.671875 C 2.554688 -22.710938 3.570312 -23.445312 4.375 -23.875 C 5.175781 -24.3125 6.050781 -24.644531 7 -24.875 C 7.957031 -25.113281 9.023438 -25.234375 10.203125 -25.234375 C 11.753906 -25.234375 13.125 -24.945312 14.3125 -24.375 C 15.507812 -23.8125 16.4375 -23.019531 17.09375 -22 C 17.75 -20.976562 18.078125 -19.8125 18.078125 -18.5 C 18.078125 -17.351562 17.875 -16.273438 17.46875 -15.265625 C 17.070312 -14.265625 16.453125 -13.234375 15.609375 -12.171875 C 14.765625 -11.117188 13.273438 -9.617188 11.140625 -7.671875 L 7.953125 -4.65625 L 7.953125 -4.421875 L 18.78125 -4.421875 Z M 18.78125 0 "/></g></g></g><g clip-path="url(#id2)"><path fill="#4b4c4d" d="M 249.238281 176.351562 C 249.96875 176.351562 250.671875 175.953125 251.03125 175.261719 C 271.6875 135.324219 271.6875 87.644531 251.03125 47.710938 C 250.519531 46.71875 249.300781 46.332031 248.3125 46.84375 C 247.324219 47.359375 246.9375 48.578125 247.449219 49.566406 C 267.503906 88.339844 267.503906 134.632812 247.449219 173.402344 C 246.9375 174.390625 247.324219 175.609375 248.3125 176.125 C 248.609375 176.277344 248.925781 176.351562 249.238281 176.351562 " fill-opacity="1" fill-rule="nonzero"/></g><g fill="#4b4c4d" fill-opacity="1"><g transform="translate(145.847658, 124.433472)"><g><path d="M 7.828125 -3.671875 C 7.234375 -1.367188 6.234375 1.351562 4.828125 4.5 L 1.078125 4.5 C 1.816406 1.476562 2.390625 -1.375 2.796875 -4.0625 L 7.578125 -4.0625 Z M 7.828125 -3.671875 "/></g></g></g><g clip-path="url(#id3)"><path fill="#4b4c4d" d="M 199.175781 69.367188 C 198.722656 69.367188 198.320312 69.5 197.957031 69.769531 C 197.597656 70.035156 197.351562 70.386719 197.226562 70.8125 L 188.894531 98.878906 L 184.847656 86.851562 C 184.707031 86.4375 184.460938 86.105469 184.105469 85.851562 C 183.75 85.597656 183.355469 85.472656 182.917969 85.472656 L 174.789062 85.472656 C 174.519531 85.472656 174.257812 85.523438 174.007812 85.625 C 173.761719 85.726562 173.539062 85.875 173.351562 86.0625 C 173.160156 86.25 173.011719 86.46875 172.910156 86.714844 C 172.804688 86.960938 172.753906 87.21875 172.753906 87.484375 C 172.753906 87.753906 172.804688 88.011719 172.910156 88.257812 C 173.011719 88.503906 173.160156 88.722656 173.351562 88.910156 C 173.539062 89.097656 173.761719 89.242188 174.007812 89.347656 C 174.257812 89.449219 174.519531 89.5 174.789062 89.5 L 181.453125 89.5 L 187.085938 106.242188 C 187.222656 106.652344 187.46875 106.984375 187.824219 107.238281 C 188.179688 107.492188 188.574219 107.617188 189.011719 107.617188 L 189.050781 107.617188 C 189.492188 107.609375 189.890625 107.472656 190.246094 107.207031 C 190.597656 106.9375 190.835938 106.59375 190.960938 106.171875 L 200.695312 73.394531 L 226.609375 73.394531 C 226.878906 73.394531 227.140625 73.34375 227.386719 73.242188 C 227.636719 73.136719 227.855469 72.992188 228.046875 72.804688 C 228.238281 72.617188 228.386719 72.398438 228.488281 72.152344 C 228.589844 71.90625 228.644531 71.648438 228.644531 71.382812 C 228.644531 71.113281 228.589844 70.855469 228.488281 70.609375 C 228.386719 70.363281 228.238281 70.144531 228.046875 69.957031 C 227.855469 69.769531 227.636719 69.625 227.386719 69.519531 C 227.140625 69.417969 226.878906 69.367188 226.609375 69.367188 Z M 199.175781 69.367188 " fill-opacity="1" fill-rule="nonzero"/></g><path stroke-linecap="butt" transform="matrix(3.01271, 0, 0, 3.096774, 172.199129, 116.733286)" fill="none" stroke-linejoin="miter" d="M 0.0000298485 0.000351677 L 24.898452 0.000351677 " stroke="#4b4c4d" stroke-width="1" stroke-opacity="1" stroke-miterlimit="4"/><g fill="#4b4c4d" fill-opacity="1"><g transform="translate(203.516608, 107.201022)"><g><path d="M 17.859375 -19.359375 C 17.859375 -17.796875 17.382812 -16.46875 16.4375 -15.375 C 15.488281 -14.289062 14.164062 -13.539062 12.46875 -13.125 L 12.46875 -13.03125 C 14.476562 -12.78125 16 -12.164062 17.03125 -11.1875 C 18.070312 -10.21875 18.59375 -8.910156 18.59375 -7.265625 C 18.59375 -4.867188 17.722656 -3 15.984375 -1.65625 C 14.242188 -0.320312 11.757812 0.34375 8.53125 0.34375 C 5.820312 0.34375 3.421875 -0.101562 1.328125 -1 L 1.328125 -5.484375 C 2.296875 -4.992188 3.359375 -4.597656 4.515625 -4.296875 C 5.679688 -3.992188 6.832031 -3.84375 7.96875 -3.84375 C 9.707031 -3.84375 10.988281 -4.132812 11.8125 -4.71875 C 12.644531 -5.3125 13.0625 -6.265625 13.0625 -7.578125 C 13.0625 -8.742188 12.582031 -9.570312 11.625 -10.0625 C 10.675781 -10.550781 9.15625 -10.796875 7.0625 -10.796875 L 5.171875 -10.796875 L 5.171875 -14.828125 L 7.09375 -14.828125 C 9.03125 -14.828125 10.441406 -15.082031 11.328125 -15.59375 C 12.222656 -16.101562 12.671875 -16.96875 12.671875 -18.1875 C 12.671875 -20.082031 11.488281 -21.03125 9.125 -21.03125 C 8.300781 -21.03125 7.46875 -20.890625 6.625 -20.609375 C 5.78125 -20.335938 4.835938 -19.867188 3.796875 -19.203125 L 1.359375 -22.828125 C 3.640625 -24.460938 6.351562 -25.28125 9.5 -25.28125 C 12.082031 -25.28125 14.117188 -24.757812 15.609375 -23.71875 C 17.109375 -22.675781 17.859375 -21.222656 17.859375 -19.359375 Z M 17.859375 -19.359375 "/></g></g></g><g fill="#4b4c4d" fill-opacity="1"><g transform="translate(199.576616, 152.103052)"><g><path d="M 18.828125 0 L 1.390625 0 L 1.390625 -3.671875 L 7.65625 -10 C 9.507812 -11.894531 10.71875 -13.207031 11.28125 -13.9375 C 11.851562 -14.675781 12.265625 -15.359375 12.515625 -15.984375 C 12.765625 -16.609375 12.890625 -17.253906 12.890625 -17.921875 C 12.890625 -18.921875 12.613281 -19.664062 12.0625 -20.15625 C 11.507812 -20.644531 10.773438 -20.890625 9.859375 -20.890625 C 8.890625 -20.890625 7.945312 -20.664062 7.03125 -20.21875 C 6.125 -19.78125 5.175781 -19.148438 4.1875 -18.328125 L 1.328125 -21.71875 C 2.554688 -22.769531 3.570312 -23.507812 4.375 -23.9375 C 5.1875 -24.375 6.066406 -24.707031 7.015625 -24.9375 C 7.972656 -25.164062 9.046875 -25.28125 10.234375 -25.28125 C 11.785156 -25.28125 13.15625 -24.992188 14.34375 -24.421875 C 15.539062 -23.859375 16.46875 -23.066406 17.125 -22.046875 C 17.789062 -21.023438 18.125 -19.851562 18.125 -18.53125 C 18.125 -17.382812 17.921875 -16.304688 17.515625 -15.296875 C 17.117188 -14.296875 16.492188 -13.265625 15.640625 -12.203125 C 14.796875 -11.148438 13.304688 -9.644531 11.171875 -7.6875 L 7.96875 -4.671875 L 7.96875 -4.4375 L 18.828125 -4.4375 Z M 18.828125 0 "/></g></g></g><path stroke-linecap="butt" transform="matrix(2.993318, 0, 0, 3, 51.695107, 116.093208)" fill="none" stroke-linejoin="miter" d="M 0.0000685039 0.000180546 L 5.264397 0.000180546 " stroke="#4b4c4d" stroke-width="1" stroke-opacity="1" stroke-miterlimit="4"/></svg>