<svg xmlns="http://www.w3.org/2000/svg" xmlns:xlink="http://www.w3.org/1999/xlink" width="400" zoomAndPan="magnify" viewBox="0 0 300 225" height="300" preserveAspectRatio="xMidYMid meet" version="1.0"><defs><g/><clipPath id="id1"><path d="M 19 47.257812 L 38.992188 47.257812 L 38.992188 177.757812 L 19 177.757812 Z M 19 47.257812 " clip-rule="nonzero"/></clipPath><clipPath id="id2"><path d="M 261 47.257812 L 281 47.257812 L 281 177.757812 L 261 177.757812 Z M 261 47.257812 " clip-rule="nonzero"/></clipPath><clipPath id="id3"><path d="M 187 70.539062 L 243 70.539062 L 243 108.789062 L 187 108.789062 Z M 187 70.539062 " clip-rule="nonzero"/></clipPath></defs><g clip-path="url(#id1)"><path fill="#4b4c4d" d="M 36.679688 177.523438 C 35.953125 177.523438 35.25 177.125 34.890625 176.433594 C 14.234375 136.5 14.234375 88.816406 34.890625 48.882812 C 35.402344 47.890625 36.617188 47.503906 37.605469 48.019531 C 38.59375 48.53125 38.980469 49.75 38.46875 50.738281 C 18.414062 89.511719 18.414062 135.804688 38.46875 174.574219 C 38.980469 175.566406 38.59375 176.785156 37.605469 177.296875 C 37.3125 177.449219 36.992188 177.523438 36.679688 177.523438 " fill-opacity="1" fill-rule="nonzero"/></g><path stroke-linecap="butt" transform="matrix(3.006809, 0, 0, 3.023622, 65.957246, 117.298599)" fill="none" stroke-linejoin="miter" d="M -0.0000714385 -0.000570082 L 17.213466 -0.000570082 " stroke="#4b4c4d" stroke-width="1" stroke-opacity="1" stroke-miterlimit="4"/><g fill="#4b4c4d" fill-opacity="1"><g transform="translate(81.83443, 108.217084)"><g><path d="M 14.390625 0 L 9.140625 0 L 9.140625 -14.390625 L 9.1875 -16.765625 L 9.265625 -19.34375 C 8.398438 -18.46875 7.796875 -17.894531 7.453125 -17.625 L 4.59375 -15.328125 L 2.0625 -18.5 L 10.078125 -24.875 L 14.390625 -24.875 Z M 14.390625 0 "/></g></g></g><g fill="#4b4c4d" fill-opacity="1"><g transform="translate(81.83443, 152.456066)"><g><path d="M 18.78125 0 L 1.390625 0 L 1.390625 -3.65625 L 7.640625 -9.96875 C 9.484375 -11.863281 10.6875 -13.175781 11.25 -13.90625 C 11.820312 -14.632812 12.234375 -15.3125 12.484375 -15.9375 C 12.734375 -16.5625 12.859375 -17.207031 12.859375 -17.875 C 12.859375 -18.875 12.582031 -19.617188 12.03125 -20.109375 C 11.488281 -20.597656 10.753906 -20.84375 9.828125 -20.84375 C 8.867188 -20.84375 7.9375 -20.617188 7.03125 -20.171875 C 6.125 -19.734375 5.175781 -19.109375 4.1875 -18.296875 L 1.328125 -21.671875 C 2.554688 -22.710938 3.570312 -23.445312 4.375 -23.875 C 5.175781 -24.3125 6.050781 -24.644531 7 -24.875 C 7.957031 -25.113281 9.023438 -25.234375 10.203125 -25.234375 C 11.753906 -25.234375 13.125 -24.945312 14.3125 -24.375 C 15.507812 -23.8125 16.4375 -23.019531 17.09375 -22 C 17.75 -20.976562 18.078125 -19.8125 18.078125 -18.5 C 18.078125 -17.351562 17.875 -16.273438 17.46875 -15.265625 C 17.070312 -14.265625 16.453125 -13.234375 15.609375 -12.171875 C 14.765625 -11.117188 13.273438 -9.617188 11.140625 -7.671875 L 7.953125 -4.65625 L 7.953125 -4.421875 L 18.78125 -4.421875 Z M 18.78125 0 "/></g></g></g><g clip-path="url(#id2)"><path fill="#4b4c4d" d="M 263.3125 177.523438 C 264.039062 177.523438 264.746094 177.125 265.101562 176.433594 C 285.757812 136.5 285.757812 88.816406 265.101562 48.882812 C 264.589844 47.890625 263.375 47.503906 262.386719 48.019531 C 261.398438 48.53125 261.011719 49.75 261.523438 50.738281 C 281.578125 89.511719 281.578125 135.804688 261.523438 174.574219 C 261.011719 175.566406 261.398438 176.785156 262.386719 177.296875 C 262.683594 177.449219 263 177.523438 263.3125 177.523438 " fill-opacity="1" fill-rule="nonzero"/></g><g fill="#4b4c4d" fill-opacity="1"><g transform="translate(133.187073, 125.606753)"><g><path d="M 7.828125 -3.671875 C 7.234375 -1.367188 6.234375 1.351562 4.828125 4.5 L 1.078125 4.5 C 1.816406 1.476562 2.390625 -1.375 2.796875 -4.0625 L 7.578125 -4.0625 Z M 7.828125 -3.671875 "/></g></g></g><g clip-path="url(#id3)"><path fill="#4b4c4d" d="M 213.4375 70.539062 C 212.988281 70.539062 212.582031 70.675781 212.21875 70.941406 C 211.859375 71.210938 211.613281 71.558594 211.488281 71.984375 L 203.15625 100.050781 L 199.109375 88.023438 C 198.972656 87.609375 198.722656 87.277344 198.367188 87.023438 C 198.011719 86.773438 197.617188 86.644531 197.179688 86.644531 L 189.050781 86.644531 C 188.78125 86.644531 188.519531 86.695312 188.273438 86.800781 C 188.023438 86.902344 187.804688 87.046875 187.613281 87.234375 C 187.421875 87.425781 187.273438 87.640625 187.171875 87.886719 C 187.070312 88.136719 187.015625 88.390625 187.015625 88.660156 C 187.015625 88.925781 187.070312 89.183594 187.171875 89.429688 C 187.273438 89.675781 187.421875 89.894531 187.613281 90.082031 C 187.804688 90.269531 188.023438 90.417969 188.273438 90.519531 C 188.519531 90.621094 188.78125 90.671875 189.050781 90.671875 L 195.714844 90.671875 L 201.347656 107.414062 C 201.484375 107.824219 201.730469 108.15625 202.085938 108.410156 C 202.441406 108.664062 202.835938 108.789062 203.277344 108.789062 L 203.3125 108.789062 C 203.757812 108.78125 204.15625 108.644531 204.507812 108.378906 C 204.859375 108.113281 205.097656 107.765625 205.222656 107.34375 L 214.957031 74.566406 L 240.875 74.566406 C 241.140625 74.566406 241.402344 74.515625 241.652344 74.414062 C 241.898438 74.3125 242.121094 74.164062 242.308594 73.976562 C 242.5 73.789062 242.648438 73.570312 242.75 73.324219 C 242.855469 73.078125 242.90625 72.820312 242.90625 72.554688 C 242.90625 72.285156 242.855469 72.03125 242.75 71.785156 C 242.648438 71.535156 242.5 71.320312 242.308594 71.128906 C 242.121094 70.941406 241.898438 70.796875 241.652344 70.695312 C 241.402344 70.589844 241.140625 70.539062 240.875 70.539062 Z M 213.4375 70.539062 " fill-opacity="1" fill-rule="nonzero"/></g><path stroke-linecap="butt" transform="matrix(3.01271, 0, 0, 3.096774, 186.461272, 117.906334)" fill="none" stroke-linejoin="miter" d="M -0.000111106 -0.0000270886 L 24.898312 -0.0000270886 " stroke="#4b4c4d" stroke-width="1" stroke-opacity="1" stroke-miterlimit="4"/><g fill="#4b4c4d" fill-opacity="1"><g transform="translate(217.778751, 108.373834)"><g><path d="M 17.859375 -19.359375 C 17.859375 -17.796875 17.382812 -16.46875 16.4375 -15.375 C 15.488281 -14.289062 14.164062 -13.539062 12.46875 -13.125 L 12.46875 -13.03125 C 14.476562 -12.78125 16 -12.164062 17.03125 -11.1875 C 18.070312 -10.21875 18.59375 -8.910156 18.59375 -7.265625 C 18.59375 -4.867188 17.722656 -3 15.984375 -1.65625 C 14.242188 -0.320312 11.757812 0.34375 8.53125 0.34375 C 5.820312 0.34375 3.421875 -0.101562 1.328125 -1 L 1.328125 -5.484375 C 2.296875 -4.992188 3.359375 -4.597656 4.515625 -4.296875 C 5.679688 -3.992188 6.832031 -3.84375 7.96875 -3.84375 C 9.707031 -3.84375 10.988281 -4.132812 11.8125 -4.71875 C 12.644531 -5.3125 13.0625 -6.265625 13.0625 -7.578125 C 13.0625 -8.742188 12.582031 -9.570312 11.625 -10.0625 C 10.675781 -10.550781 9.15625 -10.796875 7.0625 -10.796875 L 5.171875 -10.796875 L 5.171875 -14.828125 L 7.09375 -14.828125 C 9.03125 -14.828125 10.441406 -15.082031 11.328125 -15.59375 C 12.222656 -16.101562 12.671875 -16.96875 12.671875 -18.1875 C 12.671875 -20.082031 11.488281 -21.03125 9.125 -21.03125 C 8.300781 -21.03125 7.46875 -20.890625 6.625 -20.609375 C 5.78125 -20.335938 4.835938 -19.867188 3.796875 -19.203125 L 1.359375 -22.828125 C 3.640625 -24.460938 6.351562 -25.28125 9.5 -25.28125 C 12.082031 -25.28125 14.117188 -24.757812 15.609375 -23.71875 C 17.109375 -22.675781 17.859375 -21.222656 17.859375 -19.359375 Z M 17.859375 -19.359375 "/></g></g></g><g fill="#4b4c4d" fill-opacity="1"><g transform="translate(213.838745, 153.276097)"><g><path d="M 18.828125 0 L 1.390625 0 L 1.390625 -3.671875 L 7.65625 -10 C 9.507812 -11.894531 10.71875 -13.207031 11.28125 -13.9375 C 11.851562 -14.675781 12.265625 -15.359375 12.515625 -15.984375 C 12.765625 -16.609375 12.890625 -17.253906 12.890625 -17.921875 C 12.890625 -18.921875 12.613281 -19.664062 12.0625 -20.15625 C 11.507812 -20.644531 10.773438 -20.890625 9.859375 -20.890625 C 8.890625 -20.890625 7.945312 -20.664062 7.03125 -20.21875 C 6.125 -19.78125 5.175781 -19.148438 4.1875 -18.328125 L 1.328125 -21.71875 C 2.554688 -22.769531 3.570312 -23.507812 4.375 -23.9375 C 5.1875 -24.375 6.066406 -24.707031 7.015625 -24.9375 C 7.972656 -25.164062 9.046875 -25.28125 10.234375 -25.28125 C 11.785156 -25.28125 13.15625 -24.992188 14.34375 -24.421875 C 15.539062 -23.859375 16.46875 -23.066406 17.125 -22.046875 C 17.789062 -21.023438 18.125 -19.851562 18.125 -18.53125 C 18.125 -17.382812 17.921875 -16.304688 17.515625 -15.296875 C 17.117188 -14.296875 16.492188 -13.265625 15.640625 -12.203125 C 14.796875 -11.148438 13.304688 -9.644531 11.171875 -7.6875 L 7.96875 -4.671875 L 7.96875 -4.4375 L 18.828125 -4.4375 Z M 18.828125 0 "/></g></g></g><path stroke-linecap="butt" transform="matrix(2.993318, 0, 0, 3, 39.034521, 117.266489)" fill="none" stroke-linejoin="miter" d="M 0.000212165 -0.000288038 L 5.264541 -0.000288038 " stroke="#4b4c4d" stroke-width="1" stroke-opacity="1" stroke-miterlimit="4"/><path stroke-linecap="butt" transform="matrix(2.993318, 0, 0, 3, 159.538544, 117.266489)" fill="none" stroke-linejoin="miter" d="M 0.000173302 -0.000288038 L 5.264502 -0.000288038 " stroke="#4b4c4d" stroke-width="1" stroke-opacity="1" stroke-miterlimit="4"/></svg>