<svg xmlns="http://www.w3.org/2000/svg" xmlns:xlink="http://www.w3.org/1999/xlink" width="400" zoomAndPan="magnify" viewBox="0 0 300 225" height="300" preserveAspectRatio="xMidYMid meet" version="1.0"><defs><g/><clipPath id="id1"><path d="M 29 47.257812 L 48.699219 47.257812 L 48.699219 177.757812 L 29 177.757812 Z M 29 47.257812 " clip-rule="nonzero"/></clipPath><clipPath id="id2"><path d="M 251.292969 47.257812 L 271 47.257812 L 271 177.757812 L 251.292969 177.757812 Z M 251.292969 47.257812 " clip-rule="nonzero"/></clipPath><clipPath id="id3"><path d="M 177 70.539062 L 233.753906 70.539062 L 233.753906 108.789062 L 177 108.789062 Z M 177 70.539062 " clip-rule="nonzero"/></clipPath></defs><g clip-path="url(#id1)"><path fill="#4b4c4d" d="M 46.386719 177.523438 C 45.65625 177.523438 44.953125 177.125 44.59375 176.433594 C 23.941406 136.5 23.941406 88.816406 44.59375 48.882812 C 45.109375 47.890625 46.324219 47.503906 47.3125 48.019531 C 48.300781 48.53125 48.6875 49.75 48.175781 50.738281 C 28.121094 89.511719 28.121094 135.804688 48.175781 174.574219 C 48.6875 175.566406 48.300781 176.785156 47.3125 177.296875 C 47.015625 177.449219 46.699219 177.523438 46.386719 177.523438 " fill-opacity="1" fill-rule="nonzero"/></g><path stroke-linecap="butt" transform="matrix(3.006809, 0, 0, 3.023622, 56.251469, 117.298599)" fill="none" stroke-linejoin="miter" d="M -0.00048851 -0.000570082 L 17.213049 -0.000570082 " stroke="#4b4c4d" stroke-width="1" stroke-opacity="1" stroke-miterlimit="4"/><g fill="#4b4c4d" fill-opacity="1"><g transform="translate(72.12865, 108.217084)"><g><path d="M 14.390625 0 L 9.140625 0 L 9.140625 -14.390625 L 9.1875 -16.765625 L 9.265625 -19.34375 C 8.398438 -18.46875 7.796875 -17.894531 7.453125 -17.625 L 4.59375 -15.328125 L 2.0625 -18.5 L 10.078125 -24.875 L 14.390625 -24.875 Z M 14.390625 0 "/></g></g></g><g fill="#4b4c4d" fill-opacity="1"><g transform="translate(72.12865, 152.456066)"><g><path d="M 18.78125 0 L 1.390625 0 L 1.390625 -3.65625 L 7.640625 -9.96875 C 9.484375 -11.863281 10.6875 -13.175781 11.25 -13.90625 C 11.820312 -14.632812 12.234375 -15.3125 12.484375 -15.9375 C 12.734375 -16.5625 12.859375 -17.207031 12.859375 -17.875 C 12.859375 -18.875 12.582031 -19.617188 12.03125 -20.109375 C 11.488281 -20.597656 10.753906 -20.84375 9.828125 -20.84375 C 8.867188 -20.84375 7.9375 -20.617188 7.03125 -20.171875 C 6.125 -19.734375 5.175781 -19.109375 4.1875 -18.296875 L 1.328125 -21.671875 C 2.554688 -22.710938 3.570312 -23.445312 4.375 -23.875 C 5.175781 -24.3125 6.050781 -24.644531 7 -24.875 C 7.957031 -25.113281 9.023438 -25.234375 10.203125 -25.234375 C 11.753906 -25.234375 13.125 -24.945312 14.3125 -24.375 C 15.507812 -23.8125 16.4375 -23.019531 17.09375 -22 C 17.75 -20.976562 18.078125 -19.8125 18.078125 -18.5 C 18.078125 -17.351562 17.875 -16.273438 17.46875 -15.265625 C 17.070312 -14.265625 16.453125 -13.234375 15.609375 -12.171875 C 14.765625 -11.117188 13.273438 -9.617188 11.140625 -7.671875 L 7.953125 -4.65625 L 7.953125 -4.421875 L 18.78125 -4.421875 Z M 18.78125 0 "/></g></g></g><g clip-path="url(#id2)"><path fill="#4b4c4d" d="M 253.605469 177.523438 C 254.335938 177.523438 255.039062 177.125 255.398438 176.433594 C 276.054688 136.5 276.054688 88.816406 255.398438 48.882812 C 254.886719 47.890625 253.667969 47.503906 252.679688 48.019531 C 251.691406 48.53125 251.304688 49.75 251.816406 50.738281 C 271.871094 89.511719 271.871094 135.804688 251.816406 174.574219 C 251.304688 175.566406 251.691406 176.785156 252.679688 177.296875 C 252.976562 177.449219 253.292969 177.523438 253.605469 177.523438 " fill-opacity="1" fill-rule="nonzero"/></g><g fill="#4b4c4d" fill-opacity="1"><g transform="translate(123.481291, 125.606753)"><g><path d="M 7.828125 -3.671875 C 7.234375 -1.367188 6.234375 1.351562 4.828125 4.5 L 1.078125 4.5 C 1.816406 1.476562 2.390625 -1.375 2.796875 -4.0625 L 7.578125 -4.0625 Z M 7.828125 -3.671875 "/></g></g></g><g clip-path="url(#id3)"><path fill="#4b4c4d" d="M 203.730469 70.539062 C 203.28125 70.539062 202.875 70.675781 202.515625 70.941406 C 202.152344 71.210938 201.910156 71.558594 201.78125 71.984375 L 193.449219 100.050781 L 189.402344 88.023438 C 189.265625 87.609375 189.019531 87.277344 188.664062 87.023438 C 188.308594 86.773438 187.910156 86.644531 187.472656 86.644531 L 179.34375 86.644531 C 179.074219 86.644531 178.816406 86.695312 178.566406 86.800781 C 178.316406 86.902344 178.097656 87.046875 177.90625 87.234375 C 177.714844 87.425781 177.570312 87.640625 177.464844 87.886719 C 177.363281 88.136719 177.3125 88.390625 177.3125 88.660156 C 177.3125 88.925781 177.363281 89.183594 177.464844 89.429688 C 177.570312 89.675781 177.714844 89.894531 177.90625 90.082031 C 178.097656 90.269531 178.316406 90.417969 178.566406 90.519531 C 178.816406 90.621094 179.074219 90.671875 179.34375 90.671875 L 186.007812 90.671875 L 191.640625 107.414062 C 191.777344 107.824219 192.027344 108.15625 192.378906 108.410156 C 192.734375 108.664062 193.132812 108.789062 193.570312 108.789062 L 193.605469 108.789062 C 194.050781 108.78125 194.449219 108.644531 194.800781 108.378906 C 195.15625 108.113281 195.394531 107.765625 195.519531 107.34375 L 205.25 74.566406 L 231.167969 74.566406 C 231.4375 74.566406 231.695312 74.515625 231.945312 74.414062 C 232.195312 74.3125 232.414062 74.164062 232.605469 73.976562 C 232.792969 73.789062 232.941406 73.570312 233.042969 73.324219 C 233.148438 73.078125 233.199219 72.820312 233.199219 72.554688 C 233.199219 72.285156 233.148438 72.03125 233.042969 71.785156 C 232.941406 71.535156 232.792969 71.320312 232.605469 71.128906 C 232.414062 70.941406 232.195312 70.796875 231.945312 70.695312 C 231.695312 70.589844 231.4375 70.539062 231.167969 70.539062 Z M 203.730469 70.539062 " fill-opacity="1" fill-rule="nonzero"/></g><path stroke-linecap="butt" transform="matrix(3.01271, 0, 0, 3.096774, 176.755495, 117.906334)" fill="none" stroke-linejoin="miter" d="M -0.000527361 -0.0000270886 L 24.897895 -0.0000270886 " stroke="#4b4c4d" stroke-width="1" stroke-opacity="1" stroke-miterlimit="4"/><g fill="#4b4c4d" fill-opacity="1"><g transform="translate(208.072959, 108.373834)"><g><path d="M 17.859375 -19.359375 C 17.859375 -17.796875 17.382812 -16.46875 16.4375 -15.375 C 15.488281 -14.289062 14.164062 -13.539062 12.46875 -13.125 L 12.46875 -13.03125 C 14.476562 -12.78125 16 -12.164062 17.03125 -11.1875 C 18.070312 -10.21875 18.59375 -8.910156 18.59375 -7.265625 C 18.59375 -4.867188 17.722656 -3 15.984375 -1.65625 C 14.242188 -0.320312 11.757812 0.34375 8.53125 0.34375 C 5.820312 0.34375 3.421875 -0.101562 1.328125 -1 L 1.328125 -5.484375 C 2.296875 -4.992188 3.359375 -4.597656 4.515625 -4.296875 C 5.679688 -3.992188 6.832031 -3.84375 7.96875 -3.84375 C 9.707031 -3.84375 10.988281 -4.132812 11.8125 -4.71875 C 12.644531 -5.3125 13.0625 -6.265625 13.0625 -7.578125 C 13.0625 -8.742188 12.582031 -9.570312 11.625 -10.0625 C 10.675781 -10.550781 9.15625 -10.796875 7.0625 -10.796875 L 5.171875 -10.796875 L 5.171875 -14.828125 L 7.09375 -14.828125 C 9.03125 -14.828125 10.441406 -15.082031 11.328125 -15.59375 C 12.222656 -16.101562 12.671875 -16.96875 12.671875 -18.1875 C 12.671875 -20.082031 11.488281 -21.03125 9.125 -21.03125 C 8.300781 -21.03125 7.46875 -20.890625 6.625 -20.609375 C 5.78125 -20.335938 4.835938 -19.867188 3.796875 -19.203125 L 1.359375 -22.828125 C 3.640625 -24.460938 6.351562 -25.28125 9.5 -25.28125 C 12.082031 -25.28125 14.117188 -24.757812 15.609375 -23.71875 C 17.109375 -22.675781 17.859375 -21.222656 17.859375 -19.359375 Z M 17.859375 -19.359375 "/></g></g></g><g fill="#4b4c4d" fill-opacity="1"><g transform="translate(204.132971, 153.276097)"><g><path d="M 18.828125 0 L 1.390625 0 L 1.390625 -3.671875 L 7.65625 -10 C 9.507812 -11.894531 10.71875 -13.207031 11.28125 -13.9375 C 11.851562 -14.675781 12.265625 -15.359375 12.515625 -15.984375 C 12.765625 -16.609375 12.890625 -17.253906 12.890625 -17.921875 C 12.890625 -18.921875 12.613281 -19.664062 12.0625 -20.15625 C 11.507812 -20.644531 10.773438 -20.890625 9.859375 -20.890625 C 8.890625 -20.890625 7.945312 -20.664062 7.03125 -20.21875 C 6.125 -19.78125 5.175781 -19.148438 4.1875 -18.328125 L 1.328125 -21.71875 C 2.554688 -22.769531 3.570312 -23.507812 4.375 -23.9375 C 5.1875 -24.375 6.066406 -24.707031 7.015625 -24.9375 C 7.972656 -25.164062 9.046875 -25.28125 10.234375 -25.28125 C 11.785156 -25.28125 13.15625 -24.992188 14.34375 -24.421875 C 15.539062 -23.859375 16.46875 -23.066406 17.125 -22.046875 C 17.789062 -21.023438 18.125 -19.851562 18.125 -18.53125 C 18.125 -17.382812 17.921875 -16.304688 17.515625 -15.296875 C 17.117188 -14.296875 16.492188 -13.265625 15.640625 -12.203125 C 14.796875 -11.148438 13.304688 -9.644531 11.171875 -7.6875 L 7.96875 -4.671875 L 7.96875 -4.4375 L 18.828125 -4.4375 Z M 18.828125 0 "/></g></g></g><path stroke-linecap="butt" transform="matrix(2.993318, 0, 0, 3, 149.832767, 117.266489)" fill="none" stroke-linejoin="miter" d="M -0.000245649 -0.000288038 L 5.264083 -0.000288038 " stroke="#4b4c4d" stroke-width="1" stroke-opacity="1" stroke-miterlimit="4"/></svg>