<svg xmlns="http://www.w3.org/2000/svg" xmlns:xlink="http://www.w3.org/1999/xlink" width="400" zoomAndPan="magnify" viewBox="0 0 300 225" height="300" preserveAspectRatio="xMidYMid meet" version="1.0"><defs><g/><clipPath id="id1"><path d="M 40 47.109375 L 59.679688 47.109375 L 59.679688 177.609375 L 40 177.609375 Z M 40 47.109375 " clip-rule="nonzero"/></clipPath><clipPath id="id2"><path d="M 240.3125 47.109375 L 260 47.109375 L 260 177.609375 L 240.3125 177.609375 Z M 240.3125 47.109375 " clip-rule="nonzero"/></clipPath></defs><g clip-path="url(#id1)"><path fill="#4b4c4d" d="M 57.371094 177.378906 C 56.640625 177.378906 55.9375 176.980469 55.578125 176.285156 C 34.921875 136.351562 34.921875 88.667969 55.578125 48.730469 C 56.089844 47.742188 57.308594 47.355469 58.296875 47.867188 C 59.285156 48.378906 59.671875 49.597656 59.160156 50.589844 C 39.105469 89.363281 39.105469 135.65625 59.160156 174.429688 C 59.671875 175.417969 59.285156 176.636719 58.296875 177.152344 C 58 177.304688 57.683594 177.378906 57.371094 177.378906 " fill-opacity="1" fill-rule="nonzero"/></g><g fill="#4b4c4d" fill-opacity="1"><g transform="translate(142.531604, 130.876601)"><g><path d="M 8.0625 -3.78125 C 7.457031 -1.414062 6.425781 1.390625 4.96875 4.640625 L 1.109375 4.640625 C 1.867188 1.523438 2.460938 -1.414062 2.890625 -4.1875 L 7.8125 -4.1875 Z M 8.0625 -3.78125 "/></g></g></g><g fill="#4b4c4d" fill-opacity="1"><g transform="translate(82.912705, 130.876601)"><g><path d="M 19.265625 -12.84375 C 19.265625 -8.363281 18.53125 -5.039062 17.0625 -2.875 C 15.59375 -0.71875 13.328125 0.359375 10.265625 0.359375 C 7.296875 0.359375 5.054688 -0.753906 3.546875 -2.984375 C 2.046875 -5.210938 1.296875 -8.5 1.296875 -12.84375 C 1.296875 -17.382812 2.03125 -20.726562 3.5 -22.875 C 4.96875 -25.03125 7.222656 -26.109375 10.265625 -26.109375 C 13.234375 -26.109375 15.472656 -24.984375 16.984375 -22.734375 C 18.503906 -20.484375 19.265625 -17.1875 19.265625 -12.84375 Z M 6.703125 -12.84375 C 6.703125 -9.695312 6.972656 -7.441406 7.515625 -6.078125 C 8.054688 -4.710938 8.972656 -4.03125 10.265625 -4.03125 C 11.535156 -4.03125 12.453125 -4.71875 13.015625 -6.09375 C 13.578125 -7.476562 13.859375 -9.726562 13.859375 -12.84375 C 13.859375 -16 13.570312 -18.265625 13 -19.640625 C 12.425781 -21.015625 11.515625 -21.703125 10.265625 -21.703125 C 8.984375 -21.703125 8.066406 -21.015625 7.515625 -19.640625 C 6.972656 -18.265625 6.703125 -16 6.703125 -12.84375 Z M 6.703125 -12.84375 "/></g></g></g><g fill="#4b4c4d" fill-opacity="1"><g transform="translate(196.538694, 130.876601)"><g><path d="M 14.875 0 L 9.4375 0 L 9.4375 -14.875 L 9.5 -17.3125 L 9.578125 -19.984375 C 8.679688 -19.085938 8.054688 -18.5 7.703125 -18.21875 L 4.75 -15.84375 L 2.125 -19.109375 L 10.40625 -25.703125 L 14.875 -25.703125 Z M 14.875 0 "/></g></g></g><g clip-path="url(#id2)"><path fill="#4b4c4d" d="M 242.625 177.378906 C 243.355469 177.378906 244.058594 176.980469 244.417969 176.285156 C 265.070312 136.351562 265.070312 88.667969 244.417969 48.730469 C 243.90625 47.742188 242.6875 47.355469 241.699219 47.867188 C 240.710938 48.378906 240.324219 49.597656 240.835938 50.589844 C 260.890625 89.363281 260.890625 135.65625 240.835938 174.429688 C 240.324219 175.417969 240.710938 176.636719 241.699219 177.152344 C 241.996094 177.304688 242.3125 177.378906 242.625 177.378906 " fill-opacity="1" fill-rule="nonzero"/></g><path stroke-linecap="butt" transform="matrix(2.993318, 0, 0, 3, 168.919944, 117.000005)" fill="none" stroke-linejoin="miter" d="M 0.000645049 -0.00000170833 L 5.263669 -0.00000170833 " stroke="#4b4c4d" stroke-width="1" stroke-opacity="1" stroke-miterlimit="4"/></svg>