<svg xmlns="http://www.w3.org/2000/svg" xmlns:xlink="http://www.w3.org/1999/xlink" width="400" zoomAndPan="magnify" viewBox="0 0 300 225" height="300" preserveAspectRatio="xMidYMid meet" version="1.0"><defs><g/><clipPath id="id1"><path d="M 62 70.480469 L 118.847656 70.480469 L 118.847656 108.730469 L 62 108.730469 Z M 62 70.480469 " clip-rule="nonzero"/></clipPath><clipPath id="id2"><path d="M 42 47.109375 L 61.9375 47.109375 L 61.9375 177.609375 L 42 177.609375 Z M 42 47.109375 " clip-rule="nonzero"/></clipPath><clipPath id="id3"><path d="M 238.246094 47.109375 L 258 47.109375 L 258 177.609375 L 238.246094 177.609375 Z M 238.246094 47.109375 " clip-rule="nonzero"/></clipPath></defs><g clip-path="url(#id1)"><path fill="#4b4c4d" d="M 88.824219 70.480469 C 88.371094 70.480469 87.964844 70.617188 87.605469 70.882812 C 87.246094 71.152344 87 71.5 86.875 71.925781 L 78.542969 99.992188 L 74.496094 87.964844 C 74.355469 87.550781 74.109375 87.21875 73.753906 86.964844 C 73.398438 86.710938 73.003906 86.585938 72.5625 86.585938 L 64.433594 86.585938 C 64.164062 86.585938 63.90625 86.636719 63.65625 86.738281 C 63.410156 86.84375 63.1875 86.988281 63 87.175781 C 62.808594 87.363281 62.660156 87.582031 62.558594 87.828125 C 62.453125 88.074219 62.402344 88.332031 62.402344 88.601562 C 62.402344 88.867188 62.453125 89.125 62.558594 89.371094 C 62.660156 89.617188 62.808594 89.835938 63 90.023438 C 63.1875 90.210938 63.410156 90.359375 63.65625 90.460938 C 63.90625 90.5625 64.164062 90.613281 64.433594 90.613281 L 71.097656 90.613281 L 76.734375 107.355469 C 76.871094 107.765625 77.117188 108.097656 77.472656 108.351562 C 77.828125 108.605469 78.222656 108.730469 78.660156 108.730469 L 78.699219 108.730469 C 79.140625 108.722656 79.539062 108.585938 79.894531 108.320312 C 80.246094 108.050781 80.484375 107.707031 80.609375 107.285156 L 90.34375 74.507812 L 116.257812 74.507812 C 116.527344 74.507812 116.789062 74.457031 117.035156 74.355469 C 117.285156 74.253906 117.503906 74.105469 117.695312 73.917969 C 117.886719 73.730469 118.035156 73.511719 118.136719 73.265625 C 118.238281 73.019531 118.292969 72.761719 118.292969 72.496094 C 118.292969 72.226562 118.238281 71.972656 118.136719 71.722656 C 118.035156 71.476562 117.886719 71.261719 117.695312 71.070312 C 117.503906 70.882812 117.285156 70.738281 117.035156 70.632812 C 116.789062 70.53125 116.527344 70.480469 116.257812 70.480469 Z M 88.824219 70.480469 " fill-opacity="1" fill-rule="nonzero"/></g><g clip-path="url(#id2)"><path fill="#4b4c4d" d="M 59.628906 177.378906 C 58.898438 177.378906 58.195312 176.980469 57.835938 176.285156 C 37.179688 136.351562 37.179688 88.667969 57.835938 48.730469 C 58.347656 47.742188 59.5625 47.355469 60.554688 47.867188 C 61.542969 48.378906 61.929688 49.597656 61.417969 50.589844 C 41.363281 89.363281 41.363281 135.65625 61.417969 174.429688 C 61.929688 175.417969 61.542969 176.636719 60.554688 177.152344 C 60.257812 177.304688 59.941406 177.378906 59.628906 177.378906 " fill-opacity="1" fill-rule="nonzero"/></g><path stroke-linecap="butt" transform="matrix(3.01271, 0, 0, 3.096774, 61.846989, 117.62022)" fill="none" stroke-linejoin="miter" d="M 0.000221338 0.000282052 L 24.898644 0.000282052 " stroke="#4b4c4d" stroke-width="1" stroke-opacity="1" stroke-miterlimit="4"/><g fill="#4b4c4d" fill-opacity="1"><g transform="translate(93.164468, 108.314713)"><g><path d="M 17.859375 -19.359375 C 17.859375 -17.796875 17.382812 -16.46875 16.4375 -15.375 C 15.488281 -14.289062 14.164062 -13.539062 12.46875 -13.125 L 12.46875 -13.03125 C 14.476562 -12.78125 16 -12.164062 17.03125 -11.1875 C 18.070312 -10.21875 18.59375 -8.910156 18.59375 -7.265625 C 18.59375 -4.867188 17.722656 -3 15.984375 -1.65625 C 14.242188 -0.320312 11.757812 0.34375 8.53125 0.34375 C 5.820312 0.34375 3.421875 -0.101562 1.328125 -1 L 1.328125 -5.484375 C 2.296875 -4.992188 3.359375 -4.597656 4.515625 -4.296875 C 5.679688 -3.992188 6.832031 -3.84375 7.96875 -3.84375 C 9.707031 -3.84375 10.988281 -4.132812 11.8125 -4.71875 C 12.644531 -5.3125 13.0625 -6.265625 13.0625 -7.578125 C 13.0625 -8.742188 12.582031 -9.570312 11.625 -10.0625 C 10.675781 -10.550781 9.15625 -10.796875 7.0625 -10.796875 L 5.171875 -10.796875 L 5.171875 -14.828125 L 7.09375 -14.828125 C 9.03125 -14.828125 10.441406 -15.082031 11.328125 -15.59375 C 12.222656 -16.101562 12.671875 -16.96875 12.671875 -18.1875 C 12.671875 -20.082031 11.488281 -21.03125 9.125 -21.03125 C 8.300781 -21.03125 7.46875 -20.890625 6.625 -20.609375 C 5.78125 -20.335938 4.835938 -19.867188 3.796875 -19.203125 L 1.359375 -22.828125 C 3.640625 -24.460938 6.351562 -25.28125 9.5 -25.28125 C 12.082031 -25.28125 14.117188 -24.757812 15.609375 -23.71875 C 17.109375 -22.675781 17.859375 -21.222656 17.859375 -19.359375 Z M 17.859375 -19.359375 "/></g></g></g><g fill="#4b4c4d" fill-opacity="1"><g transform="translate(89.224479, 152.989633)"><g><path d="M 18.828125 0 L 1.390625 0 L 1.390625 -3.671875 L 7.65625 -10 C 9.507812 -11.894531 10.71875 -13.207031 11.28125 -13.9375 C 11.851562 -14.675781 12.265625 -15.359375 12.515625 -15.984375 C 12.765625 -16.609375 12.890625 -17.253906 12.890625 -17.921875 C 12.890625 -18.921875 12.613281 -19.664062 12.0625 -20.15625 C 11.507812 -20.644531 10.773438 -20.890625 9.859375 -20.890625 C 8.890625 -20.890625 7.945312 -20.664062 7.03125 -20.21875 C 6.125 -19.78125 5.175781 -19.148438 4.1875 -18.328125 L 1.328125 -21.71875 C 2.554688 -22.769531 3.570312 -23.507812 4.375 -23.9375 C 5.1875 -24.375 6.066406 -24.707031 7.015625 -24.9375 C 7.972656 -25.164062 9.046875 -25.28125 10.234375 -25.28125 C 11.785156 -25.28125 13.15625 -24.992188 14.34375 -24.421875 C 15.539062 -23.859375 16.46875 -23.066406 17.125 -22.046875 C 17.789062 -21.023438 18.125 -19.851562 18.125 -18.53125 C 18.125 -17.382812 17.921875 -16.304688 17.515625 -15.296875 C 17.117188 -14.296875 16.492188 -13.265625 15.640625 -12.203125 C 14.796875 -11.148438 13.304688 -9.644531 11.171875 -7.6875 L 7.96875 -4.671875 L 7.96875 -4.4375 L 18.828125 -4.4375 Z M 18.828125 0 "/></g></g></g><g fill="#4b4c4d" fill-opacity="1"><g transform="translate(152.641887, 122.39405)"><g><path d="M 7.828125 -3.671875 C 7.234375 -1.367188 6.234375 1.351562 4.828125 4.5 L 1.078125 4.5 C 1.816406 1.476562 2.390625 -1.375 2.796875 -4.0625 L 7.578125 -4.0625 Z M 7.828125 -3.671875 "/></g></g></g><g fill="#4b4c4d" fill-opacity="1"><g transform="translate(194.780311, 108.073738)"><g><path d="M 14.421875 0 L 9.15625 0 L 9.15625 -14.421875 L 9.203125 -16.796875 L 9.296875 -19.390625 C 8.421875 -18.515625 7.8125 -17.941406 7.46875 -17.671875 L 4.609375 -15.359375 L 2.0625 -18.53125 L 10.09375 -24.921875 L 14.421875 -24.921875 Z M 14.421875 0 "/></g></g></g><g fill="#4b4c4d" fill-opacity="1"><g transform="translate(194.780311, 153.180025)"><g><path d="M 18.828125 0 L 1.390625 0 L 1.390625 -3.671875 L 7.65625 -10 C 9.507812 -11.894531 10.71875 -13.207031 11.28125 -13.9375 C 11.851562 -14.675781 12.265625 -15.359375 12.515625 -15.984375 C 12.765625 -16.609375 12.890625 -17.253906 12.890625 -17.921875 C 12.890625 -18.921875 12.613281 -19.664062 12.0625 -20.15625 C 11.507812 -20.644531 10.773438 -20.890625 9.859375 -20.890625 C 8.890625 -20.890625 7.945312 -20.664062 7.03125 -20.21875 C 6.125 -19.78125 5.175781 -19.148438 4.1875 -18.328125 L 1.328125 -21.71875 C 2.554688 -22.769531 3.570312 -23.507812 4.375 -23.9375 C 5.1875 -24.375 6.066406 -24.707031 7.015625 -24.9375 C 7.972656 -25.164062 9.046875 -25.28125 10.234375 -25.28125 C 11.785156 -25.28125 13.15625 -24.992188 14.34375 -24.421875 C 15.539062 -23.859375 16.46875 -23.066406 17.125 -22.046875 C 17.789062 -21.023438 18.125 -19.851562 18.125 -18.53125 C 18.125 -17.382812 17.921875 -16.304688 17.515625 -15.296875 C 17.117188 -14.296875 16.492188 -13.265625 15.640625 -12.203125 C 14.796875 -11.148438 13.304688 -9.644531 11.171875 -7.6875 L 7.96875 -4.671875 L 7.96875 -4.4375 L 18.828125 -4.4375 Z M 18.828125 0 "/></g></g></g><g clip-path="url(#id3)"><path fill="#4b4c4d" d="M 240.558594 177.378906 C 241.285156 177.378906 241.992188 176.980469 242.347656 176.285156 C 263.003906 136.351562 263.003906 88.667969 242.347656 48.730469 C 241.835938 47.742188 240.621094 47.355469 239.632812 47.867188 C 238.644531 48.378906 238.257812 49.597656 238.769531 50.589844 C 258.824219 89.363281 258.824219 135.65625 238.769531 174.429688 C 238.257812 175.417969 238.644531 176.636719 239.632812 177.152344 C 239.929688 177.304688 240.246094 177.378906 240.558594 177.378906 " fill-opacity="1" fill-rule="nonzero"/></g><path stroke-linecap="butt" transform="matrix(3, 0, 0, 3.023622, 178.867025, 117.583656)" fill="none" stroke-linejoin="miter" d="M 0.0000543176 -0.000537452 L 17.252659 -0.000537452 " stroke="#4b4c4d" stroke-width="1" stroke-opacity="1" stroke-miterlimit="4"/></svg>