<svg xmlns="http://www.w3.org/2000/svg" xmlns:xlink="http://www.w3.org/1999/xlink" width="400" zoomAndPan="magnify" viewBox="0 0 300 225" height="300" preserveAspectRatio="xMidYMid meet" version="1.0"><defs><g/><clipPath id="id1"><path d="M 75.308594 65.410156 L 132 65.410156 L 132 103.660156 L 75.308594 103.660156 Z M 75.308594 65.410156 " clip-rule="nonzero"/></clipPath><clipPath id="id2"><path d="M 28 47.109375 L 48 47.109375 L 48 177.609375 L 28 177.609375 Z M 28 47.109375 " clip-rule="nonzero"/></clipPath><clipPath id="id3"><path d="M 252 47.109375 L 272 47.109375 L 272 177.609375 L 252 177.609375 Z M 252 47.109375 " clip-rule="nonzero"/></clipPath></defs><g clip-path="url(#id1)"><path fill="#4b4c4d" d="M 102.285156 65.410156 C 101.832031 65.410156 101.425781 65.542969 101.066406 65.8125 C 100.707031 66.078125 100.460938 66.425781 100.335938 66.855469 L 92.003906 94.921875 L 87.957031 82.890625 C 87.816406 82.480469 87.570312 82.148438 87.214844 81.894531 C 86.859375 81.640625 86.464844 81.515625 86.027344 81.515625 L 77.898438 81.515625 C 77.628906 81.515625 77.367188 81.566406 77.117188 81.667969 C 76.871094 81.769531 76.648438 81.914062 76.460938 82.105469 C 76.269531 82.292969 76.121094 82.511719 76.019531 82.757812 C 75.914062 83.003906 75.863281 83.261719 75.863281 83.527344 C 75.863281 83.796875 75.914062 84.050781 76.019531 84.296875 C 76.121094 84.546875 76.269531 84.761719 76.460938 84.953125 C 76.648438 85.140625 76.871094 85.285156 77.117188 85.386719 C 77.367188 85.488281 77.628906 85.542969 77.898438 85.542969 L 84.558594 85.542969 L 90.195312 102.28125 C 90.332031 102.695312 90.578125 103.027344 90.933594 103.28125 C 91.289062 103.53125 91.683594 103.660156 92.121094 103.660156 L 92.160156 103.660156 C 92.601562 103.652344 93 103.515625 93.355469 103.246094 C 93.707031 102.980469 93.945312 102.636719 94.070312 102.214844 L 103.804688 69.4375 L 129.71875 69.4375 C 129.988281 69.4375 130.25 69.386719 130.496094 69.28125 C 130.746094 69.179688 130.964844 69.035156 131.15625 68.847656 C 131.347656 68.65625 131.496094 68.441406 131.597656 68.191406 C 131.699219 67.945312 131.753906 67.691406 131.753906 67.421875 C 131.753906 67.15625 131.699219 66.898438 131.597656 66.652344 C 131.496094 66.40625 131.347656 66.1875 131.15625 66 C 130.964844 65.8125 130.746094 65.664062 130.496094 65.5625 C 130.25 65.460938 129.988281 65.410156 129.71875 65.410156 Z M 102.285156 65.410156 " fill-opacity="1" fill-rule="nonzero"/></g><g clip-path="url(#id2)"><path fill="#4b4c4d" d="M 45.976562 177.378906 C 45.246094 177.378906 44.542969 176.980469 44.183594 176.285156 C 23.527344 136.351562 23.527344 88.667969 44.183594 48.730469 C 44.695312 47.742188 45.914062 47.355469 46.902344 47.867188 C 47.890625 48.378906 48.277344 49.597656 47.765625 50.589844 C 27.710938 89.363281 27.710938 135.65625 47.765625 174.429688 C 48.277344 175.417969 47.890625 176.636719 46.902344 177.152344 C 46.605469 177.304688 46.289062 177.378906 45.976562 177.378906 " fill-opacity="1" fill-rule="nonzero"/></g><path stroke-linecap="butt" transform="matrix(3.01271, 0, 0, 3.096774, 75.308354, 112.637583)" fill="none" stroke-linejoin="miter" d="M 0.0000796917 -0.000279051 L 24.898502 -0.000279051 " stroke="#4b4c4d" stroke-width="1" stroke-opacity="1" stroke-miterlimit="4"/><g fill="#4b4c4d" fill-opacity="1"><g transform="translate(106.625832, 103.242896)"><g><path d="M 17.859375 -19.359375 C 17.859375 -17.796875 17.382812 -16.46875 16.4375 -15.375 C 15.488281 -14.289062 14.164062 -13.539062 12.46875 -13.125 L 12.46875 -13.03125 C 14.476562 -12.78125 16 -12.164062 17.03125 -11.1875 C 18.070312 -10.21875 18.59375 -8.910156 18.59375 -7.265625 C 18.59375 -4.867188 17.722656 -3 15.984375 -1.65625 C 14.242188 -0.320312 11.757812 0.34375 8.53125 0.34375 C 5.820312 0.34375 3.421875 -0.101562 1.328125 -1 L 1.328125 -5.484375 C 2.296875 -4.992188 3.359375 -4.597656 4.515625 -4.296875 C 5.679688 -3.992188 6.832031 -3.84375 7.96875 -3.84375 C 9.707031 -3.84375 10.988281 -4.132812 11.8125 -4.71875 C 12.644531 -5.3125 13.0625 -6.265625 13.0625 -7.578125 C 13.0625 -8.742188 12.582031 -9.570312 11.625 -10.0625 C 10.675781 -10.550781 9.15625 -10.796875 7.0625 -10.796875 L 5.171875 -10.796875 L 5.171875 -14.828125 L 7.09375 -14.828125 C 9.03125 -14.828125 10.441406 -15.082031 11.328125 -15.59375 C 12.222656 -16.101562 12.671875 -16.96875 12.671875 -18.1875 C 12.671875 -20.082031 11.488281 -21.03125 9.125 -21.03125 C 8.300781 -21.03125 7.46875 -20.890625 6.625 -20.609375 C 5.78125 -20.335938 4.835938 -19.867188 3.796875 -19.203125 L 1.359375 -22.828125 C 3.640625 -24.460938 6.351562 -25.28125 9.5 -25.28125 C 12.082031 -25.28125 14.117188 -24.757812 15.609375 -23.71875 C 17.109375 -22.675781 17.859375 -21.222656 17.859375 -19.359375 Z M 17.859375 -19.359375 "/></g></g></g><g fill="#4b4c4d" fill-opacity="1"><g transform="translate(102.685844, 148.006996)"><g><path d="M 18.828125 0 L 1.390625 0 L 1.390625 -3.671875 L 7.65625 -10 C 9.507812 -11.894531 10.71875 -13.207031 11.28125 -13.9375 C 11.851562 -14.675781 12.265625 -15.359375 12.515625 -15.984375 C 12.765625 -16.609375 12.890625 -17.253906 12.890625 -17.921875 C 12.890625 -18.921875 12.613281 -19.664062 12.0625 -20.15625 C 11.507812 -20.644531 10.773438 -20.890625 9.859375 -20.890625 C 8.890625 -20.890625 7.945312 -20.664062 7.03125 -20.21875 C 6.125 -19.78125 5.175781 -19.148438 4.1875 -18.328125 L 1.328125 -21.71875 C 2.554688 -22.769531 3.570312 -23.507812 4.375 -23.9375 C 5.1875 -24.375 6.066406 -24.707031 7.015625 -24.9375 C 7.972656 -25.164062 9.046875 -25.28125 10.234375 -25.28125 C 11.785156 -25.28125 13.15625 -24.992188 14.34375 -24.421875 C 15.539062 -23.859375 16.46875 -23.066406 17.125 -22.046875 C 17.789062 -21.023438 18.125 -19.851562 18.125 -18.53125 C 18.125 -17.382812 17.921875 -16.304688 17.515625 -15.296875 C 17.117188 -14.296875 16.492188 -13.265625 15.640625 -12.203125 C 14.796875 -11.148438 13.304688 -9.644531 11.171875 -7.6875 L 7.96875 -4.671875 L 7.96875 -4.4375 L 18.828125 -4.4375 Z M 18.828125 0 "/></g></g></g><g fill="#4b4c4d" fill-opacity="1"><g transform="translate(166.103244, 117.411295)"><g><path d="M 7.828125 -3.671875 C 7.234375 -1.367188 6.234375 1.351562 4.828125 4.5 L 1.078125 4.5 C 1.816406 1.476562 2.390625 -1.375 2.796875 -4.0625 L 7.578125 -4.0625 Z M 7.828125 -3.671875 "/></g></g></g><g fill="#4b4c4d" fill-opacity="1"><g transform="translate(207.944071, 103.522469)"><g><path d="M 14.421875 0 L 9.15625 0 L 9.15625 -14.421875 L 9.203125 -16.796875 L 9.296875 -19.390625 C 8.421875 -18.515625 7.8125 -17.941406 7.46875 -17.671875 L 4.609375 -15.359375 L 2.0625 -18.53125 L 10.09375 -24.921875 L 14.421875 -24.921875 Z M 14.421875 0 "/></g></g></g><g fill="#4b4c4d" fill-opacity="1"><g transform="translate(208.241683, 147.766021)"><g><path d="M 18.828125 0 L 1.390625 0 L 1.390625 -3.671875 L 7.65625 -10 C 9.507812 -11.894531 10.71875 -13.207031 11.28125 -13.9375 C 11.851562 -14.675781 12.265625 -15.359375 12.515625 -15.984375 C 12.765625 -16.609375 12.890625 -17.253906 12.890625 -17.921875 C 12.890625 -18.921875 12.613281 -19.664062 12.0625 -20.15625 C 11.507812 -20.644531 10.773438 -20.890625 9.859375 -20.890625 C 8.890625 -20.890625 7.945312 -20.664062 7.03125 -20.21875 C 6.125 -19.78125 5.175781 -19.148438 4.1875 -18.328125 L 1.328125 -21.71875 C 2.554688 -22.769531 3.570312 -23.507812 4.375 -23.9375 C 5.1875 -24.375 6.066406 -24.707031 7.015625 -24.9375 C 7.972656 -25.164062 9.046875 -25.28125 10.234375 -25.28125 C 11.785156 -25.28125 13.15625 -24.992188 14.34375 -24.421875 C 15.539062 -23.859375 16.46875 -23.066406 17.125 -22.046875 C 17.789062 -21.023438 18.125 -19.851562 18.125 -18.53125 C 18.125 -17.382812 17.921875 -16.304688 17.515625 -15.296875 C 17.117188 -14.296875 16.492188 -13.265625 15.640625 -12.203125 C 14.796875 -11.148438 13.304688 -9.644531 11.171875 -7.6875 L 7.96875 -4.671875 L 7.96875 -4.4375 L 18.828125 -4.4375 Z M 18.828125 0 "/></g></g></g><g clip-path="url(#id3)"><path fill="#4b4c4d" d="M 254.019531 177.378906 C 254.75 177.378906 255.453125 176.980469 255.8125 176.285156 C 276.464844 136.351562 276.464844 88.667969 255.8125 48.730469 C 255.296875 47.742188 254.082031 47.355469 253.09375 47.867188 C 252.105469 48.378906 251.71875 49.597656 252.230469 50.589844 C 272.285156 89.363281 272.285156 135.65625 252.230469 174.429688 C 251.71875 175.417969 252.105469 176.636719 253.09375 177.152344 C 253.390625 177.304688 253.707031 177.378906 254.019531 177.378906 " fill-opacity="1" fill-rule="nonzero"/></g><path stroke-linecap="butt" transform="matrix(3, 0, 0, 3.023622, 192.328396, 112.601021)" fill="none" stroke-linejoin="miter" d="M -0.0000903288 0.000178988 L 17.252515 0.000178988 " stroke="#4b4c4d" stroke-width="1" stroke-opacity="1" stroke-miterlimit="4"/><path stroke-linecap="butt" transform="matrix(2.993318, 0, 0, 3, 48.38563, 112.500005)" fill="none" stroke-linejoin="miter" d="M 0.000363732 -0.00000177083 L 5.264693 -0.00000177083 " stroke="#4b4c4d" stroke-width="1" stroke-opacity="1" stroke-miterlimit="4"/></svg>