<svg xmlns="http://www.w3.org/2000/svg" xmlns:xlink="http://www.w3.org/1999/xlink" width="400" zoomAndPan="magnify" viewBox="0 0 300 225" height="300" preserveAspectRatio="xMidYMid meet" version="1.0"><defs><g/><clipPath id="id1"><path d="M 62 70.480469 L 118.566406 70.480469 L 118.566406 108.730469 L 62 108.730469 Z M 62 70.480469 " clip-rule="nonzero"/></clipPath><clipPath id="id2"><path d="M 15 47.109375 L 34.824219 47.109375 L 34.824219 177.609375 L 15 177.609375 Z M 15 47.109375 " clip-rule="nonzero"/></clipPath><clipPath id="id3"><path d="M 265.453125 47.109375 L 286 47.109375 L 286 177.609375 L 265.453125 177.609375 Z M 265.453125 47.109375 " clip-rule="nonzero"/></clipPath></defs><g clip-path="url(#id1)"><path fill="#4b4c4d" d="M 88.539062 70.480469 C 88.089844 70.480469 87.683594 70.617188 87.324219 70.882812 C 86.960938 71.152344 86.71875 71.5 86.589844 71.925781 L 78.257812 99.992188 L 74.210938 87.964844 C 74.074219 87.550781 73.828125 87.21875 73.472656 86.964844 C 73.117188 86.710938 72.71875 86.585938 72.28125 86.585938 L 64.152344 86.585938 C 63.882812 86.585938 63.625 86.636719 63.375 86.738281 C 63.125 86.84375 62.90625 86.988281 62.714844 87.175781 C 62.523438 87.363281 62.378906 87.582031 62.273438 87.828125 C 62.171875 88.074219 62.121094 88.332031 62.121094 88.601562 C 62.121094 88.867188 62.171875 89.125 62.273438 89.371094 C 62.378906 89.617188 62.523438 89.835938 62.714844 90.023438 C 62.90625 90.210938 63.125 90.359375 63.375 90.460938 C 63.625 90.5625 63.882812 90.613281 64.152344 90.613281 L 70.816406 90.613281 L 76.449219 107.355469 C 76.589844 107.765625 76.835938 108.097656 77.191406 108.351562 C 77.542969 108.605469 77.941406 108.730469 78.378906 108.730469 L 78.414062 108.730469 C 78.859375 108.722656 79.257812 108.585938 79.609375 108.320312 C 79.964844 108.050781 80.203125 107.707031 80.328125 107.285156 L 90.0625 74.507812 L 115.976562 74.507812 C 116.246094 74.507812 116.503906 74.457031 116.753906 74.355469 C 117.003906 74.253906 117.222656 74.105469 117.414062 73.917969 C 117.605469 73.730469 117.75 73.511719 117.855469 73.265625 C 117.957031 73.019531 118.007812 72.761719 118.007812 72.496094 C 118.007812 72.226562 117.957031 71.972656 117.855469 71.722656 C 117.75 71.476562 117.605469 71.261719 117.414062 71.070312 C 117.222656 70.882812 117.003906 70.738281 116.753906 70.632812 C 116.503906 70.53125 116.246094 70.480469 115.976562 70.480469 Z M 88.539062 70.480469 " fill-opacity="1" fill-rule="nonzero"/></g><g clip-path="url(#id2)"><path fill="#4b4c4d" d="M 32.515625 177.378906 C 31.785156 177.378906 31.082031 176.980469 30.722656 176.285156 C 10.066406 136.351562 10.066406 88.667969 30.722656 48.730469 C 31.234375 47.742188 32.453125 47.355469 33.441406 47.867188 C 34.429688 48.378906 34.816406 49.597656 34.304688 50.589844 C 14.25 89.363281 14.25 135.65625 34.304688 174.429688 C 34.816406 175.417969 34.429688 176.636719 33.441406 177.152344 C 33.144531 177.304688 32.828125 177.378906 32.515625 177.378906 " fill-opacity="1" fill-rule="nonzero"/></g><path stroke-linecap="butt" transform="matrix(3.01271, 0, 0, 3.096774, 61.56462, 117.62016)" fill="none" stroke-linejoin="miter" d="M 0.00059296 0.000301427 L 24.897719 0.000301427 " stroke="#4b4c4d" stroke-width="1" stroke-opacity="1" stroke-miterlimit="4"/><g fill="#4b4c4d" fill-opacity="1"><g transform="translate(92.882099, 108.314655)"><g><path d="M 17.859375 -19.359375 C 17.859375 -17.796875 17.382812 -16.46875 16.4375 -15.375 C 15.488281 -14.289062 14.164062 -13.539062 12.46875 -13.125 L 12.46875 -13.03125 C 14.476562 -12.78125 16 -12.164062 17.03125 -11.1875 C 18.070312 -10.21875 18.59375 -8.910156 18.59375 -7.265625 C 18.59375 -4.867188 17.722656 -3 15.984375 -1.65625 C 14.242188 -0.320312 11.757812 0.34375 8.53125 0.34375 C 5.820312 0.34375 3.421875 -0.101562 1.328125 -1 L 1.328125 -5.484375 C 2.296875 -4.992188 3.359375 -4.597656 4.515625 -4.296875 C 5.679688 -3.992188 6.832031 -3.84375 7.96875 -3.84375 C 9.707031 -3.84375 10.988281 -4.132812 11.8125 -4.71875 C 12.644531 -5.3125 13.0625 -6.265625 13.0625 -7.578125 C 13.0625 -8.742188 12.582031 -9.570312 11.625 -10.0625 C 10.675781 -10.550781 9.15625 -10.796875 7.0625 -10.796875 L 5.171875 -10.796875 L 5.171875 -14.828125 L 7.09375 -14.828125 C 9.03125 -14.828125 10.441406 -15.082031 11.328125 -15.59375 C 12.222656 -16.101562 12.671875 -16.96875 12.671875 -18.1875 C 12.671875 -20.082031 11.488281 -21.03125 9.125 -21.03125 C 8.300781 -21.03125 7.46875 -20.890625 6.625 -20.609375 C 5.78125 -20.335938 4.835938 -19.867188 3.796875 -19.203125 L 1.359375 -22.828125 C 3.640625 -24.460938 6.351562 -25.28125 9.5 -25.28125 C 12.082031 -25.28125 14.117188 -24.757812 15.609375 -23.71875 C 17.109375 -22.675781 17.859375 -21.222656 17.859375 -19.359375 Z M 17.859375 -19.359375 "/></g></g></g><g fill="#4b4c4d" fill-opacity="1"><g transform="translate(88.9421, 152.989573)"><g><path d="M 18.828125 0 L 1.390625 0 L 1.390625 -3.671875 L 7.65625 -10 C 9.507812 -11.894531 10.71875 -13.207031 11.28125 -13.9375 C 11.851562 -14.675781 12.265625 -15.359375 12.515625 -15.984375 C 12.765625 -16.609375 12.890625 -17.253906 12.890625 -17.921875 C 12.890625 -18.921875 12.613281 -19.664062 12.0625 -20.15625 C 11.507812 -20.644531 10.773438 -20.890625 9.859375 -20.890625 C 8.890625 -20.890625 7.945312 -20.664062 7.03125 -20.21875 C 6.125 -19.78125 5.175781 -19.148438 4.1875 -18.328125 L 1.328125 -21.71875 C 2.554688 -22.769531 3.570312 -23.507812 4.375 -23.9375 C 5.1875 -24.375 6.066406 -24.707031 7.015625 -24.9375 C 7.972656 -25.164062 9.046875 -25.28125 10.234375 -25.28125 C 11.785156 -25.28125 13.15625 -24.992188 14.34375 -24.421875 C 15.539062 -23.859375 16.46875 -23.066406 17.125 -22.046875 C 17.789062 -21.023438 18.125 -19.851562 18.125 -18.53125 C 18.125 -17.382812 17.921875 -16.304688 17.515625 -15.296875 C 17.117188 -14.296875 16.492188 -13.265625 15.640625 -12.203125 C 14.796875 -11.148438 13.304688 -9.644531 11.171875 -7.6875 L 7.96875 -4.671875 L 7.96875 -4.4375 L 18.828125 -4.4375 Z M 18.828125 0 "/></g></g></g><g fill="#4b4c4d" fill-opacity="1"><g transform="translate(152.35951, 122.39399)"><g><path d="M 7.828125 -3.671875 C 7.234375 -1.367188 6.234375 1.351562 4.828125 4.5 L 1.078125 4.5 C 1.816406 1.476562 2.390625 -1.375 2.796875 -4.0625 L 7.578125 -4.0625 Z M 7.828125 -3.671875 "/></g></g></g><g fill="#4b4c4d" fill-opacity="1"><g transform="translate(221.985419, 108.505047)"><g><path d="M 14.421875 0 L 9.15625 0 L 9.15625 -14.421875 L 9.203125 -16.796875 L 9.296875 -19.390625 C 8.421875 -18.515625 7.8125 -17.941406 7.46875 -17.671875 L 4.609375 -15.359375 L 2.0625 -18.53125 L 10.09375 -24.921875 L 14.421875 -24.921875 Z M 14.421875 0 "/></g></g></g><g fill="#4b4c4d" fill-opacity="1"><g transform="translate(221.985419, 152.748599)"><g><path d="M 18.828125 0 L 1.390625 0 L 1.390625 -3.671875 L 7.65625 -10 C 9.507812 -11.894531 10.71875 -13.207031 11.28125 -13.9375 C 11.851562 -14.675781 12.265625 -15.359375 12.515625 -15.984375 C 12.765625 -16.609375 12.890625 -17.253906 12.890625 -17.921875 C 12.890625 -18.921875 12.613281 -19.664062 12.0625 -20.15625 C 11.507812 -20.644531 10.773438 -20.890625 9.859375 -20.890625 C 8.890625 -20.890625 7.945312 -20.664062 7.03125 -20.21875 C 6.125 -19.78125 5.175781 -19.148438 4.1875 -18.328125 L 1.328125 -21.71875 C 2.554688 -22.769531 3.570312 -23.507812 4.375 -23.9375 C 5.1875 -24.375 6.066406 -24.707031 7.015625 -24.9375 C 7.972656 -25.164062 9.046875 -25.28125 10.234375 -25.28125 C 11.785156 -25.28125 13.15625 -24.992188 14.34375 -24.421875 C 15.539062 -23.859375 16.46875 -23.066406 17.125 -22.046875 C 17.789062 -21.023438 18.125 -19.851562 18.125 -18.53125 C 18.125 -17.382812 17.921875 -16.304688 17.515625 -15.296875 C 17.117188 -14.296875 16.492188 -13.265625 15.640625 -12.203125 C 14.796875 -11.148438 13.304688 -9.644531 11.171875 -7.6875 L 7.96875 -4.671875 L 7.96875 -4.4375 L 18.828125 -4.4375 Z M 18.828125 0 "/></g></g></g><g clip-path="url(#id3)"><path fill="#4b4c4d" d="M 267.761719 177.378906 C 268.492188 177.378906 269.195312 176.980469 269.554688 176.285156 C 290.210938 136.351562 290.210938 88.667969 269.554688 48.730469 C 269.042969 47.742188 267.824219 47.355469 266.835938 47.867188 C 265.847656 48.378906 265.460938 49.597656 265.972656 50.589844 C 286.027344 89.363281 286.027344 135.65625 265.972656 174.429688 C 265.460938 175.417969 265.847656 176.636719 266.835938 177.152344 C 267.132812 177.304688 267.449219 177.378906 267.761719 177.378906 " fill-opacity="1" fill-rule="nonzero"/></g><path stroke-linecap="butt" transform="matrix(3, 0, 0, 3.023622, 206.07213, 117.583599)" fill="none" stroke-linejoin="miter" d="M -0.000605771 -0.000518402 L 17.251999 -0.000518402 " stroke="#4b4c4d" stroke-width="1" stroke-opacity="1" stroke-miterlimit="4"/><path stroke-linecap="butt" transform="matrix(2.993318, 0, 0, 3, 34.641891, 117.482583)" fill="none" stroke-linejoin="miter" d="M -0.000422821 0.000597432 L 5.263906 0.000597432 " stroke="#4b4c4d" stroke-width="1" stroke-opacity="1" stroke-miterlimit="4"/><path stroke-linecap="butt" transform="matrix(2.993318, 0, 0, 3, 178.58466, 117.482583)" fill="none" stroke-linejoin="miter" d="M 0.000426864 0.000597432 L 5.264756 0.000597432 " stroke="#4b4c4d" stroke-width="1" stroke-opacity="1" stroke-miterlimit="4"/></svg>