<svg xmlns="http://www.w3.org/2000/svg" xmlns:xlink="http://www.w3.org/1999/xlink" width="400" zoomAndPan="magnify" viewBox="0 0 300 225" height="300" preserveAspectRatio="xMidYMid meet" version="1.0"><defs><g/><clipPath id="id1"><path d="M 48.007812 70.480469 L 105 70.480469 L 105 108.730469 L 48.007812 108.730469 Z M 48.007812 70.480469 " clip-rule="nonzero"/></clipPath><clipPath id="id2"><path d="M 28 47.109375 L 48 47.109375 L 48 177.609375 L 28 177.609375 Z M 28 47.109375 " clip-rule="nonzero"/></clipPath><clipPath id="id3"><path d="M 252 47.109375 L 272 47.109375 L 272 177.609375 L 252 177.609375 Z M 252 47.109375 " clip-rule="nonzero"/></clipPath></defs><g clip-path="url(#id1)"><path fill="#4b4c4d" d="M 74.984375 70.480469 C 74.535156 70.480469 74.128906 70.617188 73.765625 70.882812 C 73.40625 71.152344 73.164062 71.5 73.035156 71.925781 L 64.703125 99.992188 L 60.65625 87.964844 C 60.519531 87.550781 60.269531 87.21875 59.914062 86.964844 C 59.558594 86.710938 59.164062 86.585938 58.726562 86.585938 L 50.597656 86.585938 C 50.328125 86.585938 50.066406 86.636719 49.820312 86.738281 C 49.570312 86.84375 49.351562 86.988281 49.160156 87.175781 C 48.96875 87.367188 48.820312 87.582031 48.71875 87.828125 C 48.617188 88.078125 48.5625 88.332031 48.5625 88.601562 C 48.5625 88.867188 48.617188 89.125 48.71875 89.371094 C 48.820312 89.617188 48.96875 89.835938 49.160156 90.023438 C 49.351562 90.210938 49.570312 90.359375 49.820312 90.460938 C 50.066406 90.5625 50.328125 90.613281 50.597656 90.613281 L 57.261719 90.613281 L 62.894531 107.355469 C 63.03125 107.765625 63.277344 108.097656 63.632812 108.351562 C 63.988281 108.605469 64.386719 108.730469 64.824219 108.730469 L 64.859375 108.730469 C 65.304688 108.722656 65.703125 108.585938 66.054688 108.320312 C 66.40625 108.050781 66.644531 107.707031 66.773438 107.285156 L 76.503906 74.507812 L 102.421875 74.507812 C 102.691406 74.507812 102.949219 74.457031 103.199219 74.355469 C 103.445312 74.253906 103.667969 74.105469 103.855469 73.917969 C 104.046875 73.730469 104.195312 73.511719 104.296875 73.265625 C 104.402344 73.019531 104.453125 72.761719 104.453125 72.496094 C 104.453125 72.226562 104.402344 71.972656 104.296875 71.722656 C 104.195312 71.476562 104.046875 71.261719 103.855469 71.070312 C 103.667969 70.882812 103.445312 70.738281 103.199219 70.636719 C 102.949219 70.53125 102.691406 70.480469 102.421875 70.480469 Z M 74.984375 70.480469 " fill-opacity="1" fill-rule="nonzero"/></g><g clip-path="url(#id2)"><path fill="#4b4c4d" d="M 45.789062 177.378906 C 45.058594 177.378906 44.355469 176.980469 43.996094 176.285156 C 23.339844 136.351562 23.339844 88.667969 43.996094 48.730469 C 44.507812 47.742188 45.726562 47.355469 46.714844 47.867188 C 47.703125 48.378906 48.089844 49.597656 47.578125 50.589844 C 27.523438 89.363281 27.523438 135.65625 47.578125 174.429688 C 48.089844 175.417969 47.703125 176.636719 46.714844 177.152344 C 46.417969 177.304688 46.101562 177.378906 45.789062 177.378906 " fill-opacity="1" fill-rule="nonzero"/></g><path stroke-linecap="butt" transform="matrix(3.01271, 0, 0, 3.096774, 48.008256, 117.62016)" fill="none" stroke-linejoin="miter" d="M -0.000147342 0.000301427 L 24.898275 0.000301427 " stroke="#4b4c4d" stroke-width="1" stroke-opacity="1" stroke-miterlimit="4"/><g fill="#4b4c4d" fill-opacity="1"><g transform="translate(79.32574, 108.314888)"><g><path d="M 17.859375 -19.359375 C 17.859375 -17.796875 17.382812 -16.46875 16.4375 -15.375 C 15.488281 -14.289062 14.164062 -13.539062 12.46875 -13.125 L 12.46875 -13.03125 C 14.476562 -12.78125 16 -12.164062 17.03125 -11.1875 C 18.070312 -10.21875 18.59375 -8.910156 18.59375 -7.265625 C 18.59375 -4.867188 17.722656 -3 15.984375 -1.65625 C 14.242188 -0.320312 11.757812 0.34375 8.53125 0.34375 C 5.820312 0.34375 3.421875 -0.101562 1.328125 -1 L 1.328125 -5.484375 C 2.296875 -4.992188 3.359375 -4.597656 4.515625 -4.296875 C 5.679688 -3.992188 6.832031 -3.84375 7.96875 -3.84375 C 9.707031 -3.84375 10.988281 -4.132812 11.8125 -4.71875 C 12.644531 -5.3125 13.0625 -6.265625 13.0625 -7.578125 C 13.0625 -8.742188 12.582031 -9.570312 11.625 -10.0625 C 10.675781 -10.550781 9.15625 -10.796875 7.0625 -10.796875 L 5.171875 -10.796875 L 5.171875 -14.828125 L 7.09375 -14.828125 C 9.03125 -14.828125 10.441406 -15.082031 11.328125 -15.59375 C 12.222656 -16.101562 12.671875 -16.96875 12.671875 -18.1875 C 12.671875 -20.082031 11.488281 -21.03125 9.125 -21.03125 C 8.300781 -21.03125 7.46875 -20.890625 6.625 -20.609375 C 5.78125 -20.335938 4.835938 -19.867188 3.796875 -19.203125 L 1.359375 -22.828125 C 3.640625 -24.460938 6.351562 -25.28125 9.5 -25.28125 C 12.082031 -25.28125 14.117188 -24.757812 15.609375 -23.71875 C 17.109375 -22.675781 17.859375 -21.222656 17.859375 -19.359375 Z M 17.859375 -19.359375 "/></g></g></g><g fill="#4b4c4d" fill-opacity="1"><g transform="translate(75.385749, 152.989808)"><g><path d="M 18.828125 0 L 1.390625 0 L 1.390625 -3.671875 L 7.65625 -10 C 9.507812 -11.894531 10.71875 -13.207031 11.28125 -13.9375 C 11.851562 -14.675781 12.265625 -15.359375 12.515625 -15.984375 C 12.765625 -16.609375 12.890625 -17.253906 12.890625 -17.921875 C 12.890625 -18.921875 12.613281 -19.664062 12.0625 -20.15625 C 11.507812 -20.644531 10.773438 -20.890625 9.859375 -20.890625 C 8.890625 -20.890625 7.945312 -20.664062 7.03125 -20.21875 C 6.125 -19.78125 5.175781 -19.148438 4.1875 -18.328125 L 1.328125 -21.71875 C 2.554688 -22.769531 3.570312 -23.507812 4.375 -23.9375 C 5.1875 -24.375 6.066406 -24.707031 7.015625 -24.9375 C 7.972656 -25.164062 9.046875 -25.28125 10.234375 -25.28125 C 11.785156 -25.28125 13.15625 -24.992188 14.34375 -24.421875 C 15.539062 -23.859375 16.46875 -23.066406 17.125 -22.046875 C 17.789062 -21.023438 18.125 -19.851562 18.125 -18.53125 C 18.125 -17.382812 17.921875 -16.304688 17.515625 -15.296875 C 17.117188 -14.296875 16.492188 -13.265625 15.640625 -12.203125 C 14.796875 -11.148438 13.304688 -9.644531 11.171875 -7.6875 L 7.96875 -4.671875 L 7.96875 -4.4375 L 18.828125 -4.4375 Z M 18.828125 0 "/></g></g></g><g fill="#4b4c4d" fill-opacity="1"><g transform="translate(138.803149, 122.394226)"><g><path d="M 7.828125 -3.671875 C 7.234375 -1.367188 6.234375 1.351562 4.828125 4.5 L 1.078125 4.5 C 1.816406 1.476562 2.390625 -1.375 2.796875 -4.0625 L 7.578125 -4.0625 Z M 7.828125 -3.671875 "/></g></g></g><g fill="#4b4c4d" fill-opacity="1"><g transform="translate(208.429051, 108.505282)"><g><path d="M 14.421875 0 L 9.15625 0 L 9.15625 -14.421875 L 9.203125 -16.796875 L 9.296875 -19.390625 C 8.421875 -18.515625 7.8125 -17.941406 7.46875 -17.671875 L 4.609375 -15.359375 L 2.0625 -18.53125 L 10.09375 -24.921875 L 14.421875 -24.921875 Z M 14.421875 0 "/></g></g></g><g fill="#4b4c4d" fill-opacity="1"><g transform="translate(208.429051, 152.748834)"><g><path d="M 18.828125 0 L 1.390625 0 L 1.390625 -3.671875 L 7.65625 -10 C 9.507812 -11.894531 10.71875 -13.207031 11.28125 -13.9375 C 11.851562 -14.675781 12.265625 -15.359375 12.515625 -15.984375 C 12.765625 -16.609375 12.890625 -17.253906 12.890625 -17.921875 C 12.890625 -18.921875 12.613281 -19.664062 12.0625 -20.15625 C 11.507812 -20.644531 10.773438 -20.890625 9.859375 -20.890625 C 8.890625 -20.890625 7.945312 -20.664062 7.03125 -20.21875 C 6.125 -19.78125 5.175781 -19.148438 4.1875 -18.328125 L 1.328125 -21.71875 C 2.554688 -22.769531 3.570312 -23.507812 4.375 -23.9375 C 5.1875 -24.375 6.066406 -24.707031 7.015625 -24.9375 C 7.972656 -25.164062 9.046875 -25.28125 10.234375 -25.28125 C 11.785156 -25.28125 13.15625 -24.992188 14.34375 -24.421875 C 15.539062 -23.859375 16.46875 -23.066406 17.125 -22.046875 C 17.789062 -21.023438 18.125 -19.851562 18.125 -18.53125 C 18.125 -17.382812 17.921875 -16.304688 17.515625 -15.296875 C 17.117188 -14.296875 16.492188 -13.265625 15.640625 -12.203125 C 14.796875 -11.148438 13.304688 -9.644531 11.171875 -7.6875 L 7.96875 -4.671875 L 7.96875 -4.4375 L 18.828125 -4.4375 Z M 18.828125 0 "/></g></g></g><g clip-path="url(#id3)"><path fill="#4b4c4d" d="M 254.207031 177.378906 C 254.933594 177.378906 255.640625 176.980469 256 176.285156 C 276.652344 136.351562 276.652344 88.667969 256 48.730469 C 255.484375 47.742188 254.269531 47.355469 253.28125 47.867188 C 252.292969 48.378906 251.90625 49.597656 252.417969 50.589844 C 272.472656 89.363281 272.472656 135.65625 252.417969 174.429688 C 251.90625 175.417969 252.292969 176.636719 253.28125 177.152344 C 253.578125 177.304688 253.894531 177.378906 254.207031 177.378906 " fill-opacity="1" fill-rule="nonzero"/></g><path stroke-linecap="butt" transform="matrix(3, 0, 0, 3.023622, 192.515778, 117.583716)" fill="none" stroke-linejoin="miter" d="M -0.0000511262 -0.000557295 L 17.252554 -0.000557295 " stroke="#4b4c4d" stroke-width="1" stroke-opacity="1" stroke-miterlimit="4"/><path stroke-linecap="butt" transform="matrix(2.993318, 0, 0, 3, 165.028294, 117.482818)" fill="none" stroke-linejoin="miter" d="M -0.000317432 0.000519032 L 5.264012 0.000519032 " stroke="#4b4c4d" stroke-width="1" stroke-opacity="1" stroke-miterlimit="4"/></svg>