<svg xmlns="http://www.w3.org/2000/svg" xmlns:xlink="http://www.w3.org/1999/xlink" width="400" zoomAndPan="magnify" viewBox="0 0 300 225" height="300" preserveAspectRatio="xMidYMid meet" version="1.0"><defs><g/><clipPath id="id1"><path d="M 38 47.078125 L 58 47.078125 L 58 177.578125 L 38 177.578125 Z M 38 47.078125 " clip-rule="nonzero"/></clipPath><clipPath id="id2"><path d="M 242 47.078125 L 262 47.078125 L 262 177.578125 L 242 177.578125 Z M 242 47.078125 " clip-rule="nonzero"/></clipPath><clipPath id="id3"><path d="M 58.160156 71.660156 L 115 71.660156 L 115 109.910156 L 58.160156 109.910156 Z M 58.160156 71.660156 " clip-rule="nonzero"/></clipPath><clipPath id="id4"><path d="M 167.144531 70.203125 L 224 70.203125 L 224 108.453125 L 167.144531 108.453125 Z M 167.144531 70.203125 " clip-rule="nonzero"/></clipPath></defs><g clip-path="url(#id1)"><path fill="#4b4c4d" d="M 55.738281 177.347656 C 55.011719 177.347656 54.304688 176.949219 53.949219 176.253906 C 33.292969 136.320312 33.292969 88.632812 53.949219 48.699219 C 54.460938 47.707031 55.675781 47.320312 56.664062 47.832031 C 57.652344 48.347656 58.039062 49.566406 57.527344 50.554688 C 37.472656 89.328125 37.472656 135.625 57.527344 174.398438 C 58.039062 175.386719 57.652344 176.605469 56.664062 177.117188 C 56.367188 177.273438 56.050781 177.347656 55.738281 177.347656 " fill-opacity="1" fill-rule="nonzero"/></g><g fill="#4b4c4d" fill-opacity="1"><g transform="translate(141.227351, 122.399098)"><g><path d="M 7.828125 -3.671875 C 7.234375 -1.367188 6.234375 1.351562 4.828125 4.5 L 1.078125 4.5 C 1.816406 1.476562 2.390625 -1.375 2.796875 -4.0625 L 7.578125 -4.0625 Z M 7.828125 -3.671875 "/></g></g></g><g clip-path="url(#id2)"><path fill="#4b4c4d" d="M 244.253906 177.347656 C 244.984375 177.347656 245.6875 176.949219 246.046875 176.253906 C 266.703125 136.320312 266.703125 88.632812 246.046875 48.699219 C 245.535156 47.707031 244.316406 47.320312 243.328125 47.832031 C 242.339844 48.347656 241.953125 49.566406 242.464844 50.554688 C 262.519531 89.328125 262.519531 135.625 242.464844 174.398438 C 241.953125 175.386719 242.339844 176.605469 243.328125 177.117188 C 243.625 177.273438 243.941406 177.347656 244.253906 177.347656 " fill-opacity="1" fill-rule="nonzero"/></g><g clip-path="url(#id3)"><path fill="#4b4c4d" d="M 85.136719 71.660156 C 84.6875 71.660156 84.28125 71.792969 83.921875 72.0625 C 83.558594 72.328125 83.316406 72.675781 83.1875 73.105469 L 74.855469 101.171875 L 70.808594 89.140625 C 70.671875 88.730469 70.425781 88.398438 70.070312 88.144531 C 69.714844 87.890625 69.316406 87.765625 68.878906 87.765625 L 60.75 87.765625 C 60.480469 87.765625 60.222656 87.816406 59.972656 87.917969 C 59.722656 88.019531 59.503906 88.167969 59.3125 88.355469 C 59.121094 88.542969 58.976562 88.761719 58.871094 89.007812 C 58.769531 89.253906 58.71875 89.511719 58.71875 89.777344 C 58.71875 90.046875 58.769531 90.300781 58.871094 90.546875 C 58.976562 90.796875 59.121094 91.011719 59.3125 91.203125 C 59.503906 91.390625 59.722656 91.535156 59.972656 91.636719 C 60.222656 91.742188 60.480469 91.792969 60.75 91.792969 L 67.414062 91.792969 L 73.046875 108.53125 C 73.183594 108.945312 73.433594 109.277344 73.785156 109.53125 C 74.140625 109.785156 74.539062 109.910156 74.976562 109.910156 L 75.011719 109.910156 C 75.457031 109.902344 75.855469 109.765625 76.207031 109.496094 C 76.558594 109.230469 76.800781 108.886719 76.925781 108.464844 L 86.65625 75.6875 L 112.574219 75.6875 C 112.84375 75.6875 113.101562 75.636719 113.351562 75.53125 C 113.601562 75.429688 113.820312 75.285156 114.011719 75.097656 C 114.199219 74.90625 114.347656 74.691406 114.449219 74.445312 C 114.554688 74.195312 114.605469 73.941406 114.605469 73.671875 C 114.605469 73.40625 114.554688 73.148438 114.449219 72.902344 C 114.347656 72.65625 114.199219 72.4375 114.011719 72.25 C 113.820312 72.0625 113.601562 71.914062 113.351562 71.8125 C 113.101562 71.710938 112.84375 71.660156 112.574219 71.660156 Z M 85.136719 71.660156 " fill-opacity="1" fill-rule="nonzero"/></g><g fill="#4b4c4d" fill-opacity="1"><g transform="translate(89.027535, 108.501363)"><g><path d="M 18.828125 0 L 1.40625 0 L 1.40625 -3.671875 L 7.65625 -10 C 9.507812 -11.894531 10.71875 -13.207031 11.28125 -13.9375 C 11.851562 -14.675781 12.265625 -15.359375 12.515625 -15.984375 C 12.765625 -16.609375 12.890625 -17.253906 12.890625 -17.921875 C 12.890625 -18.929688 12.613281 -19.675781 12.0625 -20.15625 C 11.507812 -20.644531 10.773438 -20.890625 9.859375 -20.890625 C 8.890625 -20.890625 7.953125 -20.664062 7.046875 -20.21875 C 6.140625 -19.78125 5.191406 -19.15625 4.203125 -18.34375 L 1.328125 -21.734375 C 2.554688 -22.773438 3.570312 -23.507812 4.375 -23.9375 C 5.1875 -24.375 6.070312 -24.707031 7.03125 -24.9375 C 7.988281 -25.175781 9.054688 -25.296875 10.234375 -25.296875 C 11.796875 -25.296875 13.171875 -25.007812 14.359375 -24.4375 C 15.554688 -23.875 16.484375 -23.078125 17.140625 -22.046875 C 17.804688 -21.023438 18.140625 -19.859375 18.140625 -18.546875 C 18.140625 -17.398438 17.9375 -16.320312 17.53125 -15.3125 C 17.125 -14.300781 16.492188 -13.265625 15.640625 -12.203125 C 14.796875 -11.148438 13.304688 -9.644531 11.171875 -7.6875 L 7.96875 -4.671875 L 7.96875 -4.4375 L 18.828125 -4.4375 Z M 18.828125 0 "/></g></g></g><g fill="#4b4c4d" fill-opacity="1"><g transform="translate(85.816319, 152.765775)"><g><path d="M 18.828125 0 L 1.40625 0 L 1.40625 -3.671875 L 7.65625 -10 C 9.507812 -11.894531 10.71875 -13.207031 11.28125 -13.9375 C 11.851562 -14.675781 12.265625 -15.359375 12.515625 -15.984375 C 12.765625 -16.609375 12.890625 -17.253906 12.890625 -17.921875 C 12.890625 -18.929688 12.613281 -19.675781 12.0625 -20.15625 C 11.507812 -20.644531 10.773438 -20.890625 9.859375 -20.890625 C 8.890625 -20.890625 7.953125 -20.664062 7.046875 -20.21875 C 6.140625 -19.78125 5.191406 -19.15625 4.203125 -18.34375 L 1.328125 -21.734375 C 2.554688 -22.773438 3.570312 -23.507812 4.375 -23.9375 C 5.1875 -24.375 6.070312 -24.707031 7.03125 -24.9375 C 7.988281 -25.175781 9.054688 -25.296875 10.234375 -25.296875 C 11.796875 -25.296875 13.171875 -25.007812 14.359375 -24.4375 C 15.554688 -23.875 16.484375 -23.078125 17.140625 -22.046875 C 17.804688 -21.023438 18.140625 -19.859375 18.140625 -18.546875 C 18.140625 -17.398438 17.9375 -16.320312 17.53125 -15.3125 C 17.125 -14.300781 16.492188 -13.265625 15.640625 -12.203125 C 14.796875 -11.148438 13.304688 -9.644531 11.171875 -7.6875 L 7.96875 -4.671875 L 7.96875 -4.4375 L 18.828125 -4.4375 Z M 18.828125 0 "/></g></g></g><g fill="#4b4c4d" fill-opacity="1"><g transform="translate(194.521871, 151.310305)"><g><path d="M 18.828125 0 L 1.40625 0 L 1.40625 -3.671875 L 7.65625 -10 C 9.507812 -11.894531 10.71875 -13.207031 11.28125 -13.9375 C 11.851562 -14.675781 12.265625 -15.359375 12.515625 -15.984375 C 12.765625 -16.609375 12.890625 -17.253906 12.890625 -17.921875 C 12.890625 -18.929688 12.613281 -19.675781 12.0625 -20.15625 C 11.507812 -20.644531 10.773438 -20.890625 9.859375 -20.890625 C 8.890625 -20.890625 7.953125 -20.664062 7.046875 -20.21875 C 6.140625 -19.78125 5.191406 -19.15625 4.203125 -18.34375 L 1.328125 -21.734375 C 2.554688 -22.773438 3.570312 -23.507812 4.375 -23.9375 C 5.1875 -24.375 6.070312 -24.707031 7.03125 -24.9375 C 7.988281 -25.175781 9.054688 -25.296875 10.234375 -25.296875 C 11.796875 -25.296875 13.171875 -25.007812 14.359375 -24.4375 C 15.554688 -23.875 16.484375 -23.078125 17.140625 -22.046875 C 17.804688 -21.023438 18.140625 -19.859375 18.140625 -18.546875 C 18.140625 -17.398438 17.9375 -16.320312 17.53125 -15.3125 C 17.125 -14.300781 16.492188 -13.265625 15.640625 -12.203125 C 14.796875 -11.148438 13.304688 -9.644531 11.171875 -7.6875 L 7.96875 -4.671875 L 7.96875 -4.4375 L 18.828125 -4.4375 Z M 18.828125 0 "/></g></g></g><g clip-path="url(#id4)"><path fill="#4b4c4d" d="M 194.121094 70.203125 C 193.671875 70.203125 193.265625 70.339844 192.902344 70.605469 C 192.542969 70.875 192.300781 71.222656 192.171875 71.648438 L 183.839844 99.714844 L 179.792969 87.6875 C 179.65625 87.273438 179.40625 86.941406 179.054688 86.6875 C 178.699219 86.4375 178.300781 86.308594 177.863281 86.308594 L 169.734375 86.308594 C 169.464844 86.308594 169.203125 86.359375 168.957031 86.464844 C 168.707031 86.566406 168.488281 86.710938 168.296875 86.898438 C 168.105469 87.089844 167.960938 87.304688 167.855469 87.550781 C 167.753906 87.800781 167.703125 88.054688 167.703125 88.324219 C 167.703125 88.589844 167.753906 88.847656 167.855469 89.09375 C 167.960938 89.339844 168.105469 89.558594 168.296875 89.746094 C 168.488281 89.933594 168.707031 90.082031 168.957031 90.183594 C 169.203125 90.285156 169.464844 90.335938 169.734375 90.335938 L 176.398438 90.335938 L 182.03125 107.078125 C 182.167969 107.488281 182.414062 107.820312 182.769531 108.074219 C 183.125 108.328125 183.523438 108.453125 183.960938 108.453125 L 183.996094 108.453125 C 184.441406 108.445312 184.839844 108.308594 185.191406 108.042969 C 185.542969 107.777344 185.785156 107.429688 185.910156 107.007812 L 195.640625 74.230469 L 221.558594 74.230469 C 221.828125 74.230469 222.085938 74.179688 222.335938 74.078125 C 222.582031 73.976562 222.804688 73.828125 222.996094 73.640625 C 223.183594 73.453125 223.332031 73.234375 223.433594 72.988281 C 223.539062 72.742188 223.589844 72.484375 223.589844 72.21875 C 223.589844 71.949219 223.539062 71.695312 223.433594 71.449219 C 223.332031 71.199219 223.183594 70.984375 222.996094 70.792969 C 222.804688 70.605469 222.582031 70.460938 222.335938 70.359375 C 222.085938 70.253906 221.828125 70.203125 221.558594 70.203125 Z M 194.121094 70.203125 " fill-opacity="1" fill-rule="nonzero"/></g><g fill="#4b4c4d" fill-opacity="1"><g transform="translate(198.011569, 107.045895)"><g><path d="M 18.828125 0 L 1.40625 0 L 1.40625 -3.671875 L 7.65625 -10 C 9.507812 -11.894531 10.71875 -13.207031 11.28125 -13.9375 C 11.851562 -14.675781 12.265625 -15.359375 12.515625 -15.984375 C 12.765625 -16.609375 12.890625 -17.253906 12.890625 -17.921875 C 12.890625 -18.929688 12.613281 -19.675781 12.0625 -20.15625 C 11.507812 -20.644531 10.773438 -20.890625 9.859375 -20.890625 C 8.890625 -20.890625 7.953125 -20.664062 7.046875 -20.21875 C 6.140625 -19.78125 5.191406 -19.15625 4.203125 -18.34375 L 1.328125 -21.734375 C 2.554688 -22.773438 3.570312 -23.507812 4.375 -23.9375 C 5.1875 -24.375 6.070312 -24.707031 7.03125 -24.9375 C 7.988281 -25.175781 9.054688 -25.296875 10.234375 -25.296875 C 11.796875 -25.296875 13.171875 -25.007812 14.359375 -24.4375 C 15.554688 -23.875 16.484375 -23.078125 17.140625 -22.046875 C 17.804688 -21.023438 18.140625 -19.859375 18.140625 -18.546875 C 18.140625 -17.398438 17.9375 -16.320312 17.53125 -15.3125 C 17.125 -14.300781 16.492188 -13.265625 15.640625 -12.203125 C 14.796875 -11.148438 13.304688 -9.644531 11.171875 -7.6875 L 7.96875 -4.671875 L 7.96875 -4.4375 L 18.828125 -4.4375 Z M 18.828125 0 "/></g></g></g><path stroke-linecap="butt" transform="matrix(3.01271, 0, 0, 3.096774, 58.43983, 117.620045)" fill="none" stroke-linejoin="miter" d="M 0.000523344 0.000338627 L 24.897649 0.000338627 " stroke="#4b4c4d" stroke-width="1" stroke-opacity="1" stroke-miterlimit="4"/><path stroke-linecap="butt" transform="matrix(3.01271, 0, 0, 3.096774, 167.145389, 116.16481)" fill="none" stroke-linejoin="miter" d="M -0.000284722 -0.000241367 L 24.898138 -0.000241367 " stroke="#4b4c4d" stroke-width="1" stroke-opacity="1" stroke-miterlimit="4"/></svg>