<svg xmlns="http://www.w3.org/2000/svg" xmlns:xlink="http://www.w3.org/1999/xlink" width="200" zoomAndPan="magnify" viewBox="0 0 150 149.999998" height="200" preserveAspectRatio="xMidYMid meet" version="1.0"><path fill="#ffffff" d="M 75 0 C 33.578125 0 0 33.578125 0 75 C 0 116.421875 33.578125 150 75 150 C 116.421875 150 150 116.421875 150 75 C 150 33.578125 116.421875 0 75 0 " fill-opacity="1" fill-rule="nonzero"/><path fill="#454545" d="M 102.390625 95.003906 L 102.390625 101.753906 L 47.707031 101.753906 L 47.707031 95.003906 L 102.390625 95.003906 " fill-opacity="1" fill-rule="nonzero"/><path fill="#454545" d="M 54.488281 37.53125 L 61.238281 37.53125 L 61.238281 77.984375 L 54.488281 77.984375 L 54.488281 37.53125 " fill-opacity="1" fill-rule="nonzero"/><path fill="#454545" d="M 89.464844 37.53125 L 96.214844 37.53125 L 96.214844 77.984375 L 89.464844 77.984375 L 89.464844 37.53125 " fill-opacity="1" fill-rule="nonzero"/><path fill="#454545" d="M 52.996094 17.980469 L 52.996094 50.980469 C 53.089844 50.988281 53.1875 50.988281 53.285156 50.988281 L 96.96875 50.988281 L 96.96875 17.980469 L 52.996094 17.980469 M 99.464844 17.980469 L 96.96875 17.980469 L 96.96875 50.980469 L 97.027344 50.980469 C 101.058594 50.980469 104.601562 47.699219 104.890625 43.691406 L 106.257812 25.261719 C 106.554688 21.261719 103.5 17.980469 99.464844 17.980469 M 50.847656 17.980469 C 46.8125 17.980469 43.757812 21.261719 44.054688 25.269531 L 45.421875 43.695312 C 45.710938 47.609375 49.09375 50.828125 53 50.980469 L 53 17.980469 L 50.847656 17.980469 " fill-opacity="1" fill-rule="nonzero"/><path fill="#454545" d="M 43.121094 75 L 43.121094 84.75 C 43.152344 84.753906 43.179688 84.753906 43.210938 84.753906 L 106.652344 84.753906 L 106.652344 75 L 43.121094 75 M 107.398438 75 L 106.652344 75 L 106.652344 84.75 L 106.671875 84.75 C 107.875 84.75 108.933594 83.78125 109.019531 82.597656 L 109.425781 77.152344 C 109.515625 75.96875 108.601562 75 107.398438 75 M 42.480469 75 C 41.277344 75 40.363281 75.96875 40.453125 77.152344 L 40.859375 82.597656 C 40.945312 83.753906 41.957031 84.707031 43.125 84.75 L 43.125 75 L 42.480469 75 " fill-opacity="1" fill-rule="nonzero"/><path fill="#454545" d="M 98.960938 131.765625 C 99.382812 131.90625 99.863281 132 100.335938 132 C 100.808594 132 101.261719 131.921875 101.679688 131.777344 C 101.6875 131.773438 101.699219 131.773438 101.707031 131.769531 C 103.277344 131.203125 104.433594 129.707031 104.457031 127.8125 L 104.457031 75 L 96.210938 75 L 96.210938 127.769531 C 96.234375 129.714844 97.371094 131.210938 98.960938 131.765625 " fill-opacity="1" fill-rule="nonzero"/><path fill="#454545" d="M 49.019531 131.765625 C 49.445312 131.90625 49.925781 132 50.394531 132 C 50.867188 132 51.320312 131.921875 51.738281 131.777344 C 51.75 131.773438 51.757812 131.773438 51.765625 131.769531 C 53.335938 131.203125 54.492188 129.707031 54.515625 127.8125 L 54.515625 75 L 46.269531 75 L 46.269531 127.769531 C 46.292969 129.714844 47.433594 131.210938 49.019531 131.765625 " fill-opacity="1" fill-rule="nonzero"/></svg>