<svg xmlns="http://www.w3.org/2000/svg" xmlns:xlink="http://www.w3.org/1999/xlink" width="400" zoomAndPan="magnify" viewBox="0 0 300 299.999988" height="400" preserveAspectRatio="xMidYMid meet" version="1.0"><defs><clipPath id="id1"><path d="M 0 2.40625 L 300 2.40625 L 300 297.90625 L 0 297.90625 Z M 0 2.40625 " clip-rule="nonzero"/></clipPath><clipPath id="id2"><path d="M 112.15625 177.644531 L 187.90625 177.644531 L 187.90625 186.644531 L 112.15625 186.644531 Z M 112.15625 177.644531 " clip-rule="nonzero"/></clipPath><clipPath id="id3"><path d="M 121.644531 98.171875 L 130.644531 98.171875 L 130.644531 154.421875 L 121.644531 154.421875 Z M 121.644531 98.171875 " clip-rule="nonzero"/></clipPath><clipPath id="id4"><path d="M 169.992188 98.171875 L 178.992188 98.171875 L 178.992188 154.421875 L 169.992188 154.421875 Z M 169.992188 98.171875 " clip-rule="nonzero"/></clipPath><clipPath id="id5"><path d="M 107.191406 71.183594 L 192.691406 71.183594 L 192.691406 116.933594 L 107.191406 116.933594 Z M 107.191406 71.183594 " clip-rule="nonzero"/></clipPath><clipPath id="id6"><path d="M 102.226562 150 L 197.476562 150 L 197.476562 163.5 L 102.226562 163.5 Z M 102.226562 150 " clip-rule="nonzero"/></clipPath><clipPath id="id7"><path d="M 179.320312 150 L 190.570312 150 L 190.570312 228.75 L 179.320312 228.75 Z M 179.320312 150 " clip-rule="nonzero"/></clipPath><clipPath id="id8"><path d="M 110.289062 150 L 121.539062 150 L 121.539062 228.75 L 110.289062 228.75 Z M 110.289062 150 " clip-rule="nonzero"/></clipPath></defs><g clip-path="url(#id1)"><path fill="#454545" d="M 150 2.40625 C 67.15625 2.40625 0 68.554688 0 150.15625 C 0 231.757812 67.15625 297.90625 150 297.90625 C 232.84375 297.90625 300 231.757812 300 150.15625 C 300 68.554688 232.84375 2.40625 150 2.40625 " fill-opacity="1" fill-rule="nonzero"/></g><g clip-path="url(#id2)"><path fill="#ffffff" d="M 187.871094 177.644531 L 187.871094 186.644531 L 112.191406 186.644531 L 112.191406 177.644531 L 187.871094 177.644531 " fill-opacity="1" fill-rule="nonzero"/></g><g clip-path="url(#id3)"><path fill="#ffffff" d="M 121.644531 98.199219 L 130.644531 98.199219 L 130.644531 154.398438 L 121.644531 154.398438 L 121.644531 98.199219 " fill-opacity="1" fill-rule="nonzero"/></g><g clip-path="url(#id4)"><path fill="#ffffff" d="M 169.992188 98.199219 L 178.992188 98.199219 L 178.992188 154.398438 L 169.992188 154.398438 L 169.992188 98.199219 " fill-opacity="1" fill-rule="nonzero"/></g><g clip-path="url(#id5)"><path fill="#ffffff" d="M 119.503906 71.183594 L 119.503906 116.933594 C 119.636719 116.941406 119.769531 116.941406 119.902344 116.941406 L 179.902344 116.941406 L 179.902344 71.183594 L 119.503906 71.183594 M 183.332031 71.183594 L 179.902344 71.183594 L 179.902344 116.933594 L 179.980469 116.933594 C 185.519531 116.933594 190.382812 112.382812 190.785156 106.828125 L 192.660156 81.277344 C 193.066406 75.734375 188.871094 71.183594 183.332031 71.183594 M 116.554688 71.183594 C 111.011719 71.183594 106.816406 75.734375 107.226562 81.289062 L 109.101562 106.835938 C 109.5 112.257812 114.144531 116.722656 119.511719 116.933594 L 119.511719 71.183594 L 116.554688 71.183594 " fill-opacity="1" fill-rule="nonzero"/></g><g clip-path="url(#id6)"><path fill="#ffffff" d="M 105.933594 150 L 105.933594 163.5 C 105.972656 163.503906 106.011719 163.503906 106.054688 163.503906 L 193.628906 163.503906 L 193.628906 150 L 105.933594 150 M 194.65625 150 L 193.628906 150 L 193.628906 163.5 L 193.652344 163.5 C 195.316406 163.5 196.773438 162.15625 196.894531 160.519531 L 197.457031 152.980469 C 197.582031 151.34375 196.320312 150 194.65625 150 M 105.046875 150 C 103.386719 150 102.125 151.34375 102.246094 152.980469 L 102.8125 160.519531 C 102.929688 162.121094 104.324219 163.4375 105.9375 163.5 L 105.9375 150 L 105.046875 150 " fill-opacity="1" fill-rule="nonzero"/></g><g clip-path="url(#id7)"><path fill="#ffffff" d="M 183.070312 228.425781 C 183.644531 228.621094 184.300781 228.75 184.945312 228.75 C 185.585938 228.75 186.207031 228.640625 186.777344 228.445312 C 186.789062 228.4375 186.800781 228.4375 186.8125 228.433594 C 188.953125 227.648438 190.53125 225.578125 190.5625 222.960938 L 190.5625 150 L 179.320312 150 L 179.320312 222.90625 C 179.347656 225.59375 180.902344 227.660156 183.070312 228.425781 " fill-opacity="1" fill-rule="nonzero"/></g><g clip-path="url(#id8)"><path fill="#ffffff" d="M 114.039062 228.425781 C 114.613281 228.621094 115.269531 228.75 115.914062 228.75 C 116.554688 228.75 117.175781 228.640625 117.746094 228.445312 C 117.757812 228.4375 117.769531 228.4375 117.78125 228.433594 C 119.925781 227.648438 121.5 225.578125 121.53125 222.960938 L 121.53125 150 L 110.289062 150 L 110.289062 222.90625 C 110.320312 225.59375 111.871094 227.660156 114.039062 228.425781 " fill-opacity="1" fill-rule="nonzero"/></g></svg>