<svg xmlns="http://www.w3.org/2000/svg" xmlns:xlink="http://www.w3.org/1999/xlink" width="400" zoomAndPan="magnify" viewBox="0 0 300 299.999988" height="400" preserveAspectRatio="xMidYMid meet" version="1.0"><defs><g/><clipPath id="id1"><path d="M 300 150 C 300 152.453125 299.941406 154.910156 299.820312 157.359375 C 299.699219 159.8125 299.519531 162.257812 299.277344 164.703125 C 299.035156 167.144531 298.738281 169.582031 298.375 172.007812 C 298.015625 174.4375 297.597656 176.855469 297.117188 179.261719 C 296.640625 181.671875 296.101562 184.066406 295.503906 186.445312 C 294.90625 188.828125 294.253906 191.195312 293.542969 193.542969 C 292.828125 195.890625 292.058594 198.222656 291.230469 200.535156 C 290.40625 202.84375 289.519531 205.132812 288.582031 207.402344 C 287.640625 209.671875 286.648438 211.914062 285.597656 214.132812 C 284.546875 216.351562 283.445312 218.542969 282.289062 220.710938 C 281.132812 222.875 279.921875 225.007812 278.660156 227.117188 C 277.398438 229.222656 276.085938 231.292969 274.71875 233.335938 C 273.355469 235.375 271.945312 237.382812 270.480469 239.355469 C 269.019531 241.328125 267.507812 243.261719 265.953125 245.160156 C 264.394531 247.054688 262.792969 248.914062 261.144531 250.734375 C 259.492188 252.550781 257.800781 254.332031 256.066406 256.066406 C 254.332031 257.800781 252.554688 259.492188 250.734375 261.144531 C 248.914062 262.792969 247.054688 264.394531 245.160156 265.953125 C 243.261719 267.507812 241.328125 269.019531 239.355469 270.480469 C 237.382812 271.945312 235.375 273.355469 233.335938 274.71875 C 231.292969 276.085938 229.222656 277.398438 227.117188 278.660156 C 225.007812 279.921875 222.875 281.132812 220.710938 282.289062 C 218.542969 283.445312 216.351562 284.546875 214.132812 285.597656 C 211.914062 286.648438 209.671875 287.640625 207.402344 288.582031 C 205.132812 289.519531 202.84375 290.40625 200.535156 291.230469 C 198.222656 292.058594 195.890625 292.828125 193.542969 293.539062 C 191.195312 294.253906 188.828125 294.90625 186.445312 295.503906 C 184.066406 296.101562 181.671875 296.640625 179.261719 297.117188 C 176.855469 297.597656 174.4375 298.015625 172.007812 298.375 C 169.582031 298.738281 167.144531 299.035156 164.703125 299.277344 C 162.257812 299.519531 159.8125 299.699219 157.359375 299.820312 C 154.910156 299.941406 152.453125 300 150 300 C 147.546875 300 145.089844 299.941406 142.640625 299.820312 C 140.1875 299.699219 137.742188 299.519531 135.296875 299.277344 C 132.855469 299.035156 130.417969 298.738281 127.992188 298.375 C 125.5625 298.015625 123.144531 297.597656 120.738281 297.117188 C 118.328125 296.640625 115.933594 296.101562 113.554688 295.503906 C 111.171875 294.90625 108.804688 294.253906 106.457031 293.542969 C 104.109375 292.828125 101.777344 292.058594 99.464844 291.230469 C 97.15625 290.40625 94.867188 289.519531 92.597656 288.582031 C 90.328125 287.640625 88.085938 286.648438 85.867188 285.597656 C 83.648438 284.546875 81.457031 283.445312 79.289062 282.289062 C 77.125 281.132812 74.988281 279.921875 72.882812 278.660156 C 70.777344 277.398438 68.707031 276.085938 66.664062 274.71875 C 64.625 273.355469 62.617188 271.945312 60.644531 270.480469 C 58.671875 269.019531 56.738281 267.507812 54.839844 265.953125 C 52.945312 264.394531 51.085938 262.792969 49.265625 261.144531 C 47.445312 259.492188 45.667969 257.800781 43.933594 256.066406 C 42.199219 254.332031 40.507812 252.550781 38.855469 250.734375 C 37.207031 248.914062 35.605469 247.054688 34.046875 245.160156 C 32.492188 243.261719 30.980469 241.328125 29.519531 239.355469 C 28.054688 237.382812 26.644531 235.375 25.28125 233.335938 C 23.914062 231.292969 22.601562 229.222656 21.339844 227.117188 C 20.078125 225.007812 18.867188 222.875 17.710938 220.710938 C 16.554688 218.542969 15.453125 216.351562 14.402344 214.132812 C 13.351562 211.914062 12.359375 209.671875 11.417969 207.402344 C 10.480469 205.132812 9.59375 202.84375 8.769531 200.535156 C 7.941406 198.222656 7.171875 195.890625 6.457031 193.542969 C 5.746094 191.195312 5.09375 188.828125 4.496094 186.445312 C 3.898438 184.066406 3.359375 181.671875 2.882812 179.261719 C 2.402344 176.855469 1.984375 174.4375 1.625 172.007812 C 1.261719 169.582031 0.964844 167.144531 0.722656 164.703125 C 0.480469 162.257812 0.300781 159.8125 0.179688 157.359375 C 0.0585938 154.910156 0 152.453125 0 150 C 0 147.546875 0.0585938 145.089844 0.179688 142.640625 C 0.300781 140.1875 0.480469 137.742188 0.722656 135.296875 C 0.964844 132.855469 1.261719 130.417969 1.625 127.992188 C 1.984375 125.5625 2.402344 123.144531 2.882812 120.738281 C 3.359375 118.328125 3.898438 115.933594 4.496094 113.554688 C 5.09375 111.171875 5.746094 108.804688 6.457031 106.457031 C 7.171875 104.109375 7.941406 101.777344 8.769531 99.464844 C 9.59375 97.15625 10.480469 94.867188 11.417969 92.597656 C 12.359375 90.328125 13.351562 88.085938 14.402344 85.867188 C 15.453125 83.648438 16.554688 81.457031 17.710938 79.289062 C 18.867188 77.125 20.078125 74.988281 21.339844 72.882812 C 22.601562 70.777344 23.914062 68.707031 25.28125 66.664062 C 26.644531 64.625 28.054688 62.617188 29.519531 60.644531 C 30.980469 58.671875 32.492188 56.738281 34.046875 54.839844 C 35.605469 52.945312 37.207031 51.085938 38.855469 49.265625 C 40.507812 47.445312 42.199219 45.667969 43.933594 43.933594 C 45.667969 42.199219 47.445312 40.507812 49.265625 38.855469 C 51.085938 37.207031 52.945312 35.605469 54.839844 34.046875 C 56.738281 32.492188 58.671875 30.980469 60.644531 29.519531 C 62.617188 28.054688 64.625 26.644531 66.664062 25.28125 C 68.707031 23.914062 70.777344 22.601562 72.882812 21.339844 C 74.988281 20.078125 77.125 18.867188 79.289062 17.710938 C 81.457031 16.554688 83.648438 15.453125 85.867188 14.402344 C 88.085938 13.351562 90.328125 12.359375 92.597656 11.417969 C 94.867188 10.480469 97.15625 9.59375 99.464844 8.769531 C 101.777344 7.941406 104.109375 7.171875 106.457031 6.457031 C 108.804688 5.746094 111.171875 5.089844 113.554688 4.496094 C 115.933594 3.898438 118.328125 3.359375 120.738281 2.882812 C 123.144531 2.402344 125.5625 1.984375 127.992188 1.625 C 130.417969 1.261719 132.855469 0.964844 135.296875 0.722656 C 137.742188 0.480469 140.1875 0.300781 142.640625 0.179688 C 145.089844 0.0585938 147.546875 0 150 0 C 152.453125 0 154.910156 0.0585938 157.359375 0.179688 C 159.8125 0.300781 162.257812 0.480469 164.703125 0.722656 C 167.144531 0.964844 169.582031 1.261719 172.007812 1.625 C 174.4375 1.984375 176.855469 2.402344 179.261719 2.882812 C 181.671875 3.359375 184.066406 3.898438 186.445312 4.496094 C 188.828125 5.089844 191.195312 5.746094 193.542969 6.457031 C 195.890625 7.171875 198.222656 7.941406 200.535156 8.769531 C 202.84375 9.59375 205.132812 10.480469 207.402344 11.417969 C 209.671875 12.359375 211.914062 13.351562 214.132812 14.402344 C 216.351562 15.453125 218.542969 16.554688 220.710938 17.710938 C 222.875 18.867188 225.007812 20.078125 227.117188 21.339844 C 229.222656 22.601562 231.292969 23.914062 233.335938 25.28125 C 235.375 26.644531 237.382812 28.054688 239.355469 29.519531 C 241.328125 30.980469 243.261719 32.492188 245.160156 34.046875 C 247.054688 35.605469 248.914062 37.207031 250.734375 38.855469 C 252.554688 40.507812 254.332031 42.199219 256.066406 43.933594 C 257.800781 45.667969 259.492188 47.445312 261.144531 49.265625 C 262.792969 51.085938 264.394531 52.945312 265.953125 54.839844 C 267.507812 56.738281 269.019531 58.671875 270.480469 60.644531 C 271.945312 62.617188 273.355469 64.625 274.71875 66.664062 C 276.085938 68.707031 277.398438 70.777344 278.660156 72.882812 C 279.921875 74.988281 281.132812 77.125 282.289062 79.289062 C 283.445312 81.457031 284.546875 83.648438 285.597656 85.867188 C 286.648438 88.085938 287.640625 90.328125 288.582031 92.597656 C 289.519531 94.867188 290.40625 97.15625 291.230469 99.464844 C 292.058594 101.777344 292.828125 104.109375 293.539062 106.457031 C 294.253906 108.804688 294.90625 111.171875 295.503906 113.554688 C 296.101562 115.933594 296.640625 118.328125 297.117188 120.738281 C 297.597656 123.144531 298.015625 125.5625 298.375 127.992188 C 298.738281 130.417969 299.035156 132.855469 299.277344 135.296875 C 299.519531 137.742188 299.699219 140.1875 299.820312 142.640625 C 299.941406 145.089844 300 147.546875 300 150 Z M 300 150 " clip-rule="nonzero"/></clipPath><linearGradient x1="0" gradientTransform="matrix(299.999988, 0, 0, 299.999988, 0.000006, 0)" y1="0" x2="1.004902" gradientUnits="userSpaceOnUse" y2="0.995049" id="id2"><stop stop-opacity="1" stop-color="rgb(92.498779%, 79.998779%, 40.79895%)" offset="0"/><stop stop-opacity="1" stop-color="rgb(92.50946%, 79.925537%, 40.66925%)" offset="0.0078125"/><stop stop-opacity="1" stop-color="rgb(92.530823%, 79.780579%, 40.408325%)" offset="0.015625"/><stop stop-opacity="1" stop-color="rgb(92.553711%, 79.63562%, 40.148926%)" offset="0.0234375"/><stop stop-opacity="1" stop-color="rgb(92.575073%, 79.490662%, 39.888%)" offset="0.03125"/><stop stop-opacity="1" stop-color="rgb(92.596436%, 79.345703%, 39.628601%)" offset="0.0390625"/><stop stop-opacity="1" stop-color="rgb(92.617798%, 79.200745%, 39.367676%)" offset="0.046875"/><stop stop-opacity="1" stop-color="rgb(92.63916%, 79.055786%, 39.108276%)" offset="0.0546875"/><stop stop-opacity="1" stop-color="rgb(92.660522%, 78.909302%, 38.847351%)" offset="0.0625"/><stop stop-opacity="1" stop-color="rgb(92.683411%, 78.764343%, 38.587952%)" offset="0.0703125"/><stop stop-opacity="1" stop-color="rgb(92.704773%, 78.619385%, 38.327026%)" offset="0.078125"/><stop stop-opacity="1" stop-color="rgb(92.726135%, 78.474426%, 38.067627%)" offset="0.0859375"/><stop stop-opacity="1" stop-color="rgb(92.747498%, 78.329468%, 37.806702%)" offset="0.09375"/><stop stop-opacity="1" stop-color="rgb(92.76886%, 78.184509%, 37.547302%)" offset="0.101562"/><stop stop-opacity="1" stop-color="rgb(92.790222%, 78.039551%, 37.286377%)" offset="0.109375"/><stop stop-opacity="1" stop-color="rgb(92.81311%, 77.894592%, 37.026978%)" offset="0.117188"/><stop stop-opacity="1" stop-color="rgb(92.834473%, 77.748108%, 36.766052%)" offset="0.125"/><stop stop-opacity="1" stop-color="rgb(92.855835%, 77.603149%, 36.506653%)" offset="0.132812"/><stop stop-opacity="1" stop-color="rgb(92.877197%, 77.458191%, 36.245728%)" offset="0.140625"/><stop stop-opacity="1" stop-color="rgb(92.89856%, 77.313232%, 35.986328%)" offset="0.148438"/><stop stop-opacity="1" stop-color="rgb(92.919922%, 77.168274%, 35.725403%)" offset="0.15625"/><stop stop-opacity="1" stop-color="rgb(92.94281%, 77.023315%, 35.466003%)" offset="0.164062"/><stop stop-opacity="1" stop-color="rgb(92.964172%, 76.878357%, 35.205078%)" offset="0.171875"/><stop stop-opacity="1" stop-color="rgb(92.985535%, 76.733398%, 34.944153%)" offset="0.179688"/><stop stop-opacity="1" stop-color="rgb(93.006897%, 76.58844%, 34.684753%)" offset="0.1875"/><stop stop-opacity="1" stop-color="rgb(93.028259%, 76.441956%, 34.423828%)" offset="0.195312"/><stop stop-opacity="1" stop-color="rgb(93.049622%, 76.296997%, 34.164429%)" offset="0.203125"/><stop stop-opacity="1" stop-color="rgb(93.07251%, 76.152039%, 33.903503%)" offset="0.210938"/><stop stop-opacity="1" stop-color="rgb(93.093872%, 76.00708%, 33.644104%)" offset="0.21875"/><stop stop-opacity="1" stop-color="rgb(93.115234%, 75.862122%, 33.383179%)" offset="0.226563"/><stop stop-opacity="1" stop-color="rgb(93.136597%, 75.717163%, 33.123779%)" offset="0.234375"/><stop stop-opacity="1" stop-color="rgb(93.157959%, 75.572205%, 32.862854%)" offset="0.242188"/><stop stop-opacity="1" stop-color="rgb(93.179321%, 75.427246%, 32.603455%)" offset="0.25"/><stop stop-opacity="1" stop-color="rgb(93.202209%, 75.280762%, 32.342529%)" offset="0.257812"/><stop stop-opacity="1" stop-color="rgb(93.223572%, 75.135803%, 32.08313%)" offset="0.265625"/><stop stop-opacity="1" stop-color="rgb(93.244934%, 74.990845%, 31.822205%)" offset="0.273438"/><stop stop-opacity="1" stop-color="rgb(93.266296%, 74.845886%, 31.562805%)" offset="0.28125"/><stop stop-opacity="1" stop-color="rgb(93.287659%, 74.700928%, 31.30188%)" offset="0.289062"/><stop stop-opacity="1" stop-color="rgb(93.309021%, 74.555969%, 31.04248%)" offset="0.296875"/><stop stop-opacity="1" stop-color="rgb(93.331909%, 74.411011%, 30.781555%)" offset="0.304688"/><stop stop-opacity="1" stop-color="rgb(93.353271%, 74.266052%, 30.522156%)" offset="0.3125"/><stop stop-opacity="1" stop-color="rgb(93.374634%, 74.119568%, 30.26123%)" offset="0.320312"/><stop stop-opacity="1" stop-color="rgb(93.395996%, 73.974609%, 30.001831%)" offset="0.328125"/><stop stop-opacity="1" stop-color="rgb(93.417358%, 73.829651%, 29.740906%)" offset="0.335937"/><stop stop-opacity="1" stop-color="rgb(93.438721%, 73.684692%, 29.481506%)" offset="0.34375"/><stop stop-opacity="1" stop-color="rgb(93.461609%, 73.539734%, 29.220581%)" offset="0.351562"/><stop stop-opacity="1" stop-color="rgb(93.482971%, 73.394775%, 28.961182%)" offset="0.359375"/><stop stop-opacity="1" stop-color="rgb(93.504333%, 73.249817%, 28.700256%)" offset="0.367188"/><stop stop-opacity="1" stop-color="rgb(93.525696%, 73.104858%, 28.440857%)" offset="0.375"/><stop stop-opacity="1" stop-color="rgb(93.547058%, 72.9599%, 28.179932%)" offset="0.382812"/><stop stop-opacity="1" stop-color="rgb(93.56842%, 72.813416%, 27.920532%)" offset="0.390625"/><stop stop-opacity="1" stop-color="rgb(93.591309%, 72.668457%, 27.659607%)" offset="0.398438"/><stop stop-opacity="1" stop-color="rgb(93.612671%, 72.523499%, 27.400208%)" offset="0.40625"/><stop stop-opacity="1" stop-color="rgb(93.634033%, 72.37854%, 27.139282%)" offset="0.414062"/><stop stop-opacity="1" stop-color="rgb(93.655396%, 72.233582%, 26.879883%)" offset="0.421875"/><stop stop-opacity="1" stop-color="rgb(93.676758%, 72.088623%, 26.618958%)" offset="0.429688"/><stop stop-opacity="1" stop-color="rgb(93.69812%, 71.943665%, 26.359558%)" offset="0.4375"/><stop stop-opacity="1" stop-color="rgb(93.721008%, 71.798706%, 26.098633%)" offset="0.445312"/><stop stop-opacity="1" stop-color="rgb(93.742371%, 71.652222%, 25.839233%)" offset="0.453125"/><stop stop-opacity="1" stop-color="rgb(93.763733%, 71.507263%, 25.578308%)" offset="0.460938"/><stop stop-opacity="1" stop-color="rgb(93.785095%, 71.362305%, 25.318909%)" offset="0.46875"/><stop stop-opacity="1" stop-color="rgb(93.806458%, 71.217346%, 25.057983%)" offset="0.476563"/><stop stop-opacity="1" stop-color="rgb(93.82782%, 71.072388%, 24.798584%)" offset="0.484375"/><stop stop-opacity="1" stop-color="rgb(93.850708%, 70.927429%, 24.537659%)" offset="0.492188"/><stop stop-opacity="1" stop-color="rgb(93.87207%, 70.782471%, 24.278259%)" offset="0.497537"/><stop stop-opacity="1" stop-color="rgb(93.882751%, 70.710754%, 24.14856%)" offset="0.5"/><stop stop-opacity="1" stop-color="rgb(93.893433%, 70.637512%, 24.017334%)" offset="0.502463"/><stop stop-opacity="1" stop-color="rgb(93.904114%, 70.56427%, 23.887634%)" offset="0.507812"/><stop stop-opacity="1" stop-color="rgb(93.914795%, 70.491028%, 23.757935%)" offset="0.515625"/><stop stop-opacity="1" stop-color="rgb(93.936157%, 70.346069%, 23.497009%)" offset="0.523438"/><stop stop-opacity="1" stop-color="rgb(93.95752%, 70.201111%, 23.23761%)" offset="0.53125"/><stop stop-opacity="1" stop-color="rgb(93.980408%, 70.056152%, 22.976685%)" offset="0.539062"/><stop stop-opacity="1" stop-color="rgb(94.00177%, 69.911194%, 22.717285%)" offset="0.546875"/><stop stop-opacity="1" stop-color="rgb(94.023132%, 69.766235%, 22.45636%)" offset="0.554688"/><stop stop-opacity="1" stop-color="rgb(94.044495%, 69.621277%, 22.19696%)" offset="0.5625"/><stop stop-opacity="1" stop-color="rgb(94.065857%, 69.476318%, 21.936035%)" offset="0.570312"/><stop stop-opacity="1" stop-color="rgb(94.087219%, 69.33136%, 21.676636%)" offset="0.578125"/><stop stop-opacity="1" stop-color="rgb(94.110107%, 69.184875%, 21.41571%)" offset="0.585938"/><stop stop-opacity="1" stop-color="rgb(94.13147%, 69.039917%, 21.156311%)" offset="0.59375"/><stop stop-opacity="1" stop-color="rgb(94.152832%, 68.894958%, 20.895386%)" offset="0.601562"/><stop stop-opacity="1" stop-color="rgb(94.174194%, 68.75%, 20.635986%)" offset="0.609375"/><stop stop-opacity="1" stop-color="rgb(94.195557%, 68.605042%, 20.375061%)" offset="0.617188"/><stop stop-opacity="1" stop-color="rgb(94.216919%, 68.460083%, 20.115662%)" offset="0.625"/><stop stop-opacity="1" stop-color="rgb(94.239807%, 68.315125%, 19.854736%)" offset="0.632812"/><stop stop-opacity="1" stop-color="rgb(94.261169%, 68.170166%, 19.595337%)" offset="0.640625"/><stop stop-opacity="1" stop-color="rgb(94.282532%, 68.023682%, 19.334412%)" offset="0.648438"/><stop stop-opacity="1" stop-color="rgb(94.303894%, 67.878723%, 19.073486%)" offset="0.65625"/><stop stop-opacity="1" stop-color="rgb(94.325256%, 67.733765%, 18.814087%)" offset="0.664062"/><stop stop-opacity="1" stop-color="rgb(94.346619%, 67.588806%, 18.553162%)" offset="0.671875"/><stop stop-opacity="1" stop-color="rgb(94.369507%, 67.443848%, 18.293762%)" offset="0.679687"/><stop stop-opacity="1" stop-color="rgb(94.390869%, 67.298889%, 18.032837%)" offset="0.6875"/><stop stop-opacity="1" stop-color="rgb(94.412231%, 67.153931%, 17.773438%)" offset="0.695312"/><stop stop-opacity="1" stop-color="rgb(94.433594%, 67.008972%, 17.512512%)" offset="0.703125"/><stop stop-opacity="1" stop-color="rgb(94.454956%, 66.862488%, 17.253113%)" offset="0.710937"/><stop stop-opacity="1" stop-color="rgb(94.476318%, 66.717529%, 16.992188%)" offset="0.71875"/><stop stop-opacity="1" stop-color="rgb(94.499207%, 66.572571%, 16.732788%)" offset="0.726562"/><stop stop-opacity="1" stop-color="rgb(94.520569%, 66.427612%, 16.471863%)" offset="0.734375"/><stop stop-opacity="1" stop-color="rgb(94.541931%, 66.282654%, 16.212463%)" offset="0.742187"/><stop stop-opacity="1" stop-color="rgb(94.563293%, 66.137695%, 15.951538%)" offset="0.75"/><stop stop-opacity="1" stop-color="rgb(94.584656%, 65.992737%, 15.692139%)" offset="0.757812"/><stop stop-opacity="1" stop-color="rgb(94.606018%, 65.847778%, 15.431213%)" offset="0.765625"/><stop stop-opacity="1" stop-color="rgb(94.628906%, 65.70282%, 15.171814%)" offset="0.773437"/><stop stop-opacity="1" stop-color="rgb(94.650269%, 65.556335%, 14.910889%)" offset="0.78125"/><stop stop-opacity="1" stop-color="rgb(94.671631%, 65.411377%, 14.651489%)" offset="0.789062"/><stop stop-opacity="1" stop-color="rgb(94.692993%, 65.266418%, 14.390564%)" offset="0.796875"/><stop stop-opacity="1" stop-color="rgb(94.714355%, 65.12146%, 14.131165%)" offset="0.804688"/><stop stop-opacity="1" stop-color="rgb(94.735718%, 64.976501%, 13.870239%)" offset="0.8125"/><stop stop-opacity="1" stop-color="rgb(94.758606%, 64.831543%, 13.61084%)" offset="0.820313"/><stop stop-opacity="1" stop-color="rgb(94.779968%, 64.686584%, 13.349915%)" offset="0.828125"/><stop stop-opacity="1" stop-color="rgb(94.801331%, 64.541626%, 13.090515%)" offset="0.835938"/><stop stop-opacity="1" stop-color="rgb(94.822693%, 64.395142%, 12.82959%)" offset="0.84375"/><stop stop-opacity="1" stop-color="rgb(94.844055%, 64.250183%, 12.57019%)" offset="0.851563"/><stop stop-opacity="1" stop-color="rgb(94.865417%, 64.105225%, 12.309265%)" offset="0.859375"/><stop stop-opacity="1" stop-color="rgb(94.888306%, 63.960266%, 12.049866%)" offset="0.867188"/><stop stop-opacity="1" stop-color="rgb(94.909668%, 63.815308%, 11.78894%)" offset="0.875"/><stop stop-opacity="1" stop-color="rgb(94.93103%, 63.670349%, 11.529541%)" offset="0.882813"/><stop stop-opacity="1" stop-color="rgb(94.952393%, 63.525391%, 11.268616%)" offset="0.890625"/><stop stop-opacity="1" stop-color="rgb(94.973755%, 63.380432%, 11.009216%)" offset="0.898438"/><stop stop-opacity="1" stop-color="rgb(94.995117%, 63.233948%, 10.748291%)" offset="0.90625"/><stop stop-opacity="1" stop-color="rgb(95.018005%, 63.088989%, 10.488892%)" offset="0.914063"/><stop stop-opacity="1" stop-color="rgb(95.039368%, 62.944031%, 10.227966%)" offset="0.921875"/><stop stop-opacity="1" stop-color="rgb(95.06073%, 62.799072%, 9.968567%)" offset="0.929688"/><stop stop-opacity="1" stop-color="rgb(95.082092%, 62.654114%, 9.707642%)" offset="0.9375"/><stop stop-opacity="1" stop-color="rgb(95.103455%, 62.509155%, 9.448242%)" offset="0.945313"/><stop stop-opacity="1" stop-color="rgb(95.124817%, 62.364197%, 9.187317%)" offset="0.953125"/><stop stop-opacity="1" stop-color="rgb(95.147705%, 62.219238%, 8.927917%)" offset="0.960938"/><stop stop-opacity="1" stop-color="rgb(95.169067%, 62.07428%, 8.666992%)" offset="0.96875"/><stop stop-opacity="1" stop-color="rgb(95.19043%, 61.927795%, 8.407593%)" offset="0.976562"/><stop stop-opacity="1" stop-color="rgb(95.211792%, 61.782837%, 8.146667%)" offset="0.984375"/><stop stop-opacity="1" stop-color="rgb(95.233154%, 61.637878%, 7.887268%)" offset="0.992188"/><stop stop-opacity="1" stop-color="rgb(95.254517%, 61.49292%, 7.626343%)" offset="1"/></linearGradient><clipPath id="id3"><path d="M 51 85 L 70.871094 85 L 70.871094 215 L 51 215 Z M 51 85 " clip-rule="nonzero"/></clipPath><clipPath id="id4"><path d="M 229.125 85 L 249 85 L 249 215 L 229.125 215 Z M 229.125 85 " clip-rule="nonzero"/></clipPath></defs><path fill="#edc209" d="M 300 150 C 300 152.453125 299.941406 154.910156 299.820312 157.359375 C 299.699219 159.8125 299.519531 162.257812 299.277344 164.703125 C 299.035156 167.144531 298.738281 169.582031 298.375 172.007812 C 298.015625 174.4375 297.597656 176.855469 297.117188 179.261719 C 296.640625 181.671875 296.101562 184.066406 295.503906 186.445312 C 294.90625 188.828125 294.253906 191.195312 293.539062 193.542969 C 292.828125 195.890625 292.058594 198.222656 291.230469 200.535156 C 290.40625 202.84375 289.519531 205.132812 288.582031 207.402344 C 287.640625 209.671875 286.648438 211.914062 285.597656 214.132812 C 284.546875 216.351562 283.445312 218.542969 282.289062 220.710938 C 281.132812 222.875 279.921875 225.007812 278.660156 227.117188 C 277.398438 229.222656 276.085938 231.292969 274.71875 233.335938 C 273.355469 235.375 271.945312 237.382812 270.480469 239.355469 C 269.019531 241.328125 267.507812 243.261719 265.953125 245.160156 C 264.394531 247.054688 262.792969 248.914062 261.144531 250.734375 C 259.492188 252.554688 257.800781 254.332031 256.066406 256.066406 C 254.332031 257.800781 252.554688 259.492188 250.734375 261.144531 C 248.914062 262.792969 247.054688 264.394531 245.160156 265.953125 C 243.261719 267.507812 241.328125 269.019531 239.355469 270.480469 C 237.382812 271.945312 235.375 273.355469 233.335938 274.71875 C 231.292969 276.085938 229.222656 277.398438 227.117188 278.660156 C 225.007812 279.921875 222.875 281.132812 220.710938 282.289062 C 218.542969 283.445312 216.351562 284.546875 214.132812 285.597656 C 211.914062 286.648438 209.671875 287.640625 207.402344 288.582031 C 205.132812 289.519531 202.84375 290.40625 200.535156 291.230469 C 198.222656 292.058594 195.890625 292.828125 193.542969 293.539062 C 191.195312 294.253906 188.828125 294.90625 186.445312 295.503906 C 184.066406 296.101562 181.671875 296.640625 179.261719 297.117188 C 176.855469 297.597656 174.4375 298.015625 172.007812 298.375 C 169.582031 298.738281 167.144531 299.035156 164.703125 299.277344 C 162.257812 299.519531 159.8125 299.699219 157.359375 299.820312 C 154.910156 299.941406 152.453125 300 150 300 C 147.546875 300 145.089844 299.941406 142.640625 299.820312 C 140.1875 299.699219 137.742188 299.519531 135.296875 299.277344 C 132.855469 299.035156 130.417969 298.738281 127.992188 298.375 C 125.5625 298.015625 123.144531 297.597656 120.738281 297.117188 C 118.328125 296.640625 115.933594 296.101562 113.554688 295.503906 C 111.171875 294.90625 108.804688 294.253906 106.457031 293.539062 C 104.109375 292.828125 101.777344 292.058594 99.464844 291.230469 C 97.15625 290.40625 94.867188 289.519531 92.597656 288.582031 C 90.328125 287.640625 88.085938 286.648438 85.867188 285.597656 C 83.648438 284.546875 81.457031 283.445312 79.289062 282.289062 C 77.125 281.132812 74.988281 279.921875 72.882812 278.660156 C 70.777344 277.398438 68.707031 276.085938 66.664062 274.71875 C 64.625 273.355469 62.617188 271.945312 60.644531 270.480469 C 58.671875 269.019531 56.738281 267.507812 54.839844 265.953125 C 52.941406 264.394531 51.085938 262.792969 49.265625 261.144531 C 47.445312 259.492188 45.667969 257.800781 43.933594 256.066406 C 42.199219 254.332031 40.507812 252.554688 38.855469 250.734375 C 37.207031 248.914062 35.605469 247.054688 34.046875 245.160156 C 32.492188 243.261719 30.980469 241.328125 29.519531 239.355469 C 28.054688 237.382812 26.644531 235.375 25.28125 233.335938 C 23.914062 231.292969 22.601562 229.222656 21.339844 227.117188 C 20.078125 225.007812 18.867188 222.875 17.710938 220.710938 C 16.554688 218.542969 15.453125 216.351562 14.402344 214.132812 C 13.351562 211.914062 12.359375 209.671875 11.417969 207.402344 C 10.480469 205.132812 9.59375 202.84375 8.769531 200.535156 C 7.941406 198.222656 7.171875 195.890625 6.457031 193.542969 C 5.746094 191.195312 5.089844 188.828125 4.496094 186.445312 C 3.898438 184.066406 3.359375 181.671875 2.882812 179.261719 C 2.402344 176.855469 1.984375 174.4375 1.625 172.007812 C 1.261719 169.582031 0.964844 167.144531 0.722656 164.703125 C 0.480469 162.257812 0.300781 159.8125 0.179688 157.359375 C 0.0585938 154.910156 0 152.453125 0 150 C 0 147.546875 0.0585938 145.089844 0.179688 142.640625 C 0.300781 140.1875 0.480469 137.742188 0.722656 135.296875 C 0.964844 132.855469 1.261719 130.417969 1.625 127.992188 C 1.984375 125.5625 2.402344 123.144531 2.882812 120.738281 C 3.359375 118.328125 3.898438 115.933594 4.496094 113.554688 C 5.089844 111.171875 5.746094 108.804688 6.457031 106.457031 C 7.171875 104.109375 7.941406 101.777344 8.769531 99.464844 C 9.59375 97.15625 10.480469 94.867188 11.417969 92.597656 C 12.359375 90.328125 13.351562 88.085938 14.402344 85.867188 C 15.453125 83.648438 16.554688 81.457031 17.710938 79.289062 C 18.867188 77.125 20.078125 74.988281 21.339844 72.882812 C 22.601562 70.777344 23.914062 68.707031 25.28125 66.664062 C 26.644531 64.625 28.054688 62.617188 29.519531 60.644531 C 30.980469 58.671875 32.492188 56.738281 34.046875 54.839844 C 35.605469 52.945312 37.207031 51.085938 38.855469 49.265625 C 40.507812 47.445312 42.199219 45.667969 43.933594 43.933594 C 45.667969 42.199219 47.445312 40.507812 49.265625 38.855469 C 51.085938 37.207031 52.941406 35.605469 54.839844 34.046875 C 56.738281 32.492188 58.671875 30.980469 60.644531 29.519531 C 62.617188 28.054688 64.625 26.644531 66.664062 25.28125 C 68.707031 23.914062 70.777344 22.601562 72.882812 21.339844 C 74.988281 20.078125 77.125 18.867188 79.289062 17.710938 C 81.457031 16.554688 83.648438 15.453125 85.867188 14.402344 C 88.085938 13.351562 90.328125 12.359375 92.597656 11.417969 C 94.867188 10.480469 97.15625 9.59375 99.464844 8.769531 C 101.777344 7.941406 104.109375 7.171875 106.457031 6.457031 C 108.804688 5.746094 111.171875 5.089844 113.554688 4.496094 C 115.933594 3.898438 118.328125 3.359375 120.738281 2.882812 C 123.144531 2.402344 125.5625 1.984375 127.992188 1.625 C 130.417969 1.261719 132.855469 0.964844 135.296875 0.722656 C 137.742188 0.480469 140.1875 0.300781 142.640625 0.179688 C 145.089844 0.0585938 147.546875 0 150 0 C 152.453125 0 154.910156 0.0585938 157.359375 0.179688 C 159.8125 0.300781 162.257812 0.480469 164.703125 0.722656 C 167.144531 0.964844 169.582031 1.261719 172.007812 1.625 C 174.4375 1.984375 176.855469 2.402344 179.261719 2.882812 C 181.671875 3.359375 184.066406 3.898438 186.445312 4.496094 C 188.828125 5.089844 191.195312 5.746094 193.542969 6.457031 C 195.890625 7.171875 198.222656 7.941406 200.535156 8.769531 C 202.84375 9.59375 205.132812 10.480469 207.402344 11.417969 C 209.671875 12.359375 211.914062 13.351562 214.132812 14.402344 C 216.351562 15.453125 218.542969 16.554688 220.710938 17.710938 C 222.875 18.867188 225.011719 20.078125 227.117188 21.339844 C 229.222656 22.601562 231.292969 23.914062 233.335938 25.28125 C 235.375 26.644531 237.382812 28.054688 239.355469 29.519531 C 241.328125 30.980469 243.261719 32.492188 245.160156 34.046875 C 247.054688 35.605469 248.914062 37.207031 250.734375 38.855469 C 252.554688 40.507812 254.332031 42.199219 256.066406 43.933594 C 257.800781 45.667969 259.492188 47.445312 261.144531 49.265625 C 262.792969 51.085938 264.394531 52.945312 265.953125 54.839844 C 267.507812 56.738281 269.019531 58.671875 270.480469 60.644531 C 271.945312 62.617188 273.355469 64.625 274.71875 66.664062 C 276.085938 68.707031 277.398438 70.777344 278.660156 72.882812 C 279.921875 74.988281 281.132812 77.125 282.289062 79.289062 C 283.445312 81.457031 284.546875 83.648438 285.597656 85.867188 C 286.648438 88.085938 287.640625 90.328125 288.582031 92.597656 C 289.519531 94.867188 290.40625 97.15625 291.230469 99.464844 C 292.058594 101.777344 292.828125 104.109375 293.542969 106.457031 C 294.253906 108.804688 294.90625 111.171875 295.503906 113.554688 C 296.101562 115.933594 296.640625 118.328125 297.117188 120.738281 C 297.597656 123.144531 298.015625 125.5625 298.375 127.992188 C 298.738281 130.417969 299.035156 132.855469 299.277344 135.296875 C 299.519531 137.742188 299.699219 140.1875 299.820312 142.640625 C 299.941406 145.089844 300 147.546875 300 150 Z M 300 150 " fill-opacity="1" fill-rule="nonzero"/><g clip-path="url(#id1)"><rect x="-30" fill="url(#id2)" width="360" y="-29.999999" height="359.999986"/></g><g clip-path="url(#id3)"><path fill="#454545" d="M 68.5625 214.878906 C 67.832031 214.878906 67.128906 214.480469 66.769531 213.785156 C 46.113281 173.851562 46.113281 126.167969 66.769531 86.230469 C 67.28125 85.242188 68.496094 84.855469 69.488281 85.367188 C 70.476562 85.878906 70.863281 87.097656 70.351562 88.089844 C 50.296875 126.863281 50.296875 173.15625 70.351562 211.929688 C 70.863281 212.917969 70.476562 214.136719 69.488281 214.652344 C 69.191406 214.804688 68.875 214.878906 68.5625 214.878906 " fill-opacity="1" fill-rule="nonzero"/></g><g fill="#454545" fill-opacity="1"><g transform="translate(81.517572, 176.999986)"><g><path d="M 13.296875 -19.515625 L 0.984375 -38.21875 L 12.8125 -38.21875 L 20.234375 -26.046875 L 27.71875 -38.21875 L 39.546875 -38.21875 L 27.109375 -19.515625 L 40.125 0 L 28.265625 0 L 20.234375 -13.09375 L 12.171875 0 L 0.34375 0 Z M 13.296875 -19.515625 "/></g></g></g><g fill="#454545" fill-opacity="1"><g transform="translate(140.166638, 176.999986)"><g><path d="M 15.6875 -7.34375 C 14.5 -2.738281 12.492188 2.71875 9.671875 9.03125 L 2.15625 9.03125 C 3.632812 2.96875 4.785156 -2.753906 5.609375 -8.140625 L 15.171875 -8.140625 Z M 15.6875 -7.34375 "/></g></g></g><g fill="#454545" fill-opacity="1"><g transform="translate(178.650816, 176.999986)"><g><path d="M 0 -38.21875 L 11.421875 -38.21875 L 18.625 -16.71875 C 19.238281 -14.84375 19.660156 -12.628906 19.890625 -10.078125 L 20.09375 -10.078125 C 20.34375 -12.429688 20.832031 -14.644531 21.5625 -16.71875 L 28.640625 -38.21875 L 39.8125 -38.21875 L 23.65625 4.890625 C 22.175781 8.878906 20.0625 11.863281 17.3125 13.84375 C 14.5625 15.820312 11.351562 16.8125 7.6875 16.8125 C 5.882812 16.8125 4.117188 16.617188 2.390625 16.234375 L 2.390625 7.96875 C 3.640625 8.257812 5.007812 8.40625 6.5 8.40625 C 8.34375 8.40625 9.953125 7.84375 11.328125 6.71875 C 12.710938 5.59375 13.789062 3.890625 14.5625 1.609375 L 15.171875 -0.28125 Z M 0 -38.21875 "/></g></g></g><g clip-path="url(#id4)"><path fill="#454545" d="M 231.433594 214.878906 C 232.164062 214.878906 232.867188 214.480469 233.226562 213.785156 C 253.882812 173.851562 253.882812 126.167969 233.226562 86.230469 C 232.714844 85.242188 231.496094 84.855469 230.507812 85.367188 C 229.519531 85.878906 229.132812 87.097656 229.644531 88.089844 C 249.699219 126.863281 249.699219 173.15625 229.644531 211.929688 C 229.132812 212.917969 229.519531 214.136719 230.507812 214.652344 C 230.804688 214.804688 231.121094 214.878906 231.433594 214.878906 " fill-opacity="1" fill-rule="nonzero"/></g></svg>