<svg xmlns="http://www.w3.org/2000/svg" xmlns:xlink="http://www.w3.org/1999/xlink" width="400" zoomAndPan="magnify" viewBox="0 0 300 299.999988" height="400" preserveAspectRatio="xMidYMid meet" version="1.0"><defs><g/><clipPath id="id1"><path d="M 300 150 C 300 152.453125 299.941406 154.910156 299.820312 157.359375 C 299.699219 159.8125 299.519531 162.257812 299.277344 164.703125 C 299.035156 167.144531 298.738281 169.582031 298.375 172.007812 C 298.015625 174.4375 297.597656 176.855469 297.117188 179.261719 C 296.640625 181.671875 296.101562 184.066406 295.503906 186.445312 C 294.90625 188.828125 294.253906 191.195312 293.542969 193.542969 C 292.828125 195.890625 292.058594 198.222656 291.230469 200.535156 C 290.40625 202.84375 289.519531 205.132812 288.582031 207.402344 C 287.640625 209.671875 286.648438 211.914062 285.597656 214.132812 C 284.546875 216.351562 283.445312 218.542969 282.289062 220.710938 C 281.132812 222.875 279.921875 225.011719 278.660156 227.117188 C 277.398438 229.222656 276.085938 231.292969 274.71875 233.335938 C 273.355469 235.375 271.945312 237.382812 270.480469 239.355469 C 269.019531 241.328125 267.507812 243.261719 265.953125 245.160156 C 264.394531 247.058594 262.792969 248.914062 261.144531 250.734375 C 259.492188 252.554688 257.800781 254.332031 256.066406 256.066406 C 254.332031 257.800781 252.554688 259.496094 250.734375 261.144531 C 248.914062 262.792969 247.054688 264.394531 245.160156 265.953125 C 243.261719 267.507812 241.328125 269.019531 239.355469 270.480469 C 237.382812 271.945312 235.375 273.355469 233.335938 274.71875 C 231.292969 276.085938 229.222656 277.398438 227.117188 278.660156 C 225.007812 279.921875 222.875 281.132812 220.710938 282.289062 C 218.542969 283.445312 216.351562 284.550781 214.132812 285.597656 C 211.914062 286.648438 209.671875 287.640625 207.402344 288.582031 C 205.132812 289.519531 202.84375 290.40625 200.535156 291.230469 C 198.222656 292.058594 195.890625 292.828125 193.542969 293.542969 C 191.195312 294.253906 188.828125 294.910156 186.445312 295.503906 C 184.066406 296.101562 181.671875 296.640625 179.261719 297.117188 C 176.855469 297.597656 174.4375 298.015625 172.007812 298.375 C 169.582031 298.738281 167.144531 299.039062 164.703125 299.277344 C 162.257812 299.519531 159.8125 299.699219 157.359375 299.820312 C 154.910156 299.941406 152.453125 300 150 300 C 147.546875 300 145.089844 299.941406 142.640625 299.820312 C 140.1875 299.699219 137.742188 299.519531 135.296875 299.277344 C 132.855469 299.039062 130.417969 298.738281 127.992188 298.375 C 125.5625 298.015625 123.144531 297.597656 120.738281 297.117188 C 118.328125 296.640625 115.933594 296.101562 113.554688 295.503906 C 111.171875 294.910156 108.804688 294.253906 106.457031 293.542969 C 104.109375 292.828125 101.777344 292.058594 99.464844 291.230469 C 97.15625 290.40625 94.867188 289.519531 92.597656 288.582031 C 90.328125 287.640625 88.085938 286.648438 85.867188 285.597656 C 83.648438 284.550781 81.457031 283.445312 79.289062 282.289062 C 77.125 281.132812 74.988281 279.921875 72.882812 278.660156 C 70.777344 277.398438 68.707031 276.085938 66.664062 274.71875 C 64.625 273.355469 62.617188 271.945312 60.644531 270.480469 C 58.671875 269.019531 56.738281 267.507812 54.839844 265.953125 C 52.945312 264.394531 51.085938 262.792969 49.265625 261.144531 C 47.445312 259.496094 45.667969 257.800781 43.933594 256.066406 C 42.199219 254.332031 40.507812 252.554688 38.855469 250.734375 C 37.207031 248.914062 35.605469 247.058594 34.046875 245.160156 C 32.492188 243.261719 30.980469 241.328125 29.519531 239.355469 C 28.054688 237.382812 26.644531 235.375 25.28125 233.335938 C 23.914062 231.292969 22.601562 229.222656 21.339844 227.117188 C 20.078125 225.011719 18.867188 222.875 17.710938 220.710938 C 16.554688 218.542969 15.453125 216.351562 14.402344 214.132812 C 13.351562 211.914062 12.359375 209.671875 11.417969 207.402344 C 10.480469 205.132812 9.59375 202.84375 8.769531 200.535156 C 7.941406 198.222656 7.171875 195.890625 6.457031 193.542969 C 5.746094 191.195312 5.09375 188.828125 4.496094 186.445312 C 3.898438 184.066406 3.359375 181.671875 2.882812 179.261719 C 2.402344 176.855469 1.984375 174.4375 1.625 172.007812 C 1.261719 169.582031 0.964844 167.144531 0.722656 164.703125 C 0.480469 162.257812 0.300781 159.8125 0.179688 157.359375 C 0.0585938 154.910156 0 152.453125 0 150 C 0 147.546875 0.0585938 145.09375 0.179688 142.640625 C 0.300781 140.1875 0.480469 137.742188 0.722656 135.296875 C 0.964844 132.855469 1.261719 130.417969 1.625 127.992188 C 1.984375 125.5625 2.402344 123.144531 2.882812 120.738281 C 3.359375 118.328125 3.898438 115.933594 4.496094 113.554688 C 5.09375 111.171875 5.746094 108.804688 6.457031 106.457031 C 7.171875 104.109375 7.941406 101.777344 8.769531 99.464844 C 9.59375 97.15625 10.480469 94.867188 11.417969 92.597656 C 12.359375 90.328125 13.351562 88.085938 14.402344 85.867188 C 15.453125 83.648438 16.554688 81.457031 17.710938 79.289062 C 18.867188 77.125 20.078125 74.992188 21.339844 72.882812 C 22.601562 70.777344 23.914062 68.707031 25.28125 66.664062 C 26.644531 64.625 28.054688 62.617188 29.519531 60.644531 C 30.980469 58.671875 32.492188 56.738281 34.046875 54.839844 C 35.605469 52.945312 37.207031 51.085938 38.855469 49.265625 C 40.507812 47.449219 42.199219 45.671875 43.933594 43.933594 C 45.667969 42.199219 47.445312 40.507812 49.265625 38.859375 C 51.085938 37.207031 52.945312 35.605469 54.839844 34.046875 C 56.738281 32.492188 58.671875 30.980469 60.644531 29.519531 C 62.617188 28.054688 64.625 26.644531 66.664062 25.28125 C 68.707031 23.914062 70.777344 22.601562 72.882812 21.339844 C 74.988281 20.078125 77.125 18.867188 79.289062 17.710938 C 81.457031 16.554688 83.648438 15.453125 85.867188 14.402344 C 88.085938 13.351562 90.328125 12.359375 92.597656 11.417969 C 94.867188 10.480469 97.15625 9.59375 99.464844 8.769531 C 101.777344 7.941406 104.109375 7.171875 106.457031 6.460938 C 108.804688 5.746094 111.171875 5.09375 113.554688 4.496094 C 115.933594 3.898438 118.328125 3.359375 120.738281 2.882812 C 123.144531 2.402344 125.5625 1.984375 127.992188 1.625 C 130.417969 1.261719 132.855469 0.964844 135.296875 0.722656 C 137.742188 0.480469 140.1875 0.300781 142.640625 0.179688 C 145.089844 0.0585938 147.546875 0 150 0 C 152.453125 0 154.910156 0.0585938 157.359375 0.179688 C 159.8125 0.300781 162.257812 0.480469 164.703125 0.722656 C 167.144531 0.964844 169.582031 1.261719 172.007812 1.625 C 174.4375 1.984375 176.855469 2.402344 179.261719 2.882812 C 181.671875 3.359375 184.066406 3.898438 186.445312 4.496094 C 188.828125 5.09375 191.195312 5.746094 193.542969 6.460938 C 195.890625 7.171875 198.222656 7.941406 200.535156 8.769531 C 202.84375 9.59375 205.132812 10.480469 207.402344 11.417969 C 209.671875 12.359375 211.914062 13.351562 214.132812 14.402344 C 216.351562 15.453125 218.542969 16.554688 220.710938 17.710938 C 222.875 18.867188 225.007812 20.078125 227.117188 21.339844 C 229.222656 22.601562 231.292969 23.914062 233.335938 25.28125 C 235.375 26.644531 237.382812 28.054688 239.355469 29.519531 C 241.328125 30.980469 243.261719 32.492188 245.160156 34.046875 C 247.054688 35.605469 248.914062 37.207031 250.734375 38.859375 C 252.554688 40.507812 254.332031 42.199219 256.066406 43.933594 C 257.800781 45.671875 259.492188 47.449219 261.144531 49.265625 C 262.792969 51.085938 264.394531 52.945312 265.953125 54.839844 C 267.507812 56.738281 269.019531 58.671875 270.480469 60.644531 C 271.945312 62.617188 273.355469 64.625 274.71875 66.664062 C 276.085938 68.707031 277.398438 70.777344 278.660156 72.882812 C 279.921875 74.992188 281.132812 77.125 282.289062 79.289062 C 283.445312 81.457031 284.546875 83.648438 285.597656 85.867188 C 286.648438 88.085938 287.640625 90.328125 288.582031 92.597656 C 289.519531 94.867188 290.40625 97.15625 291.230469 99.464844 C 292.058594 101.777344 292.828125 104.109375 293.539062 106.457031 C 294.253906 108.804688 294.90625 111.171875 295.503906 113.554688 C 296.101562 115.933594 296.640625 118.328125 297.117188 120.738281 C 297.597656 123.144531 298.015625 125.5625 298.375 127.992188 C 298.738281 130.417969 299.035156 132.855469 299.277344 135.296875 C 299.519531 137.742188 299.699219 140.1875 299.820312 142.640625 C 299.941406 145.09375 300 147.546875 300 150 Z M 300 150 " clip-rule="nonzero"/></clipPath><linearGradient x1="-0.00000000468728" gradientTransform="matrix(299.999988, 0, 0, 299.999988, 0.000006, 0.00012)" y1="-0.00000000464132" x2="1.004902" gradientUnits="userSpaceOnUse" y2="0.995049" id="id2"><stop stop-opacity="1" stop-color="rgb(10.198975%, 73.699951%, 61.199951%)" offset="0"/><stop stop-opacity="1" stop-color="rgb(10.244751%, 73.518372%, 61.286926%)" offset="0.015625"/><stop stop-opacity="1" stop-color="rgb(10.336304%, 73.155212%, 61.460876%)" offset="0.03125"/><stop stop-opacity="1" stop-color="rgb(10.426331%, 72.792053%, 61.634827%)" offset="0.046875"/><stop stop-opacity="1" stop-color="rgb(10.517883%, 72.428894%, 61.810303%)" offset="0.0625"/><stop stop-opacity="1" stop-color="rgb(10.609436%, 72.065735%, 61.984253%)" offset="0.078125"/><stop stop-opacity="1" stop-color="rgb(10.699463%, 71.704102%, 62.158203%)" offset="0.09375"/><stop stop-opacity="1" stop-color="rgb(10.791016%, 71.340942%, 62.333679%)" offset="0.109375"/><stop stop-opacity="1" stop-color="rgb(10.882568%, 70.977783%, 62.507629%)" offset="0.125"/><stop stop-opacity="1" stop-color="rgb(10.974121%, 70.614624%, 62.68158%)" offset="0.140625"/><stop stop-opacity="1" stop-color="rgb(11.064148%, 70.251465%, 62.857056%)" offset="0.15625"/><stop stop-opacity="1" stop-color="rgb(11.155701%, 69.889832%, 63.031006%)" offset="0.171875"/><stop stop-opacity="1" stop-color="rgb(11.247253%, 69.526672%, 63.204956%)" offset="0.1875"/><stop stop-opacity="1" stop-color="rgb(11.33728%, 69.163513%, 63.380432%)" offset="0.203125"/><stop stop-opacity="1" stop-color="rgb(11.428833%, 68.800354%, 63.554382%)" offset="0.21875"/><stop stop-opacity="1" stop-color="rgb(11.520386%, 68.437195%, 63.728333%)" offset="0.234375"/><stop stop-opacity="1" stop-color="rgb(11.610413%, 68.075562%, 63.903809%)" offset="0.25"/><stop stop-opacity="1" stop-color="rgb(11.701965%, 67.712402%, 64.077759%)" offset="0.265625"/><stop stop-opacity="1" stop-color="rgb(11.793518%, 67.349243%, 64.251709%)" offset="0.28125"/><stop stop-opacity="1" stop-color="rgb(11.885071%, 66.986084%, 64.427185%)" offset="0.296875"/><stop stop-opacity="1" stop-color="rgb(11.975098%, 66.622925%, 64.601135%)" offset="0.3125"/><stop stop-opacity="1" stop-color="rgb(12.06665%, 66.261292%, 64.775085%)" offset="0.328125"/><stop stop-opacity="1" stop-color="rgb(12.158203%, 65.898132%, 64.950562%)" offset="0.34375"/><stop stop-opacity="1" stop-color="rgb(12.24823%, 65.534973%, 65.124512%)" offset="0.359375"/><stop stop-opacity="1" stop-color="rgb(12.339783%, 65.171814%, 65.299988%)" offset="0.375"/><stop stop-opacity="1" stop-color="rgb(12.431335%, 64.808655%, 65.473938%)" offset="0.390625"/><stop stop-opacity="1" stop-color="rgb(12.521362%, 64.447021%, 65.647888%)" offset="0.40625"/><stop stop-opacity="1" stop-color="rgb(12.612915%, 64.083862%, 65.823364%)" offset="0.421875"/><stop stop-opacity="1" stop-color="rgb(12.704468%, 63.720703%, 65.997314%)" offset="0.4375"/><stop stop-opacity="1" stop-color="rgb(12.796021%, 63.357544%, 66.171265%)" offset="0.453125"/><stop stop-opacity="1" stop-color="rgb(12.886047%, 62.994385%, 66.346741%)" offset="0.46875"/><stop stop-opacity="1" stop-color="rgb(12.9776%, 62.632751%, 66.520691%)" offset="0.484375"/><stop stop-opacity="1" stop-color="rgb(13.069153%, 62.269592%, 66.694641%)" offset="0.497537"/><stop stop-opacity="1" stop-color="rgb(13.114929%, 62.088013%, 66.783142%)" offset="0.5"/><stop stop-opacity="1" stop-color="rgb(13.15918%, 61.906433%, 66.870117%)" offset="0.502463"/><stop stop-opacity="1" stop-color="rgb(13.204956%, 61.724854%, 66.957092%)" offset="0.515625"/><stop stop-opacity="1" stop-color="rgb(13.250732%, 61.543274%, 67.044067%)" offset="0.53125"/><stop stop-opacity="1" stop-color="rgb(13.342285%, 61.180115%, 67.218018%)" offset="0.546875"/><stop stop-opacity="1" stop-color="rgb(13.432312%, 60.818481%, 67.393494%)" offset="0.5625"/><stop stop-opacity="1" stop-color="rgb(13.523865%, 60.455322%, 67.567444%)" offset="0.578125"/><stop stop-opacity="1" stop-color="rgb(13.615417%, 60.092163%, 67.741394%)" offset="0.59375"/><stop stop-opacity="1" stop-color="rgb(13.70697%, 59.729004%, 67.91687%)" offset="0.609375"/><stop stop-opacity="1" stop-color="rgb(13.796997%, 59.365845%, 68.09082%)" offset="0.625"/><stop stop-opacity="1" stop-color="rgb(13.88855%, 59.004211%, 68.264771%)" offset="0.640625"/><stop stop-opacity="1" stop-color="rgb(13.980103%, 58.641052%, 68.440247%)" offset="0.65625"/><stop stop-opacity="1" stop-color="rgb(14.070129%, 58.277893%, 68.614197%)" offset="0.671875"/><stop stop-opacity="1" stop-color="rgb(14.161682%, 57.914734%, 68.788147%)" offset="0.6875"/><stop stop-opacity="1" stop-color="rgb(14.253235%, 57.551575%, 68.963623%)" offset="0.703125"/><stop stop-opacity="1" stop-color="rgb(14.344788%, 57.189941%, 69.137573%)" offset="0.71875"/><stop stop-opacity="1" stop-color="rgb(14.434814%, 56.826782%, 69.311523%)" offset="0.734375"/><stop stop-opacity="1" stop-color="rgb(14.526367%, 56.463623%, 69.487%)" offset="0.75"/><stop stop-opacity="1" stop-color="rgb(14.61792%, 56.100464%, 69.66095%)" offset="0.765625"/><stop stop-opacity="1" stop-color="rgb(14.707947%, 55.737305%, 69.836426%)" offset="0.78125"/><stop stop-opacity="1" stop-color="rgb(14.7995%, 55.374146%, 70.010376%)" offset="0.796875"/><stop stop-opacity="1" stop-color="rgb(14.891052%, 55.012512%, 70.184326%)" offset="0.8125"/><stop stop-opacity="1" stop-color="rgb(14.981079%, 54.649353%, 70.359802%)" offset="0.828125"/><stop stop-opacity="1" stop-color="rgb(15.072632%, 54.286194%, 70.533752%)" offset="0.84375"/><stop stop-opacity="1" stop-color="rgb(15.164185%, 53.923035%, 70.707703%)" offset="0.859375"/><stop stop-opacity="1" stop-color="rgb(15.255737%, 53.559875%, 70.883179%)" offset="0.875"/><stop stop-opacity="1" stop-color="rgb(15.345764%, 53.198242%, 71.057129%)" offset="0.890625"/><stop stop-opacity="1" stop-color="rgb(15.437317%, 52.835083%, 71.231079%)" offset="0.90625"/><stop stop-opacity="1" stop-color="rgb(15.52887%, 52.471924%, 71.406555%)" offset="0.921875"/><stop stop-opacity="1" stop-color="rgb(15.618896%, 52.108765%, 71.580505%)" offset="0.9375"/><stop stop-opacity="1" stop-color="rgb(15.710449%, 51.745605%, 71.754456%)" offset="0.953125"/><stop stop-opacity="1" stop-color="rgb(15.802002%, 51.383972%, 71.929932%)" offset="0.96875"/><stop stop-opacity="1" stop-color="rgb(15.892029%, 51.020813%, 72.103882%)" offset="0.984375"/><stop stop-opacity="1" stop-color="rgb(15.983582%, 50.657654%, 72.277832%)" offset="1"/></linearGradient><clipPath id="id3"><path d="M 199.953125 111.894531 L 211.914062 111.894531 L 211.914062 123.855469 L 199.953125 123.855469 Z M 199.953125 111.894531 " clip-rule="nonzero"/></clipPath></defs><path fill="#454545" d="M 300 150 C 300 152.453125 299.941406 154.910156 299.820312 157.359375 C 299.699219 159.8125 299.519531 162.257812 299.277344 164.703125 C 299.035156 167.144531 298.738281 169.582031 298.375 172.007812 C 298.015625 174.4375 297.597656 176.855469 297.117188 179.261719 C 296.640625 181.671875 296.101562 184.066406 295.503906 186.445312 C 294.90625 188.828125 294.253906 191.195312 293.539062 193.542969 C 292.828125 195.890625 292.058594 198.222656 291.230469 200.535156 C 290.40625 202.84375 289.519531 205.132812 288.582031 207.402344 C 287.640625 209.671875 286.648438 211.914062 285.597656 214.132812 C 284.546875 216.351562 283.445312 218.542969 282.289062 220.710938 C 281.132812 222.875 279.921875 225.011719 278.660156 227.117188 C 277.398438 229.222656 276.085938 231.292969 274.71875 233.335938 C 273.355469 235.375 271.945312 237.382812 270.480469 239.355469 C 269.019531 241.328125 267.507812 243.261719 265.953125 245.160156 C 264.394531 247.058594 262.792969 248.914062 261.144531 250.734375 C 259.492188 252.554688 257.800781 254.332031 256.066406 256.066406 C 254.332031 257.800781 252.554688 259.496094 250.734375 261.144531 C 248.914062 262.792969 247.054688 264.394531 245.160156 265.953125 C 243.261719 267.507812 241.328125 269.019531 239.355469 270.480469 C 237.382812 271.945312 235.375 273.355469 233.335938 274.71875 C 231.292969 276.085938 229.222656 277.398438 227.117188 278.660156 C 225.007812 279.921875 222.875 281.132812 220.710938 282.289062 C 218.542969 283.445312 216.351562 284.550781 214.132812 285.597656 C 211.914062 286.648438 209.671875 287.640625 207.402344 288.582031 C 205.132812 289.519531 202.84375 290.40625 200.535156 291.230469 C 198.222656 292.058594 195.890625 292.828125 193.542969 293.542969 C 191.195312 294.253906 188.828125 294.910156 186.445312 295.503906 C 184.066406 296.101562 181.671875 296.640625 179.261719 297.117188 C 176.855469 297.597656 174.4375 298.015625 172.007812 298.375 C 169.582031 298.738281 167.144531 299.039062 164.703125 299.277344 C 162.257812 299.519531 159.8125 299.699219 157.359375 299.820312 C 154.910156 299.941406 152.453125 300 150 300 C 147.546875 300 145.089844 299.941406 142.640625 299.820312 C 140.1875 299.699219 137.742188 299.519531 135.296875 299.277344 C 132.855469 299.039062 130.417969 298.738281 127.992188 298.375 C 125.5625 298.015625 123.144531 297.597656 120.738281 297.117188 C 118.328125 296.640625 115.933594 296.101562 113.554688 295.503906 C 111.171875 294.910156 108.804688 294.253906 106.457031 293.542969 C 104.109375 292.828125 101.777344 292.058594 99.464844 291.230469 C 97.15625 290.40625 94.867188 289.519531 92.597656 288.582031 C 90.328125 287.640625 88.085938 286.648438 85.867188 285.597656 C 83.648438 284.550781 81.457031 283.445312 79.289062 282.289062 C 77.125 281.132812 74.988281 279.921875 72.882812 278.660156 C 70.777344 277.398438 68.707031 276.085938 66.664062 274.71875 C 64.625 273.355469 62.617188 271.945312 60.644531 270.480469 C 58.671875 269.019531 56.738281 267.507812 54.839844 265.953125 C 52.941406 264.394531 51.085938 262.792969 49.265625 261.144531 C 47.445312 259.496094 45.667969 257.800781 43.933594 256.066406 C 42.199219 254.332031 40.507812 252.554688 38.855469 250.734375 C 37.207031 248.914062 35.605469 247.058594 34.046875 245.160156 C 32.492188 243.261719 30.980469 241.328125 29.519531 239.355469 C 28.054688 237.382812 26.644531 235.375 25.28125 233.335938 C 23.914062 231.292969 22.601562 229.222656 21.339844 227.117188 C 20.078125 225.011719 18.867188 222.875 17.710938 220.710938 C 16.554688 218.542969 15.453125 216.351562 14.402344 214.132812 C 13.351562 211.914062 12.359375 209.671875 11.417969 207.402344 C 10.480469 205.132812 9.59375 202.84375 8.769531 200.535156 C 7.941406 198.222656 7.171875 195.890625 6.457031 193.542969 C 5.746094 191.195312 5.089844 188.828125 4.496094 186.445312 C 3.898438 184.066406 3.359375 181.671875 2.882812 179.261719 C 2.402344 176.855469 1.984375 174.4375 1.625 172.007812 C 1.261719 169.582031 0.964844 167.144531 0.722656 164.703125 C 0.480469 162.257812 0.300781 159.8125 0.179688 157.359375 C 0.0585938 154.910156 0 152.453125 0 150 C 0 147.546875 0.0585938 145.09375 0.179688 142.640625 C 0.300781 140.1875 0.480469 137.742188 0.722656 135.296875 C 0.964844 132.855469 1.261719 130.417969 1.625 127.992188 C 1.984375 125.5625 2.402344 123.144531 2.882812 120.738281 C 3.359375 118.328125 3.898438 115.933594 4.496094 113.554688 C 5.089844 111.171875 5.746094 108.804688 6.457031 106.457031 C 7.171875 104.109375 7.941406 101.777344 8.769531 99.464844 C 9.59375 97.15625 10.480469 94.867188 11.417969 92.597656 C 12.359375 90.328125 13.351562 88.085938 14.402344 85.867188 C 15.453125 83.648438 16.554688 81.457031 17.710938 79.289062 C 18.867188 77.125 20.078125 74.992188 21.339844 72.882812 C 22.601562 70.777344 23.914062 68.707031 25.28125 66.664062 C 26.644531 64.625 28.054688 62.617188 29.519531 60.644531 C 30.980469 58.671875 32.492188 56.738281 34.046875 54.839844 C 35.605469 52.945312 37.207031 51.085938 38.855469 49.265625 C 40.507812 47.449219 42.199219 45.671875 43.933594 43.933594 C 45.667969 42.199219 47.445312 40.507812 49.265625 38.859375 C 51.085938 37.207031 52.941406 35.605469 54.839844 34.046875 C 56.738281 32.492188 58.671875 30.980469 60.644531 29.519531 C 62.617188 28.054688 64.625 26.644531 66.664062 25.28125 C 68.707031 23.914062 70.777344 22.601562 72.882812 21.339844 C 74.988281 20.078125 77.125 18.867188 79.289062 17.710938 C 81.457031 16.554688 83.648438 15.453125 85.867188 14.402344 C 88.085938 13.351562 90.328125 12.359375 92.597656 11.417969 C 94.867188 10.480469 97.15625 9.59375 99.464844 8.769531 C 101.777344 7.941406 104.109375 7.171875 106.457031 6.460938 C 108.804688 5.746094 111.171875 5.09375 113.554688 4.496094 C 115.933594 3.898438 118.328125 3.359375 120.738281 2.882812 C 123.144531 2.402344 125.5625 1.984375 127.992188 1.625 C 130.417969 1.261719 132.855469 0.964844 135.296875 0.722656 C 137.742188 0.480469 140.1875 0.300781 142.640625 0.179688 C 145.089844 0.0585938 147.546875 0 150 0 C 152.453125 0 154.910156 0.0585938 157.359375 0.179688 C 159.8125 0.300781 162.257812 0.480469 164.703125 0.722656 C 167.144531 0.964844 169.582031 1.261719 172.007812 1.625 C 174.4375 1.984375 176.855469 2.402344 179.261719 2.882812 C 181.671875 3.359375 184.066406 3.898438 186.445312 4.496094 C 188.828125 5.09375 191.195312 5.746094 193.542969 6.460938 C 195.890625 7.171875 198.222656 7.941406 200.535156 8.769531 C 202.84375 9.59375 205.132812 10.480469 207.402344 11.417969 C 209.671875 12.359375 211.914062 13.351562 214.132812 14.402344 C 216.351562 15.453125 218.542969 16.554688 220.710938 17.710938 C 222.875 18.867188 225.011719 20.078125 227.117188 21.339844 C 229.222656 22.601562 231.292969 23.914062 233.335938 25.28125 C 235.375 26.644531 237.382812 28.054688 239.355469 29.519531 C 241.328125 30.980469 243.261719 32.492188 245.160156 34.046875 C 247.054688 35.605469 248.914062 37.207031 250.734375 38.859375 C 252.554688 40.507812 254.332031 42.199219 256.066406 43.933594 C 257.800781 45.671875 259.492188 47.449219 261.144531 49.265625 C 262.792969 51.085938 264.394531 52.945312 265.953125 54.839844 C 267.507812 56.738281 269.019531 58.671875 270.480469 60.644531 C 271.945312 62.617188 273.355469 64.625 274.71875 66.664062 C 276.085938 68.707031 277.398438 70.777344 278.660156 72.882812 C 279.921875 74.992188 281.132812 77.125 282.289062 79.289062 C 283.445312 81.457031 284.546875 83.648438 285.597656 85.867188 C 286.648438 88.085938 287.640625 90.328125 288.582031 92.597656 C 289.519531 94.867188 290.40625 97.15625 291.230469 99.464844 C 292.058594 101.777344 292.828125 104.109375 293.542969 106.457031 C 294.253906 108.804688 294.90625 111.171875 295.503906 113.554688 C 296.101562 115.933594 296.640625 118.328125 297.117188 120.738281 C 297.597656 123.144531 298.015625 125.5625 298.375 127.992188 C 298.738281 130.417969 299.035156 132.855469 299.277344 135.296875 C 299.519531 137.742188 299.699219 140.1875 299.820312 142.640625 C 299.941406 145.09375 300 147.546875 300 150 Z M 300 150 " fill-opacity="1" fill-rule="nonzero"/><g clip-path="url(#id1)"><rect x="-30" fill="url(#id2)" width="360" y="-29.999999" height="359.999986"/></g><g clip-path="url(#id3)"><path fill="#ffffff" d="M 205.929688 123.855469 C 202.636719 123.855469 199.953125 121.167969 199.953125 117.871094 C 199.953125 114.578125 202.636719 111.894531 205.929688 111.894531 C 209.230469 111.894531 211.90625 114.578125 211.90625 117.871094 C 211.914062 121.167969 209.230469 123.855469 205.929688 123.855469 Z M 205.929688 115.183594 C 204.453125 115.183594 203.242188 116.394531 203.242188 117.871094 C 203.242188 119.347656 204.453125 120.554688 205.929688 120.554688 C 207.40625 120.554688 208.617188 119.347656 208.617188 117.871094 C 208.617188 116.394531 207.414062 115.183594 205.929688 115.183594 Z M 205.929688 115.183594 " fill-opacity="1" fill-rule="nonzero"/></g><g fill="#ffffff" fill-opacity="1"><g transform="translate(99.683154, 183.998735)"><g><path d="M 45.0625 -48.84375 C 45.0625 -44.914062 43.867188 -41.570312 41.484375 -38.8125 C 39.109375 -36.0625 35.765625 -34.171875 31.453125 -33.140625 L 31.453125 -32.875 C 36.535156 -32.25 40.378906 -30.707031 42.984375 -28.25 C 45.597656 -25.800781 46.90625 -22.492188 46.90625 -18.328125 C 46.90625 -12.273438 44.707031 -7.5625 40.3125 -4.1875 C 35.925781 -0.820312 29.660156 0.859375 21.515625 0.859375 C 14.691406 0.859375 8.640625 -0.273438 3.359375 -2.546875 L 3.359375 -13.859375 C 5.796875 -12.617188 8.476562 -11.613281 11.40625 -10.84375 C 14.332031 -10.070312 17.226562 -9.6875 20.09375 -9.6875 C 24.488281 -9.6875 27.734375 -10.429688 29.828125 -11.921875 C 31.921875 -13.410156 32.96875 -15.804688 32.96875 -19.109375 C 32.96875 -22.066406 31.757812 -24.160156 29.34375 -25.390625 C 26.9375 -26.628906 23.09375 -27.25 17.8125 -27.25 L 13.046875 -27.25 L 13.046875 -37.4375 L 17.90625 -37.4375 C 22.78125 -37.4375 26.34375 -38.070312 28.59375 -39.34375 C 30.851562 -40.625 31.984375 -42.816406 31.984375 -45.921875 C 31.984375 -50.679688 29 -53.0625 23.03125 -53.0625 C 20.957031 -53.0625 18.851562 -52.71875 16.71875 -52.03125 C 14.582031 -51.34375 12.207031 -50.148438 9.59375 -48.453125 L 3.4375 -57.625 C 9.175781 -61.757812 16.019531 -63.828125 23.96875 -63.828125 C 30.476562 -63.828125 35.617188 -62.503906 39.390625 -59.859375 C 43.171875 -57.222656 45.0625 -53.550781 45.0625 -48.84375 Z M 45.0625 -48.84375 "/></g></g></g><g fill="#ffffff" fill-opacity="1"><g transform="translate(149.993494, 183.998735)"><g><path d="M 47.171875 -31.453125 C 47.171875 -20.472656 45.367188 -12.34375 41.765625 -7.0625 C 38.160156 -1.78125 32.617188 0.859375 25.140625 0.859375 C 17.878906 0.859375 12.40625 -1.863281 8.71875 -7.3125 C 5.03125 -12.769531 3.1875 -20.816406 3.1875 -31.453125 C 3.1875 -42.554688 4.976562 -50.738281 8.5625 -56 C 12.144531 -61.269531 17.671875 -63.90625 25.140625 -63.90625 C 32.390625 -63.90625 37.875 -61.148438 41.59375 -55.640625 C 45.3125 -50.140625 47.171875 -42.078125 47.171875 -31.453125 Z M 16.390625 -31.453125 C 16.390625 -23.742188 17.054688 -18.21875 18.390625 -14.875 C 19.734375 -11.53125 21.984375 -9.859375 25.140625 -9.859375 C 28.234375 -9.859375 30.46875 -11.550781 31.84375 -14.9375 C 33.21875 -18.320312 33.90625 -23.828125 33.90625 -31.453125 C 33.90625 -39.171875 33.207031 -44.71875 31.8125 -48.09375 C 30.425781 -51.46875 28.203125 -53.15625 25.140625 -53.15625 C 22.003906 -53.15625 19.757812 -51.46875 18.40625 -48.09375 C 17.0625 -44.71875 16.390625 -39.171875 16.390625 -31.453125 Z M 16.390625 -31.453125 "/></g></g></g></svg>