<svg xmlns="http://www.w3.org/2000/svg" xmlns:xlink="http://www.w3.org/1999/xlink" width="400" zoomAndPan="magnify" viewBox="0 0 300 299.999988" height="400" preserveAspectRatio="xMidYMid meet" version="1.0"><defs><g/><clipPath id="id1"><path d="M 0 0.113281 L 300 0.113281 L 300 300 L 0 300 Z M 0 0.113281 " clip-rule="nonzero"/></clipPath><clipPath id="id2"><path d="M 300 150.113281 C 300 152.570312 299.941406 155.023438 299.820312 157.472656 C 299.699219 159.925781 299.519531 162.375 299.277344 164.816406 C 299.035156 167.257812 298.738281 169.695312 298.375 172.125 C 298.015625 174.550781 297.597656 176.96875 297.117188 179.378906 C 296.640625 181.785156 296.101562 184.179688 295.503906 186.5625 C 294.90625 188.941406 294.253906 191.308594 293.542969 193.65625 C 292.828125 196.003906 292.058594 198.335938 291.230469 200.648438 C 290.40625 202.957031 289.519531 205.25 288.582031 207.515625 C 287.640625 209.785156 286.648438 212.027344 285.597656 214.246094 C 284.546875 216.464844 283.445312 218.65625 282.289062 220.824219 C 281.132812 222.988281 279.921875 225.125 278.660156 227.230469 C 277.398438 229.335938 276.085938 231.40625 274.71875 233.449219 C 273.355469 235.492188 271.945312 237.496094 270.480469 239.46875 C 269.019531 241.441406 267.507812 243.375 265.953125 245.273438 C 264.394531 247.171875 262.792969 249.027344 261.144531 250.847656 C 259.492188 252.667969 257.800781 254.445312 256.066406 256.179688 C 254.332031 257.914062 252.554688 259.609375 250.734375 261.257812 C 248.914062 262.90625 247.054688 264.507812 245.160156 266.066406 C 243.261719 267.621094 241.328125 269.132812 239.355469 270.59375 C 237.382812 272.058594 235.375 273.46875 233.335938 274.835938 C 231.292969 276.199219 229.222656 277.511719 227.117188 278.773438 C 225.007812 280.035156 222.875 281.246094 220.710938 282.402344 C 218.542969 283.558594 216.351562 284.664062 214.132812 285.710938 C 211.914062 286.761719 209.671875 287.757812 207.402344 288.695312 C 205.132812 289.636719 202.84375 290.519531 200.535156 291.34375 C 198.222656 292.171875 195.890625 292.941406 193.542969 293.65625 C 191.195312 294.367188 188.828125 295.023438 186.445312 295.617188 C 184.066406 296.214844 181.671875 296.753906 179.261719 297.230469 C 176.855469 297.710938 174.4375 298.128906 172.007812 298.488281 C 169.582031 298.851562 167.144531 299.152344 164.703125 299.390625 C 162.257812 299.632812 159.8125 299.8125 157.359375 299.933594 C 154.910156 300.054688 152.453125 300.113281 150 300.113281 C 147.546875 300.113281 145.089844 300.054688 142.640625 299.933594 C 140.1875 299.8125 137.742188 299.632812 135.296875 299.390625 C 132.855469 299.152344 130.417969 298.851562 127.992188 298.488281 C 125.5625 298.128906 123.144531 297.710938 120.738281 297.230469 C 118.328125 296.753906 115.933594 296.214844 113.554688 295.617188 C 111.171875 295.023438 108.804688 294.367188 106.457031 293.65625 C 104.109375 292.941406 101.777344 292.171875 99.464844 291.34375 C 97.15625 290.519531 94.867188 289.636719 92.597656 288.695312 C 90.328125 287.757812 88.085938 286.761719 85.867188 285.710938 C 83.648438 284.664062 81.457031 283.558594 79.289062 282.402344 C 77.125 281.246094 74.988281 280.035156 72.882812 278.773438 C 70.777344 277.511719 68.707031 276.199219 66.664062 274.835938 C 64.625 273.46875 62.617188 272.058594 60.644531 270.59375 C 58.671875 269.132812 56.738281 267.621094 54.839844 266.066406 C 52.945312 264.507812 51.085938 262.90625 49.265625 261.257812 C 47.445312 259.609375 45.667969 257.914062 43.933594 256.179688 C 42.199219 254.445312 40.507812 252.667969 38.855469 250.847656 C 37.207031 249.027344 35.605469 247.171875 34.046875 245.273438 C 32.492188 243.375 30.980469 241.441406 29.519531 239.46875 C 28.054688 237.496094 26.644531 235.492188 25.28125 233.449219 C 23.914062 231.40625 22.601562 229.335938 21.339844 227.230469 C 20.078125 225.125 18.867188 222.988281 17.710938 220.824219 C 16.554688 218.65625 15.453125 216.464844 14.402344 214.246094 C 13.351562 212.027344 12.359375 209.785156 11.417969 207.515625 C 10.480469 205.25 9.59375 202.957031 8.769531 200.648438 C 7.941406 198.335938 7.171875 196.003906 6.457031 193.65625 C 5.746094 191.308594 5.09375 188.941406 4.496094 186.5625 C 3.898438 184.179688 3.359375 181.785156 2.882812 179.378906 C 2.402344 176.96875 1.984375 174.550781 1.625 172.125 C 1.261719 169.695312 0.964844 167.257812 0.722656 164.816406 C 0.480469 162.375 0.300781 159.925781 0.179688 157.472656 C 0.0585938 155.023438 0 152.570312 0 150.113281 C 0 147.660156 0.0585938 145.207031 0.179688 142.753906 C 0.300781 140.300781 0.480469 137.855469 0.722656 135.410156 C 0.964844 132.96875 1.261719 130.53125 1.625 128.105469 C 1.984375 125.675781 2.402344 123.257812 2.882812 120.851562 C 3.359375 118.441406 3.898438 116.046875 4.496094 113.667969 C 5.09375 111.285156 5.746094 108.921875 6.457031 106.570312 C 7.171875 104.222656 7.941406 101.890625 8.769531 99.582031 C 9.59375 97.269531 10.480469 94.980469 11.417969 92.710938 C 12.359375 90.441406 13.351562 88.199219 14.402344 85.980469 C 15.453125 83.761719 16.554688 81.570312 17.710938 79.402344 C 18.867188 77.238281 20.078125 75.105469 21.339844 73 C 22.601562 70.894531 23.914062 68.820312 25.28125 66.777344 C 26.644531 64.738281 28.054688 62.730469 29.519531 60.757812 C 30.980469 58.785156 32.492188 56.851562 34.046875 54.953125 C 35.605469 53.058594 37.207031 51.199219 38.855469 49.378906 C 40.507812 47.5625 42.199219 45.785156 43.933594 44.046875 C 45.667969 42.3125 47.445312 40.621094 49.265625 38.972656 C 51.085938 37.324219 52.945312 35.71875 54.839844 34.160156 C 56.738281 32.605469 58.671875 31.09375 60.644531 29.632812 C 62.617188 28.171875 64.625 26.757812 66.664062 25.394531 C 68.707031 24.03125 70.777344 22.714844 72.882812 21.453125 C 74.988281 20.191406 77.125 18.984375 79.289062 17.824219 C 81.457031 16.667969 83.648438 15.566406 85.867188 14.515625 C 88.085938 13.464844 90.328125 12.472656 92.597656 11.53125 C 94.867188 10.59375 97.15625 9.710938 99.464844 8.882812 C 101.777344 8.054688 104.109375 7.285156 106.457031 6.574219 C 108.804688 5.859375 111.171875 5.207031 113.554688 4.609375 C 115.933594 4.011719 118.328125 3.476562 120.738281 2.996094 C 123.144531 2.515625 125.5625 2.097656 127.992188 1.738281 C 130.417969 1.378906 132.855469 1.078125 135.296875 0.835938 C 137.742188 0.59375 140.1875 0.414062 142.640625 0.292969 C 145.089844 0.175781 147.546875 0.113281 150 0.113281 C 152.453125 0.113281 154.910156 0.175781 157.359375 0.292969 C 159.8125 0.414062 162.257812 0.59375 164.703125 0.835938 C 167.144531 1.078125 169.582031 1.378906 172.007812 1.738281 C 174.4375 2.097656 176.855469 2.515625 179.261719 2.996094 C 181.671875 3.476562 184.066406 4.011719 186.445312 4.609375 C 188.828125 5.207031 191.195312 5.859375 193.542969 6.574219 C 195.890625 7.285156 198.222656 8.054688 200.535156 8.882812 C 202.84375 9.710938 205.132812 10.59375 207.402344 11.53125 C 209.671875 12.472656 211.914062 13.464844 214.132812 14.515625 C 216.351562 15.566406 218.542969 16.667969 220.710938 17.824219 C 222.875 18.984375 225.007812 20.191406 227.117188 21.453125 C 229.222656 22.714844 231.292969 24.03125 233.335938 25.394531 C 235.375 26.757812 237.382812 28.171875 239.355469 29.632812 C 241.328125 31.09375 243.261719 32.605469 245.160156 34.160156 C 247.054688 35.71875 248.914062 37.324219 250.734375 38.972656 C 252.554688 40.621094 254.332031 42.3125 256.066406 44.046875 C 257.800781 45.785156 259.492188 47.5625 261.144531 49.378906 C 262.792969 51.199219 264.394531 53.058594 265.953125 54.953125 C 267.507812 56.851562 269.019531 58.785156 270.480469 60.757812 C 271.945312 62.730469 273.355469 64.738281 274.71875 66.777344 C 276.085938 68.820312 277.398438 70.894531 278.660156 73 C 279.921875 75.105469 281.132812 77.238281 282.289062 79.402344 C 283.445312 81.570312 284.546875 83.761719 285.597656 85.980469 C 286.648438 88.199219 287.640625 90.441406 288.582031 92.710938 C 289.519531 94.980469 290.40625 97.269531 291.230469 99.582031 C 292.058594 101.890625 292.828125 104.222656 293.539062 106.570312 C 294.253906 108.921875 294.90625 111.285156 295.503906 113.667969 C 296.101562 116.046875 296.640625 118.441406 297.117188 120.851562 C 297.597656 123.257812 298.015625 125.675781 298.375 128.105469 C 298.738281 130.53125 299.035156 132.96875 299.277344 135.410156 C 299.519531 137.855469 299.699219 140.300781 299.820312 142.753906 C 299.941406 145.207031 300 147.660156 300 150.113281 Z M 300 150.113281 " clip-rule="nonzero"/></clipPath><linearGradient x1="-0.0000000135499" gradientTransform="matrix(299.999988, 0, 0, 299.999988, 0.000006, 0.11368)" y1="-0.0000000134171" x2="1.004712" gradientUnits="userSpaceOnUse" y2="0.994862" id="id3"><stop stop-opacity="1" stop-color="rgb(92.498779%, 79.998779%, 40.79895%)" offset="0"/><stop stop-opacity="1" stop-color="rgb(92.50946%, 79.925537%, 40.66925%)" offset="0.0078125"/><stop stop-opacity="1" stop-color="rgb(92.530823%, 79.780579%, 40.408325%)" offset="0.015625"/><stop stop-opacity="1" stop-color="rgb(92.553711%, 79.63562%, 40.148926%)" offset="0.0234375"/><stop stop-opacity="1" stop-color="rgb(92.575073%, 79.490662%, 39.888%)" offset="0.03125"/><stop stop-opacity="1" stop-color="rgb(92.596436%, 79.345703%, 39.628601%)" offset="0.0390625"/><stop stop-opacity="1" stop-color="rgb(92.617798%, 79.200745%, 39.367676%)" offset="0.046875"/><stop stop-opacity="1" stop-color="rgb(92.63916%, 79.055786%, 39.108276%)" offset="0.0546875"/><stop stop-opacity="1" stop-color="rgb(92.660522%, 78.910828%, 38.847351%)" offset="0.0625"/><stop stop-opacity="1" stop-color="rgb(92.683411%, 78.764343%, 38.587952%)" offset="0.0703125"/><stop stop-opacity="1" stop-color="rgb(92.704773%, 78.619385%, 38.327026%)" offset="0.078125"/><stop stop-opacity="1" stop-color="rgb(92.726135%, 78.474426%, 38.067627%)" offset="0.0859375"/><stop stop-opacity="1" stop-color="rgb(92.747498%, 78.329468%, 37.806702%)" offset="0.09375"/><stop stop-opacity="1" stop-color="rgb(92.76886%, 78.184509%, 37.547302%)" offset="0.101563"/><stop stop-opacity="1" stop-color="rgb(92.790222%, 78.039551%, 37.287903%)" offset="0.109375"/><stop stop-opacity="1" stop-color="rgb(92.81311%, 77.894592%, 37.026978%)" offset="0.117188"/><stop stop-opacity="1" stop-color="rgb(92.834473%, 77.749634%, 36.767578%)" offset="0.125"/><stop stop-opacity="1" stop-color="rgb(92.855835%, 77.604675%, 36.506653%)" offset="0.132812"/><stop stop-opacity="1" stop-color="rgb(92.877197%, 77.459717%, 36.247253%)" offset="0.140625"/><stop stop-opacity="1" stop-color="rgb(92.89856%, 77.313232%, 35.986328%)" offset="0.148438"/><stop stop-opacity="1" stop-color="rgb(92.919922%, 77.168274%, 35.726929%)" offset="0.15625"/><stop stop-opacity="1" stop-color="rgb(92.94281%, 77.023315%, 35.466003%)" offset="0.164062"/><stop stop-opacity="1" stop-color="rgb(92.964172%, 76.878357%, 35.206604%)" offset="0.171875"/><stop stop-opacity="1" stop-color="rgb(92.985535%, 76.733398%, 34.945679%)" offset="0.179688"/><stop stop-opacity="1" stop-color="rgb(93.006897%, 76.58844%, 34.686279%)" offset="0.1875"/><stop stop-opacity="1" stop-color="rgb(93.028259%, 76.443481%, 34.425354%)" offset="0.195312"/><stop stop-opacity="1" stop-color="rgb(93.049622%, 76.298523%, 34.165955%)" offset="0.203125"/><stop stop-opacity="1" stop-color="rgb(93.07251%, 76.153564%, 33.905029%)" offset="0.210937"/><stop stop-opacity="1" stop-color="rgb(93.093872%, 76.008606%, 33.64563%)" offset="0.21875"/><stop stop-opacity="1" stop-color="rgb(93.115234%, 75.862122%, 33.384705%)" offset="0.226562"/><stop stop-opacity="1" stop-color="rgb(93.136597%, 75.717163%, 33.125305%)" offset="0.234375"/><stop stop-opacity="1" stop-color="rgb(93.157959%, 75.572205%, 32.86438%)" offset="0.242188"/><stop stop-opacity="1" stop-color="rgb(93.179321%, 75.427246%, 32.60498%)" offset="0.25"/><stop stop-opacity="1" stop-color="rgb(93.202209%, 75.282288%, 32.344055%)" offset="0.257813"/><stop stop-opacity="1" stop-color="rgb(93.223572%, 75.137329%, 32.084656%)" offset="0.265625"/><stop stop-opacity="1" stop-color="rgb(93.244934%, 74.992371%, 31.825256%)" offset="0.273438"/><stop stop-opacity="1" stop-color="rgb(93.266296%, 74.847412%, 31.564331%)" offset="0.28125"/><stop stop-opacity="1" stop-color="rgb(93.287659%, 74.702454%, 31.304932%)" offset="0.289062"/><stop stop-opacity="1" stop-color="rgb(93.309021%, 74.557495%, 31.044006%)" offset="0.296875"/><stop stop-opacity="1" stop-color="rgb(93.331909%, 74.411011%, 30.784607%)" offset="0.304688"/><stop stop-opacity="1" stop-color="rgb(93.353271%, 74.266052%, 30.523682%)" offset="0.3125"/><stop stop-opacity="1" stop-color="rgb(93.374634%, 74.121094%, 30.264282%)" offset="0.320312"/><stop stop-opacity="1" stop-color="rgb(93.395996%, 73.976135%, 30.003357%)" offset="0.328125"/><stop stop-opacity="1" stop-color="rgb(93.417358%, 73.831177%, 29.743958%)" offset="0.335937"/><stop stop-opacity="1" stop-color="rgb(93.438721%, 73.686218%, 29.483032%)" offset="0.34375"/><stop stop-opacity="1" stop-color="rgb(93.461609%, 73.54126%, 29.223633%)" offset="0.351563"/><stop stop-opacity="1" stop-color="rgb(93.482971%, 73.396301%, 28.962708%)" offset="0.359375"/><stop stop-opacity="1" stop-color="rgb(93.504333%, 73.251343%, 28.703308%)" offset="0.367188"/><stop stop-opacity="1" stop-color="rgb(93.525696%, 73.104858%, 28.442383%)" offset="0.375"/><stop stop-opacity="1" stop-color="rgb(93.547058%, 72.9599%, 28.182983%)" offset="0.382812"/><stop stop-opacity="1" stop-color="rgb(93.56842%, 72.814941%, 27.922058%)" offset="0.390625"/><stop stop-opacity="1" stop-color="rgb(93.591309%, 72.669983%, 27.662659%)" offset="0.398438"/><stop stop-opacity="1" stop-color="rgb(93.612671%, 72.525024%, 27.401733%)" offset="0.40625"/><stop stop-opacity="1" stop-color="rgb(93.634033%, 72.380066%, 27.142334%)" offset="0.414062"/><stop stop-opacity="1" stop-color="rgb(93.655396%, 72.235107%, 26.881409%)" offset="0.421875"/><stop stop-opacity="1" stop-color="rgb(93.676758%, 72.090149%, 26.622009%)" offset="0.429687"/><stop stop-opacity="1" stop-color="rgb(93.69812%, 71.94519%, 26.36261%)" offset="0.4375"/><stop stop-opacity="1" stop-color="rgb(93.719482%, 71.800232%, 26.101685%)" offset="0.445312"/><stop stop-opacity="1" stop-color="rgb(93.742371%, 71.653748%, 25.842285%)" offset="0.453125"/><stop stop-opacity="1" stop-color="rgb(93.763733%, 71.508789%, 25.58136%)" offset="0.460938"/><stop stop-opacity="1" stop-color="rgb(93.785095%, 71.363831%, 25.32196%)" offset="0.46875"/><stop stop-opacity="1" stop-color="rgb(93.806458%, 71.218872%, 25.061035%)" offset="0.476562"/><stop stop-opacity="1" stop-color="rgb(93.82782%, 71.073914%, 24.801636%)" offset="0.484375"/><stop stop-opacity="1" stop-color="rgb(93.849182%, 70.928955%, 24.54071%)" offset="0.492188"/><stop stop-opacity="1" stop-color="rgb(93.87207%, 70.783997%, 24.281311%)" offset="0.497442"/><stop stop-opacity="1" stop-color="rgb(93.882751%, 70.71228%, 24.151611%)" offset="0.5"/><stop stop-opacity="1" stop-color="rgb(93.893433%, 70.639038%, 24.020386%)" offset="0.502558"/><stop stop-opacity="1" stop-color="rgb(93.904114%, 70.567322%, 23.890686%)" offset="0.507813"/><stop stop-opacity="1" stop-color="rgb(93.914795%, 70.49408%, 23.760986%)" offset="0.515625"/><stop stop-opacity="1" stop-color="rgb(93.936157%, 70.349121%, 23.500061%)" offset="0.523438"/><stop stop-opacity="1" stop-color="rgb(93.95752%, 70.202637%, 23.240662%)" offset="0.53125"/><stop stop-opacity="1" stop-color="rgb(93.978882%, 70.057678%, 22.979736%)" offset="0.539062"/><stop stop-opacity="1" stop-color="rgb(94.00177%, 69.91272%, 22.720337%)" offset="0.546875"/><stop stop-opacity="1" stop-color="rgb(94.023132%, 69.767761%, 22.459412%)" offset="0.554688"/><stop stop-opacity="1" stop-color="rgb(94.044495%, 69.622803%, 22.200012%)" offset="0.5625"/><stop stop-opacity="1" stop-color="rgb(94.065857%, 69.477844%, 21.939087%)" offset="0.570312"/><stop stop-opacity="1" stop-color="rgb(94.087219%, 69.332886%, 21.679688%)" offset="0.578125"/><stop stop-opacity="1" stop-color="rgb(94.108582%, 69.187927%, 21.418762%)" offset="0.585937"/><stop stop-opacity="1" stop-color="rgb(94.13147%, 69.042969%, 21.159363%)" offset="0.59375"/><stop stop-opacity="1" stop-color="rgb(94.152832%, 68.89801%, 20.899963%)" offset="0.601563"/><stop stop-opacity="1" stop-color="rgb(94.174194%, 68.751526%, 20.639038%)" offset="0.609375"/><stop stop-opacity="1" stop-color="rgb(94.195557%, 68.606567%, 20.379639%)" offset="0.617188"/><stop stop-opacity="1" stop-color="rgb(94.216919%, 68.461609%, 20.118713%)" offset="0.625"/><stop stop-opacity="1" stop-color="rgb(94.238281%, 68.31665%, 19.859314%)" offset="0.632812"/><stop stop-opacity="1" stop-color="rgb(94.261169%, 68.171692%, 19.598389%)" offset="0.640625"/><stop stop-opacity="1" stop-color="rgb(94.282532%, 68.026733%, 19.338989%)" offset="0.648438"/><stop stop-opacity="1" stop-color="rgb(94.303894%, 67.881775%, 19.078064%)" offset="0.65625"/><stop stop-opacity="1" stop-color="rgb(94.325256%, 67.736816%, 18.818665%)" offset="0.664062"/><stop stop-opacity="1" stop-color="rgb(94.346619%, 67.591858%, 18.557739%)" offset="0.671875"/><stop stop-opacity="1" stop-color="rgb(94.367981%, 67.445374%, 18.29834%)" offset="0.679687"/><stop stop-opacity="1" stop-color="rgb(94.390869%, 67.300415%, 18.037415%)" offset="0.6875"/><stop stop-opacity="1" stop-color="rgb(94.412231%, 67.155457%, 17.778015%)" offset="0.695313"/><stop stop-opacity="1" stop-color="rgb(94.433594%, 67.010498%, 17.51709%)" offset="0.703125"/><stop stop-opacity="1" stop-color="rgb(94.454956%, 66.86554%, 17.25769%)" offset="0.710938"/><stop stop-opacity="1" stop-color="rgb(94.476318%, 66.720581%, 16.996765%)" offset="0.71875"/><stop stop-opacity="1" stop-color="rgb(94.497681%, 66.575623%, 16.737366%)" offset="0.726562"/><stop stop-opacity="1" stop-color="rgb(94.520569%, 66.430664%, 16.47644%)" offset="0.734375"/><stop stop-opacity="1" stop-color="rgb(94.541931%, 66.285706%, 16.217041%)" offset="0.742188"/><stop stop-opacity="1" stop-color="rgb(94.563293%, 66.140747%, 15.956116%)" offset="0.75"/><stop stop-opacity="1" stop-color="rgb(94.584656%, 65.994263%, 15.696716%)" offset="0.757812"/><stop stop-opacity="1" stop-color="rgb(94.606018%, 65.849304%, 15.437317%)" offset="0.765625"/><stop stop-opacity="1" stop-color="rgb(94.62738%, 65.704346%, 15.176392%)" offset="0.773437"/><stop stop-opacity="1" stop-color="rgb(94.650269%, 65.559387%, 14.916992%)" offset="0.78125"/><stop stop-opacity="1" stop-color="rgb(94.671631%, 65.414429%, 14.656067%)" offset="0.789063"/><stop stop-opacity="1" stop-color="rgb(94.692993%, 65.26947%, 14.396667%)" offset="0.796875"/><stop stop-opacity="1" stop-color="rgb(94.714355%, 65.124512%, 14.135742%)" offset="0.804688"/><stop stop-opacity="1" stop-color="rgb(94.735718%, 64.979553%, 13.876343%)" offset="0.8125"/><stop stop-opacity="1" stop-color="rgb(94.75708%, 64.834595%, 13.615417%)" offset="0.820312"/><stop stop-opacity="1" stop-color="rgb(94.779968%, 64.689636%, 13.356018%)" offset="0.828125"/><stop stop-opacity="1" stop-color="rgb(94.801331%, 64.543152%, 13.095093%)" offset="0.835938"/><stop stop-opacity="1" stop-color="rgb(94.822693%, 64.398193%, 12.835693%)" offset="0.84375"/><stop stop-opacity="1" stop-color="rgb(94.844055%, 64.253235%, 12.574768%)" offset="0.851562"/><stop stop-opacity="1" stop-color="rgb(94.865417%, 64.108276%, 12.315369%)" offset="0.859375"/><stop stop-opacity="1" stop-color="rgb(94.88678%, 63.963318%, 12.054443%)" offset="0.867187"/><stop stop-opacity="1" stop-color="rgb(94.909668%, 63.818359%, 11.795044%)" offset="0.875"/><stop stop-opacity="1" stop-color="rgb(94.93103%, 63.673401%, 11.534119%)" offset="0.882813"/><stop stop-opacity="1" stop-color="rgb(94.952393%, 63.528442%, 11.274719%)" offset="0.890625"/><stop stop-opacity="1" stop-color="rgb(94.973755%, 63.383484%, 11.013794%)" offset="0.898438"/><stop stop-opacity="1" stop-color="rgb(94.995117%, 63.238525%, 10.754395%)" offset="0.90625"/><stop stop-opacity="1" stop-color="rgb(95.016479%, 63.092041%, 10.493469%)" offset="0.914062"/><stop stop-opacity="1" stop-color="rgb(95.039368%, 62.947083%, 10.23407%)" offset="0.921875"/><stop stop-opacity="1" stop-color="rgb(95.06073%, 62.802124%, 9.97467%)" offset="0.929688"/><stop stop-opacity="1" stop-color="rgb(95.082092%, 62.657166%, 9.713745%)" offset="0.9375"/><stop stop-opacity="1" stop-color="rgb(95.103455%, 62.512207%, 9.454346%)" offset="0.945312"/><stop stop-opacity="1" stop-color="rgb(95.124817%, 62.367249%, 9.19342%)" offset="0.953125"/><stop stop-opacity="1" stop-color="rgb(95.146179%, 62.22229%, 8.934021%)" offset="0.960937"/><stop stop-opacity="1" stop-color="rgb(95.167542%, 62.077332%, 8.673096%)" offset="0.96875"/><stop stop-opacity="1" stop-color="rgb(95.19043%, 61.932373%, 8.413696%)" offset="0.976563"/><stop stop-opacity="1" stop-color="rgb(95.211792%, 61.787415%, 8.152771%)" offset="0.984375"/><stop stop-opacity="1" stop-color="rgb(95.233154%, 61.64093%, 7.893372%)" offset="0.992188"/><stop stop-opacity="1" stop-color="rgb(95.254517%, 61.495972%, 7.632446%)" offset="1"/></linearGradient><clipPath id="id4"><path d="M 199.953125 111.894531 L 211.914062 111.894531 L 211.914062 123.855469 L 199.953125 123.855469 Z M 199.953125 111.894531 " clip-rule="nonzero"/></clipPath></defs><path fill="#edc209" d="M 300 150 C 300 152.453125 299.941406 154.910156 299.820312 157.359375 C 299.699219 159.8125 299.519531 162.257812 299.277344 164.703125 C 299.035156 167.144531 298.738281 169.582031 298.375 172.007812 C 298.015625 174.4375 297.597656 176.855469 297.117188 179.261719 C 296.640625 181.671875 296.101562 184.066406 295.503906 186.445312 C 294.90625 188.828125 294.253906 191.195312 293.539062 193.542969 C 292.828125 195.890625 292.058594 198.222656 291.230469 200.535156 C 290.40625 202.84375 289.519531 205.132812 288.582031 207.402344 C 287.640625 209.671875 286.648438 211.914062 285.597656 214.132812 C 284.546875 216.351562 283.445312 218.542969 282.289062 220.710938 C 281.132812 222.875 279.921875 225.011719 278.660156 227.117188 C 277.398438 229.222656 276.085938 231.292969 274.71875 233.335938 C 273.355469 235.375 271.945312 237.382812 270.480469 239.355469 C 269.019531 241.328125 267.507812 243.261719 265.953125 245.160156 C 264.394531 247.058594 262.792969 248.914062 261.144531 250.734375 C 259.492188 252.554688 257.800781 254.332031 256.066406 256.066406 C 254.332031 257.800781 252.554688 259.496094 250.734375 261.144531 C 248.914062 262.792969 247.054688 264.394531 245.160156 265.953125 C 243.261719 267.507812 241.328125 269.019531 239.355469 270.480469 C 237.382812 271.945312 235.375 273.355469 233.335938 274.71875 C 231.292969 276.085938 229.222656 277.398438 227.117188 278.660156 C 225.007812 279.921875 222.875 281.132812 220.710938 282.289062 C 218.542969 283.445312 216.351562 284.550781 214.132812 285.597656 C 211.914062 286.648438 209.671875 287.640625 207.402344 288.582031 C 205.132812 289.519531 202.84375 290.40625 200.535156 291.230469 C 198.222656 292.058594 195.890625 292.828125 193.542969 293.542969 C 191.195312 294.253906 188.828125 294.910156 186.445312 295.503906 C 184.066406 296.101562 181.671875 296.640625 179.261719 297.117188 C 176.855469 297.597656 174.4375 298.015625 172.007812 298.375 C 169.582031 298.738281 167.144531 299.039062 164.703125 299.277344 C 162.257812 299.519531 159.8125 299.699219 157.359375 299.820312 C 154.910156 299.941406 152.453125 300 150 300 C 147.546875 300 145.089844 299.941406 142.640625 299.820312 C 140.1875 299.699219 137.742188 299.519531 135.296875 299.277344 C 132.855469 299.039062 130.417969 298.738281 127.992188 298.375 C 125.5625 298.015625 123.144531 297.597656 120.738281 297.117188 C 118.328125 296.640625 115.933594 296.101562 113.554688 295.503906 C 111.171875 294.910156 108.804688 294.253906 106.457031 293.542969 C 104.109375 292.828125 101.777344 292.058594 99.464844 291.230469 C 97.15625 290.40625 94.867188 289.519531 92.597656 288.582031 C 90.328125 287.640625 88.085938 286.648438 85.867188 285.597656 C 83.648438 284.550781 81.457031 283.445312 79.289062 282.289062 C 77.125 281.132812 74.988281 279.921875 72.882812 278.660156 C 70.777344 277.398438 68.707031 276.085938 66.664062 274.71875 C 64.625 273.355469 62.617188 271.945312 60.644531 270.480469 C 58.671875 269.019531 56.738281 267.507812 54.839844 265.953125 C 52.941406 264.394531 51.085938 262.792969 49.265625 261.144531 C 47.445312 259.496094 45.667969 257.800781 43.933594 256.066406 C 42.199219 254.332031 40.507812 252.554688 38.855469 250.734375 C 37.207031 248.914062 35.605469 247.058594 34.046875 245.160156 C 32.492188 243.261719 30.980469 241.328125 29.519531 239.355469 C 28.054688 237.382812 26.644531 235.375 25.28125 233.335938 C 23.914062 231.292969 22.601562 229.222656 21.339844 227.117188 C 20.078125 225.011719 18.867188 222.875 17.710938 220.710938 C 16.554688 218.542969 15.453125 216.351562 14.402344 214.132812 C 13.351562 211.914062 12.359375 209.671875 11.417969 207.402344 C 10.480469 205.132812 9.59375 202.84375 8.769531 200.535156 C 7.941406 198.222656 7.171875 195.890625 6.457031 193.542969 C 5.746094 191.195312 5.089844 188.828125 4.496094 186.445312 C 3.898438 184.066406 3.359375 181.671875 2.882812 179.261719 C 2.402344 176.855469 1.984375 174.4375 1.625 172.007812 C 1.261719 169.582031 0.964844 167.144531 0.722656 164.703125 C 0.480469 162.257812 0.300781 159.8125 0.179688 157.359375 C 0.0585938 154.910156 0 152.453125 0 150 C 0 147.546875 0.0585938 145.09375 0.179688 142.640625 C 0.300781 140.1875 0.480469 137.742188 0.722656 135.296875 C 0.964844 132.855469 1.261719 130.417969 1.625 127.992188 C 1.984375 125.5625 2.402344 123.144531 2.882812 120.738281 C 3.359375 118.328125 3.898438 115.933594 4.496094 113.554688 C 5.089844 111.171875 5.746094 108.804688 6.457031 106.457031 C 7.171875 104.109375 7.941406 101.777344 8.769531 99.464844 C 9.59375 97.15625 10.480469 94.867188 11.417969 92.597656 C 12.359375 90.328125 13.351562 88.085938 14.402344 85.867188 C 15.453125 83.648438 16.554688 81.457031 17.710938 79.289062 C 18.867188 77.125 20.078125 74.992188 21.339844 72.882812 C 22.601562 70.777344 23.914062 68.707031 25.28125 66.664062 C 26.644531 64.625 28.054688 62.617188 29.519531 60.644531 C 30.980469 58.671875 32.492188 56.738281 34.046875 54.839844 C 35.605469 52.945312 37.207031 51.085938 38.855469 49.265625 C 40.507812 47.449219 42.199219 45.671875 43.933594 43.933594 C 45.667969 42.199219 47.445312 40.507812 49.265625 38.859375 C 51.085938 37.207031 52.941406 35.605469 54.839844 34.046875 C 56.738281 32.492188 58.671875 30.980469 60.644531 29.519531 C 62.617188 28.054688 64.625 26.644531 66.664062 25.28125 C 68.707031 23.914062 70.777344 22.601562 72.882812 21.339844 C 74.988281 20.078125 77.125 18.867188 79.289062 17.710938 C 81.457031 16.554688 83.648438 15.453125 85.867188 14.402344 C 88.085938 13.351562 90.328125 12.359375 92.597656 11.417969 C 94.867188 10.480469 97.15625 9.59375 99.464844 8.769531 C 101.777344 7.941406 104.109375 7.171875 106.457031 6.460938 C 108.804688 5.746094 111.171875 5.09375 113.554688 4.496094 C 115.933594 3.898438 118.328125 3.359375 120.738281 2.882812 C 123.144531 2.402344 125.5625 1.984375 127.992188 1.625 C 130.417969 1.261719 132.855469 0.964844 135.296875 0.722656 C 137.742188 0.480469 140.1875 0.300781 142.640625 0.179688 C 145.089844 0.0585938 147.546875 0 150 0 C 152.453125 0 154.910156 0.0585938 157.359375 0.179688 C 159.8125 0.300781 162.257812 0.480469 164.703125 0.722656 C 167.144531 0.964844 169.582031 1.261719 172.007812 1.625 C 174.4375 1.984375 176.855469 2.402344 179.261719 2.882812 C 181.671875 3.359375 184.066406 3.898438 186.445312 4.496094 C 188.828125 5.09375 191.195312 5.746094 193.542969 6.460938 C 195.890625 7.171875 198.222656 7.941406 200.535156 8.769531 C 202.84375 9.59375 205.132812 10.480469 207.402344 11.417969 C 209.671875 12.359375 211.914062 13.351562 214.132812 14.402344 C 216.351562 15.453125 218.542969 16.554688 220.710938 17.710938 C 222.875 18.867188 225.011719 20.078125 227.117188 21.339844 C 229.222656 22.601562 231.292969 23.914062 233.335938 25.28125 C 235.375 26.644531 237.382812 28.054688 239.355469 29.519531 C 241.328125 30.980469 243.261719 32.492188 245.160156 34.046875 C 247.054688 35.605469 248.914062 37.207031 250.734375 38.859375 C 252.554688 40.507812 254.332031 42.199219 256.066406 43.933594 C 257.800781 45.671875 259.492188 47.449219 261.144531 49.265625 C 262.792969 51.085938 264.394531 52.945312 265.953125 54.839844 C 267.507812 56.738281 269.019531 58.671875 270.480469 60.644531 C 271.945312 62.617188 273.355469 64.625 274.71875 66.664062 C 276.085938 68.707031 277.398438 70.777344 278.660156 72.882812 C 279.921875 74.992188 281.132812 77.125 282.289062 79.289062 C 283.445312 81.457031 284.546875 83.648438 285.597656 85.867188 C 286.648438 88.085938 287.640625 90.328125 288.582031 92.597656 C 289.519531 94.867188 290.40625 97.15625 291.230469 99.464844 C 292.058594 101.777344 292.828125 104.109375 293.542969 106.457031 C 294.253906 108.804688 294.90625 111.171875 295.503906 113.554688 C 296.101562 115.933594 296.640625 118.328125 297.117188 120.738281 C 297.597656 123.144531 298.015625 125.5625 298.375 127.992188 C 298.738281 130.417969 299.035156 132.855469 299.277344 135.296875 C 299.519531 137.742188 299.699219 140.1875 299.820312 142.640625 C 299.941406 145.09375 300 147.546875 300 150 Z M 300 150 " fill-opacity="1" fill-rule="nonzero"/><g clip-path="url(#id1)"><g clip-path="url(#id2)"><path fill="url(#id3)" d="M 0 0.113281 L 0 300 L 300 300 L 300 0.113281 Z M 0 0.113281 " fill-rule="nonzero"/></g></g><g fill="#454545" fill-opacity="1"><g transform="translate(99.692378, 184.613423)"><g><path d="M 45.0625 -48.84375 C 45.0625 -44.914062 43.867188 -41.570312 41.484375 -38.8125 C 39.109375 -36.0625 35.765625 -34.171875 31.453125 -33.140625 L 31.453125 -32.875 C 36.535156 -32.25 40.378906 -30.707031 42.984375 -28.25 C 45.597656 -25.800781 46.90625 -22.492188 46.90625 -18.328125 C 46.90625 -12.273438 44.707031 -7.5625 40.3125 -4.1875 C 35.925781 -0.820312 29.660156 0.859375 21.515625 0.859375 C 14.691406 0.859375 8.640625 -0.273438 3.359375 -2.546875 L 3.359375 -13.859375 C 5.796875 -12.617188 8.476562 -11.613281 11.40625 -10.84375 C 14.332031 -10.070312 17.226562 -9.6875 20.09375 -9.6875 C 24.488281 -9.6875 27.734375 -10.429688 29.828125 -11.921875 C 31.921875 -13.410156 32.96875 -15.804688 32.96875 -19.109375 C 32.96875 -22.066406 31.757812 -24.160156 29.34375 -25.390625 C 26.9375 -26.628906 23.09375 -27.25 17.8125 -27.25 L 13.046875 -27.25 L 13.046875 -37.4375 L 17.90625 -37.4375 C 22.78125 -37.4375 26.34375 -38.070312 28.59375 -39.34375 C 30.851562 -40.625 31.984375 -42.816406 31.984375 -45.921875 C 31.984375 -50.679688 29 -53.0625 23.03125 -53.0625 C 20.957031 -53.0625 18.851562 -52.71875 16.71875 -52.03125 C 14.582031 -51.34375 12.207031 -50.148438 9.59375 -48.453125 L 3.4375 -57.625 C 9.175781 -61.757812 16.019531 -63.828125 23.96875 -63.828125 C 30.476562 -63.828125 35.617188 -62.503906 39.390625 -59.859375 C 43.171875 -57.222656 45.0625 -53.550781 45.0625 -48.84375 Z M 45.0625 -48.84375 "/></g></g></g><g fill="#454545" fill-opacity="1"><g transform="translate(150.000887, 184.613423)"><g><path d="M 47.171875 -31.453125 C 47.171875 -20.472656 45.367188 -12.34375 41.765625 -7.0625 C 38.160156 -1.78125 32.617188 0.859375 25.140625 0.859375 C 17.878906 0.859375 12.40625 -1.863281 8.71875 -7.3125 C 5.03125 -12.769531 3.1875 -20.816406 3.1875 -31.453125 C 3.1875 -42.554688 4.976562 -50.738281 8.5625 -56 C 12.144531 -61.269531 17.671875 -63.90625 25.140625 -63.90625 C 32.390625 -63.90625 37.875 -61.148438 41.59375 -55.640625 C 45.3125 -50.140625 47.171875 -42.078125 47.171875 -31.453125 Z M 16.390625 -31.453125 C 16.390625 -23.742188 17.054688 -18.21875 18.390625 -14.875 C 19.734375 -11.53125 21.984375 -9.859375 25.140625 -9.859375 C 28.234375 -9.859375 30.46875 -11.550781 31.84375 -14.9375 C 33.21875 -18.320312 33.90625 -23.828125 33.90625 -31.453125 C 33.90625 -39.171875 33.207031 -44.71875 31.8125 -48.09375 C 30.425781 -51.46875 28.203125 -53.15625 25.140625 -53.15625 C 22.003906 -53.15625 19.757812 -51.46875 18.40625 -48.09375 C 17.0625 -44.71875 16.390625 -39.171875 16.390625 -31.453125 Z M 16.390625 -31.453125 "/></g></g></g><g clip-path="url(#id4)"><path fill="#454545" d="M 205.929688 123.855469 C 202.636719 123.855469 199.953125 121.167969 199.953125 117.871094 C 199.953125 114.578125 202.636719 111.894531 205.929688 111.894531 C 209.230469 111.894531 211.90625 114.578125 211.90625 117.871094 C 211.914062 121.167969 209.230469 123.855469 205.929688 123.855469 Z M 205.929688 115.183594 C 204.453125 115.183594 203.242188 116.394531 203.242188 117.871094 C 203.242188 119.347656 204.453125 120.554688 205.929688 120.554688 C 207.40625 120.554688 208.617188 119.347656 208.617188 117.871094 C 208.617188 116.394531 207.414062 115.183594 205.929688 115.183594 Z M 205.929688 115.183594 " fill-opacity="1" fill-rule="nonzero"/></g></svg>