<svg xmlns="http://www.w3.org/2000/svg" xmlns:xlink="http://www.w3.org/1999/xlink" width="400" zoomAndPan="magnify" viewBox="0 0 300 299.999988" height="400" preserveAspectRatio="xMidYMid meet" version="1.0"><defs><clipPath id="id1"><path d="M 300 150 C 300 152.453125 299.941406 154.910156 299.820312 157.359375 C 299.699219 159.8125 299.519531 162.257812 299.277344 164.703125 C 299.035156 167.144531 298.738281 169.582031 298.375 172.007812 C 298.015625 174.4375 297.597656 176.855469 297.117188 179.261719 C 296.640625 181.671875 296.101562 184.066406 295.503906 186.445312 C 294.90625 188.828125 294.253906 191.195312 293.542969 193.542969 C 292.828125 195.890625 292.058594 198.222656 291.230469 200.535156 C 290.40625 202.84375 289.519531 205.132812 288.582031 207.402344 C 287.640625 209.671875 286.648438 211.914062 285.597656 214.132812 C 284.546875 216.351562 283.445312 218.542969 282.289062 220.710938 C 281.132812 222.875 279.921875 225.007812 278.660156 227.117188 C 277.398438 229.222656 276.085938 231.292969 274.71875 233.335938 C 273.355469 235.375 271.945312 237.382812 270.480469 239.355469 C 269.019531 241.328125 267.507812 243.261719 265.953125 245.160156 C 264.394531 247.054688 262.792969 248.914062 261.144531 250.734375 C 259.492188 252.550781 257.800781 254.332031 256.066406 256.066406 C 254.332031 257.800781 252.554688 259.492188 250.734375 261.144531 C 248.914062 262.792969 247.054688 264.394531 245.160156 265.953125 C 243.261719 267.507812 241.328125 269.019531 239.355469 270.480469 C 237.382812 271.945312 235.375 273.355469 233.335938 274.71875 C 231.292969 276.085938 229.222656 277.398438 227.117188 278.660156 C 225.007812 279.921875 222.875 281.132812 220.710938 282.289062 C 218.542969 283.445312 216.351562 284.546875 214.132812 285.597656 C 211.914062 286.648438 209.671875 287.640625 207.402344 288.582031 C 205.132812 289.519531 202.84375 290.40625 200.535156 291.230469 C 198.222656 292.058594 195.890625 292.828125 193.542969 293.539062 C 191.195312 294.253906 188.828125 294.90625 186.445312 295.503906 C 184.066406 296.101562 181.671875 296.640625 179.261719 297.117188 C 176.855469 297.597656 174.4375 298.015625 172.007812 298.375 C 169.582031 298.738281 167.144531 299.035156 164.703125 299.277344 C 162.257812 299.519531 159.8125 299.699219 157.359375 299.820312 C 154.910156 299.941406 152.453125 300 150 300 C 147.546875 300 145.089844 299.941406 142.640625 299.820312 C 140.1875 299.699219 137.742188 299.519531 135.296875 299.277344 C 132.855469 299.035156 130.417969 298.738281 127.992188 298.375 C 125.5625 298.015625 123.144531 297.597656 120.738281 297.117188 C 118.328125 296.640625 115.933594 296.101562 113.554688 295.503906 C 111.171875 294.90625 108.804688 294.253906 106.457031 293.542969 C 104.109375 292.828125 101.777344 292.058594 99.464844 291.230469 C 97.15625 290.40625 94.867188 289.519531 92.597656 288.582031 C 90.328125 287.640625 88.085938 286.648438 85.867188 285.597656 C 83.648438 284.546875 81.457031 283.445312 79.289062 282.289062 C 77.125 281.132812 74.988281 279.921875 72.882812 278.660156 C 70.777344 277.398438 68.707031 276.085938 66.664062 274.71875 C 64.625 273.355469 62.617188 271.945312 60.644531 270.480469 C 58.671875 269.019531 56.738281 267.507812 54.839844 265.953125 C 52.945312 264.394531 51.085938 262.792969 49.265625 261.144531 C 47.445312 259.492188 45.667969 257.800781 43.933594 256.066406 C 42.199219 254.332031 40.507812 252.550781 38.855469 250.734375 C 37.207031 248.914062 35.605469 247.054688 34.046875 245.160156 C 32.492188 243.261719 30.980469 241.328125 29.519531 239.355469 C 28.054688 237.382812 26.644531 235.375 25.28125 233.335938 C 23.914062 231.292969 22.601562 229.222656 21.339844 227.117188 C 20.078125 225.007812 18.867188 222.875 17.710938 220.710938 C 16.554688 218.542969 15.453125 216.351562 14.402344 214.132812 C 13.351562 211.914062 12.359375 209.671875 11.417969 207.402344 C 10.480469 205.132812 9.59375 202.84375 8.769531 200.535156 C 7.941406 198.222656 7.171875 195.890625 6.457031 193.542969 C 5.746094 191.195312 5.09375 188.828125 4.496094 186.445312 C 3.898438 184.066406 3.359375 181.671875 2.882812 179.261719 C 2.402344 176.855469 1.984375 174.4375 1.625 172.007812 C 1.261719 169.582031 0.964844 167.144531 0.722656 164.703125 C 0.480469 162.257812 0.300781 159.8125 0.179688 157.359375 C 0.0585938 154.910156 0 152.453125 0 150 C 0 147.546875 0.0585938 145.089844 0.179688 142.640625 C 0.300781 140.1875 0.480469 137.742188 0.722656 135.296875 C 0.964844 132.855469 1.261719 130.417969 1.625 127.992188 C 1.984375 125.5625 2.402344 123.144531 2.882812 120.738281 C 3.359375 118.328125 3.898438 115.933594 4.496094 113.554688 C 5.09375 111.171875 5.746094 108.804688 6.457031 106.457031 C 7.171875 104.109375 7.941406 101.777344 8.769531 99.464844 C 9.59375 97.15625 10.480469 94.867188 11.417969 92.597656 C 12.359375 90.328125 13.351562 88.085938 14.402344 85.867188 C 15.453125 83.648438 16.554688 81.457031 17.710938 79.289062 C 18.867188 77.125 20.078125 74.988281 21.339844 72.882812 C 22.601562 70.777344 23.914062 68.707031 25.28125 66.664062 C 26.644531 64.625 28.054688 62.617188 29.519531 60.644531 C 30.980469 58.671875 32.492188 56.738281 34.046875 54.839844 C 35.605469 52.945312 37.207031 51.085938 38.855469 49.265625 C 40.507812 47.445312 42.199219 45.667969 43.933594 43.933594 C 45.667969 42.199219 47.445312 40.507812 49.265625 38.855469 C 51.085938 37.207031 52.945312 35.605469 54.839844 34.046875 C 56.738281 32.492188 58.671875 30.980469 60.644531 29.519531 C 62.617188 28.054688 64.625 26.644531 66.664062 25.28125 C 68.707031 23.914062 70.777344 22.601562 72.882812 21.339844 C 74.988281 20.078125 77.125 18.867188 79.289062 17.710938 C 81.457031 16.554688 83.648438 15.453125 85.867188 14.402344 C 88.085938 13.351562 90.328125 12.359375 92.597656 11.417969 C 94.867188 10.480469 97.15625 9.59375 99.464844 8.769531 C 101.777344 7.941406 104.109375 7.171875 106.457031 6.457031 C 108.804688 5.746094 111.171875 5.089844 113.554688 4.496094 C 115.933594 3.898438 118.328125 3.359375 120.738281 2.882812 C 123.144531 2.402344 125.5625 1.984375 127.992188 1.625 C 130.417969 1.261719 132.855469 0.964844 135.296875 0.722656 C 137.742188 0.480469 140.1875 0.300781 142.640625 0.179688 C 145.089844 0.0585938 147.546875 0 150 0 C 152.453125 0 154.910156 0.0585938 157.359375 0.179688 C 159.8125 0.300781 162.257812 0.480469 164.703125 0.722656 C 167.144531 0.964844 169.582031 1.261719 172.007812 1.625 C 174.4375 1.984375 176.855469 2.402344 179.261719 2.882812 C 181.671875 3.359375 184.066406 3.898438 186.445312 4.496094 C 188.828125 5.089844 191.195312 5.746094 193.542969 6.457031 C 195.890625 7.171875 198.222656 7.941406 200.535156 8.769531 C 202.84375 9.59375 205.132812 10.480469 207.402344 11.417969 C 209.671875 12.359375 211.914062 13.351562 214.132812 14.402344 C 216.351562 15.453125 218.542969 16.554688 220.710938 17.710938 C 222.875 18.867188 225.007812 20.078125 227.117188 21.339844 C 229.222656 22.601562 231.292969 23.914062 233.335938 25.28125 C 235.375 26.644531 237.382812 28.054688 239.355469 29.519531 C 241.328125 30.980469 243.261719 32.492188 245.160156 34.046875 C 247.054688 35.605469 248.914062 37.207031 250.734375 38.855469 C 252.554688 40.507812 254.332031 42.199219 256.066406 43.933594 C 257.800781 45.667969 259.492188 47.445312 261.144531 49.265625 C 262.792969 51.085938 264.394531 52.945312 265.953125 54.839844 C 267.507812 56.738281 269.019531 58.671875 270.480469 60.644531 C 271.945312 62.617188 273.355469 64.625 274.71875 66.664062 C 276.085938 68.707031 277.398438 70.777344 278.660156 72.882812 C 279.921875 74.988281 281.132812 77.125 282.289062 79.289062 C 283.445312 81.457031 284.546875 83.648438 285.597656 85.867188 C 286.648438 88.085938 287.640625 90.328125 288.582031 92.597656 C 289.519531 94.867188 290.40625 97.15625 291.230469 99.464844 C 292.058594 101.777344 292.828125 104.109375 293.539062 106.457031 C 294.253906 108.804688 294.90625 111.171875 295.503906 113.554688 C 296.101562 115.933594 296.640625 118.328125 297.117188 120.738281 C 297.597656 123.144531 298.015625 125.5625 298.375 127.992188 C 298.738281 130.417969 299.035156 132.855469 299.277344 135.296875 C 299.519531 137.742188 299.699219 140.1875 299.820312 142.640625 C 299.941406 145.089844 300 147.546875 300 150 Z M 300 150 " clip-rule="nonzero"/></clipPath><linearGradient x1="0" gradientTransform="matrix(299.999988, 0, 0, 299.999988, 0.000006, 0)" y1="0" x2="1.004902" gradientUnits="userSpaceOnUse" y2="0.995049" id="id2"><stop stop-opacity="1" stop-color="rgb(10.198975%, 73.699951%, 61.199951%)" offset="0"/><stop stop-opacity="1" stop-color="rgb(10.244751%, 73.518372%, 61.286926%)" offset="0.015625"/><stop stop-opacity="1" stop-color="rgb(10.336304%, 73.155212%, 61.460876%)" offset="0.03125"/><stop stop-opacity="1" stop-color="rgb(10.426331%, 72.792053%, 61.634827%)" offset="0.046875"/><stop stop-opacity="1" stop-color="rgb(10.517883%, 72.428894%, 61.810303%)" offset="0.0625"/><stop stop-opacity="1" stop-color="rgb(10.609436%, 72.065735%, 61.984253%)" offset="0.078125"/><stop stop-opacity="1" stop-color="rgb(10.699463%, 71.704102%, 62.158203%)" offset="0.09375"/><stop stop-opacity="1" stop-color="rgb(10.791016%, 71.340942%, 62.333679%)" offset="0.109375"/><stop stop-opacity="1" stop-color="rgb(10.882568%, 70.977783%, 62.507629%)" offset="0.125"/><stop stop-opacity="1" stop-color="rgb(10.974121%, 70.614624%, 62.68158%)" offset="0.140625"/><stop stop-opacity="1" stop-color="rgb(11.064148%, 70.251465%, 62.857056%)" offset="0.15625"/><stop stop-opacity="1" stop-color="rgb(11.155701%, 69.889832%, 63.031006%)" offset="0.171875"/><stop stop-opacity="1" stop-color="rgb(11.247253%, 69.526672%, 63.204956%)" offset="0.1875"/><stop stop-opacity="1" stop-color="rgb(11.33728%, 69.163513%, 63.380432%)" offset="0.203125"/><stop stop-opacity="1" stop-color="rgb(11.428833%, 68.800354%, 63.554382%)" offset="0.21875"/><stop stop-opacity="1" stop-color="rgb(11.520386%, 68.437195%, 63.728333%)" offset="0.234375"/><stop stop-opacity="1" stop-color="rgb(11.610413%, 68.075562%, 63.903809%)" offset="0.25"/><stop stop-opacity="1" stop-color="rgb(11.701965%, 67.712402%, 64.077759%)" offset="0.265625"/><stop stop-opacity="1" stop-color="rgb(11.793518%, 67.349243%, 64.251709%)" offset="0.28125"/><stop stop-opacity="1" stop-color="rgb(11.885071%, 66.986084%, 64.427185%)" offset="0.296875"/><stop stop-opacity="1" stop-color="rgb(11.975098%, 66.622925%, 64.601135%)" offset="0.3125"/><stop stop-opacity="1" stop-color="rgb(12.06665%, 66.261292%, 64.775085%)" offset="0.328125"/><stop stop-opacity="1" stop-color="rgb(12.158203%, 65.898132%, 64.950562%)" offset="0.34375"/><stop stop-opacity="1" stop-color="rgb(12.24823%, 65.534973%, 65.124512%)" offset="0.359375"/><stop stop-opacity="1" stop-color="rgb(12.339783%, 65.171814%, 65.299988%)" offset="0.375"/><stop stop-opacity="1" stop-color="rgb(12.431335%, 64.808655%, 65.473938%)" offset="0.390625"/><stop stop-opacity="1" stop-color="rgb(12.521362%, 64.447021%, 65.647888%)" offset="0.40625"/><stop stop-opacity="1" stop-color="rgb(12.612915%, 64.083862%, 65.823364%)" offset="0.421875"/><stop stop-opacity="1" stop-color="rgb(12.704468%, 63.720703%, 65.997314%)" offset="0.4375"/><stop stop-opacity="1" stop-color="rgb(12.796021%, 63.357544%, 66.171265%)" offset="0.453125"/><stop stop-opacity="1" stop-color="rgb(12.886047%, 62.994385%, 66.346741%)" offset="0.46875"/><stop stop-opacity="1" stop-color="rgb(12.9776%, 62.632751%, 66.520691%)" offset="0.484375"/><stop stop-opacity="1" stop-color="rgb(13.069153%, 62.269592%, 66.694641%)" offset="0.497537"/><stop stop-opacity="1" stop-color="rgb(13.114929%, 62.088013%, 66.783142%)" offset="0.5"/><stop stop-opacity="1" stop-color="rgb(13.15918%, 61.906433%, 66.870117%)" offset="0.502463"/><stop stop-opacity="1" stop-color="rgb(13.204956%, 61.724854%, 66.957092%)" offset="0.515625"/><stop stop-opacity="1" stop-color="rgb(13.250732%, 61.543274%, 67.044067%)" offset="0.53125"/><stop stop-opacity="1" stop-color="rgb(13.342285%, 61.180115%, 67.218018%)" offset="0.546875"/><stop stop-opacity="1" stop-color="rgb(13.432312%, 60.818481%, 67.393494%)" offset="0.5625"/><stop stop-opacity="1" stop-color="rgb(13.523865%, 60.455322%, 67.567444%)" offset="0.578125"/><stop stop-opacity="1" stop-color="rgb(13.615417%, 60.092163%, 67.741394%)" offset="0.59375"/><stop stop-opacity="1" stop-color="rgb(13.70697%, 59.729004%, 67.91687%)" offset="0.609375"/><stop stop-opacity="1" stop-color="rgb(13.796997%, 59.365845%, 68.09082%)" offset="0.625"/><stop stop-opacity="1" stop-color="rgb(13.88855%, 59.004211%, 68.264771%)" offset="0.640625"/><stop stop-opacity="1" stop-color="rgb(13.980103%, 58.641052%, 68.440247%)" offset="0.65625"/><stop stop-opacity="1" stop-color="rgb(14.070129%, 58.277893%, 68.614197%)" offset="0.671875"/><stop stop-opacity="1" stop-color="rgb(14.161682%, 57.914734%, 68.788147%)" offset="0.6875"/><stop stop-opacity="1" stop-color="rgb(14.253235%, 57.551575%, 68.963623%)" offset="0.703125"/><stop stop-opacity="1" stop-color="rgb(14.344788%, 57.188416%, 69.137573%)" offset="0.71875"/><stop stop-opacity="1" stop-color="rgb(14.434814%, 56.826782%, 69.311523%)" offset="0.734375"/><stop stop-opacity="1" stop-color="rgb(14.526367%, 56.463623%, 69.487%)" offset="0.75"/><stop stop-opacity="1" stop-color="rgb(14.61792%, 56.100464%, 69.66095%)" offset="0.765625"/><stop stop-opacity="1" stop-color="rgb(14.707947%, 55.737305%, 69.836426%)" offset="0.78125"/><stop stop-opacity="1" stop-color="rgb(14.7995%, 55.374146%, 70.010376%)" offset="0.796875"/><stop stop-opacity="1" stop-color="rgb(14.891052%, 55.012512%, 70.184326%)" offset="0.8125"/><stop stop-opacity="1" stop-color="rgb(14.981079%, 54.649353%, 70.359802%)" offset="0.828125"/><stop stop-opacity="1" stop-color="rgb(15.072632%, 54.286194%, 70.533752%)" offset="0.84375"/><stop stop-opacity="1" stop-color="rgb(15.164185%, 53.923035%, 70.707703%)" offset="0.859375"/><stop stop-opacity="1" stop-color="rgb(15.255737%, 53.559875%, 70.883179%)" offset="0.875"/><stop stop-opacity="1" stop-color="rgb(15.345764%, 53.198242%, 71.057129%)" offset="0.890625"/><stop stop-opacity="1" stop-color="rgb(15.437317%, 52.835083%, 71.231079%)" offset="0.90625"/><stop stop-opacity="1" stop-color="rgb(15.52887%, 52.471924%, 71.406555%)" offset="0.921875"/><stop stop-opacity="1" stop-color="rgb(15.618896%, 52.108765%, 71.580505%)" offset="0.9375"/><stop stop-opacity="1" stop-color="rgb(15.710449%, 51.745605%, 71.754456%)" offset="0.953125"/><stop stop-opacity="1" stop-color="rgb(15.802002%, 51.383972%, 71.929932%)" offset="0.96875"/><stop stop-opacity="1" stop-color="rgb(15.892029%, 51.020813%, 72.103882%)" offset="0.984375"/><stop stop-opacity="1" stop-color="rgb(15.983582%, 50.657654%, 72.277832%)" offset="1"/></linearGradient><clipPath id="id3"><path d="M 97.949219 97.949219 L 202.199219 97.949219 L 202.199219 202.199219 L 97.949219 202.199219 Z M 97.949219 97.949219 " clip-rule="nonzero"/></clipPath></defs><path fill="#454545" d="M 300 150 C 300 152.453125 299.941406 154.910156 299.820312 157.359375 C 299.699219 159.8125 299.519531 162.257812 299.277344 164.703125 C 299.035156 167.144531 298.738281 169.582031 298.375 172.007812 C 298.015625 174.4375 297.597656 176.855469 297.117188 179.261719 C 296.640625 181.671875 296.101562 184.066406 295.503906 186.445312 C 294.90625 188.828125 294.253906 191.195312 293.539062 193.542969 C 292.828125 195.890625 292.058594 198.222656 291.230469 200.535156 C 290.40625 202.84375 289.519531 205.132812 288.582031 207.402344 C 287.640625 209.671875 286.648438 211.914062 285.597656 214.132812 C 284.546875 216.351562 283.445312 218.542969 282.289062 220.710938 C 281.132812 222.875 279.921875 225.007812 278.660156 227.117188 C 277.398438 229.222656 276.085938 231.292969 274.71875 233.335938 C 273.355469 235.375 271.945312 237.382812 270.480469 239.355469 C 269.019531 241.328125 267.507812 243.261719 265.953125 245.160156 C 264.394531 247.054688 262.792969 248.914062 261.144531 250.734375 C 259.492188 252.554688 257.800781 254.332031 256.066406 256.066406 C 254.332031 257.800781 252.554688 259.492188 250.734375 261.144531 C 248.914062 262.792969 247.054688 264.394531 245.160156 265.953125 C 243.261719 267.507812 241.328125 269.019531 239.355469 270.480469 C 237.382812 271.945312 235.375 273.355469 233.335938 274.71875 C 231.292969 276.085938 229.222656 277.398438 227.117188 278.660156 C 225.007812 279.921875 222.875 281.132812 220.710938 282.289062 C 218.542969 283.445312 216.351562 284.546875 214.132812 285.597656 C 211.914062 286.648438 209.671875 287.640625 207.402344 288.582031 C 205.132812 289.519531 202.84375 290.40625 200.535156 291.230469 C 198.222656 292.058594 195.890625 292.828125 193.542969 293.539062 C 191.195312 294.253906 188.828125 294.90625 186.445312 295.503906 C 184.066406 296.101562 181.671875 296.640625 179.261719 297.117188 C 176.855469 297.597656 174.4375 298.015625 172.007812 298.375 C 169.582031 298.738281 167.144531 299.035156 164.703125 299.277344 C 162.257812 299.519531 159.8125 299.699219 157.359375 299.820312 C 154.910156 299.941406 152.453125 300 150 300 C 147.546875 300 145.089844 299.941406 142.640625 299.820312 C 140.1875 299.699219 137.742188 299.519531 135.296875 299.277344 C 132.855469 299.035156 130.417969 298.738281 127.992188 298.375 C 125.5625 298.015625 123.144531 297.597656 120.738281 297.117188 C 118.328125 296.640625 115.933594 296.101562 113.554688 295.503906 C 111.171875 294.90625 108.804688 294.253906 106.457031 293.539062 C 104.109375 292.828125 101.777344 292.058594 99.464844 291.230469 C 97.15625 290.40625 94.867188 289.519531 92.597656 288.582031 C 90.328125 287.640625 88.085938 286.648438 85.867188 285.597656 C 83.648438 284.546875 81.457031 283.445312 79.289062 282.289062 C 77.125 281.132812 74.988281 279.921875 72.882812 278.660156 C 70.777344 277.398438 68.707031 276.085938 66.664062 274.71875 C 64.625 273.355469 62.617188 271.945312 60.644531 270.480469 C 58.671875 269.019531 56.738281 267.507812 54.839844 265.953125 C 52.941406 264.394531 51.085938 262.792969 49.265625 261.144531 C 47.445312 259.492188 45.667969 257.800781 43.933594 256.066406 C 42.199219 254.332031 40.507812 252.554688 38.855469 250.734375 C 37.207031 248.914062 35.605469 247.054688 34.046875 245.160156 C 32.492188 243.261719 30.980469 241.328125 29.519531 239.355469 C 28.054688 237.382812 26.644531 235.375 25.28125 233.335938 C 23.914062 231.292969 22.601562 229.222656 21.339844 227.117188 C 20.078125 225.007812 18.867188 222.875 17.710938 220.710938 C 16.554688 218.542969 15.453125 216.351562 14.402344 214.132812 C 13.351562 211.914062 12.359375 209.671875 11.417969 207.402344 C 10.480469 205.132812 9.59375 202.84375 8.769531 200.535156 C 7.941406 198.222656 7.171875 195.890625 6.457031 193.542969 C 5.746094 191.195312 5.089844 188.828125 4.496094 186.445312 C 3.898438 184.066406 3.359375 181.671875 2.882812 179.261719 C 2.402344 176.855469 1.984375 174.4375 1.625 172.007812 C 1.261719 169.582031 0.964844 167.144531 0.722656 164.703125 C 0.480469 162.257812 0.300781 159.8125 0.179688 157.359375 C 0.0585938 154.910156 0 152.453125 0 150 C 0 147.546875 0.0585938 145.089844 0.179688 142.640625 C 0.300781 140.1875 0.480469 137.742188 0.722656 135.296875 C 0.964844 132.855469 1.261719 130.417969 1.625 127.992188 C 1.984375 125.5625 2.402344 123.144531 2.882812 120.738281 C 3.359375 118.328125 3.898438 115.933594 4.496094 113.554688 C 5.089844 111.171875 5.746094 108.804688 6.457031 106.457031 C 7.171875 104.109375 7.941406 101.777344 8.769531 99.464844 C 9.59375 97.15625 10.480469 94.867188 11.417969 92.597656 C 12.359375 90.328125 13.351562 88.085938 14.402344 85.867188 C 15.453125 83.648438 16.554688 81.457031 17.710938 79.289062 C 18.867188 77.125 20.078125 74.988281 21.339844 72.882812 C 22.601562 70.777344 23.914062 68.707031 25.28125 66.664062 C 26.644531 64.625 28.054688 62.617188 29.519531 60.644531 C 30.980469 58.671875 32.492188 56.738281 34.046875 54.839844 C 35.605469 52.945312 37.207031 51.085938 38.855469 49.265625 C 40.507812 47.445312 42.199219 45.667969 43.933594 43.933594 C 45.667969 42.199219 47.445312 40.507812 49.265625 38.855469 C 51.085938 37.207031 52.941406 35.605469 54.839844 34.046875 C 56.738281 32.492188 58.671875 30.980469 60.644531 29.519531 C 62.617188 28.054688 64.625 26.644531 66.664062 25.28125 C 68.707031 23.914062 70.777344 22.601562 72.882812 21.339844 C 74.988281 20.078125 77.125 18.867188 79.289062 17.710938 C 81.457031 16.554688 83.648438 15.453125 85.867188 14.402344 C 88.085938 13.351562 90.328125 12.359375 92.597656 11.417969 C 94.867188 10.480469 97.15625 9.59375 99.464844 8.769531 C 101.777344 7.941406 104.109375 7.171875 106.457031 6.457031 C 108.804688 5.746094 111.171875 5.089844 113.554688 4.496094 C 115.933594 3.898438 118.328125 3.359375 120.738281 2.882812 C 123.144531 2.402344 125.5625 1.984375 127.992188 1.625 C 130.417969 1.261719 132.855469 0.964844 135.296875 0.722656 C 137.742188 0.480469 140.1875 0.300781 142.640625 0.179688 C 145.089844 0.0585938 147.546875 0 150 0 C 152.453125 0 154.910156 0.0585938 157.359375 0.179688 C 159.8125 0.300781 162.257812 0.480469 164.703125 0.722656 C 167.144531 0.964844 169.582031 1.261719 172.007812 1.625 C 174.4375 1.984375 176.855469 2.402344 179.261719 2.882812 C 181.671875 3.359375 184.066406 3.898438 186.445312 4.496094 C 188.828125 5.089844 191.195312 5.746094 193.542969 6.457031 C 195.890625 7.171875 198.222656 7.941406 200.535156 8.769531 C 202.84375 9.59375 205.132812 10.480469 207.402344 11.417969 C 209.671875 12.359375 211.914062 13.351562 214.132812 14.402344 C 216.351562 15.453125 218.542969 16.554688 220.710938 17.710938 C 222.875 18.867188 225.011719 20.078125 227.117188 21.339844 C 229.222656 22.601562 231.292969 23.914062 233.335938 25.28125 C 235.375 26.644531 237.382812 28.054688 239.355469 29.519531 C 241.328125 30.980469 243.261719 32.492188 245.160156 34.046875 C 247.054688 35.605469 248.914062 37.207031 250.734375 38.855469 C 252.554688 40.507812 254.332031 42.199219 256.066406 43.933594 C 257.800781 45.667969 259.492188 47.445312 261.144531 49.265625 C 262.792969 51.085938 264.394531 52.945312 265.953125 54.839844 C 267.507812 56.738281 269.019531 58.671875 270.480469 60.644531 C 271.945312 62.617188 273.355469 64.625 274.71875 66.664062 C 276.085938 68.707031 277.398438 70.777344 278.660156 72.882812 C 279.921875 74.988281 281.132812 77.125 282.289062 79.289062 C 283.445312 81.457031 284.546875 83.648438 285.597656 85.867188 C 286.648438 88.085938 287.640625 90.328125 288.582031 92.597656 C 289.519531 94.867188 290.40625 97.15625 291.230469 99.464844 C 292.058594 101.777344 292.828125 104.109375 293.542969 106.457031 C 294.253906 108.804688 294.90625 111.171875 295.503906 113.554688 C 296.101562 115.933594 296.640625 118.328125 297.117188 120.738281 C 297.597656 123.144531 298.015625 125.5625 298.375 127.992188 C 298.738281 130.417969 299.035156 132.855469 299.277344 135.296875 C 299.519531 137.742188 299.699219 140.1875 299.820312 142.640625 C 299.941406 145.089844 300 147.546875 300 150 Z M 300 150 " fill-opacity="1" fill-rule="nonzero"/><g clip-path="url(#id1)"><rect x="-30" fill="url(#id2)" width="360" y="-29.999999" height="359.999986"/></g><g clip-path="url(#id3)"><path fill="#ffffff" d="M 97.949219 131.066406 C 101.015625 123.09375 104.082031 115.125 108.371094 107.761719 C 110.214844 103.46875 113.28125 97.949219 148.230469 97.949219 C 174.605469 97.949219 197.289062 97.949219 202.199219 97.949219 L 202.199219 116.347656 L 179.507812 116.347656 C 173.378906 181.960938 175.832031 183.800781 186.257812 183.800781 C 193 183.800781 197.910156 173.378906 197.910156 167.859375 L 202.199219 167.859375 C 202.199219 197.914062 188.707031 202.199219 178.28125 202.199219 C 166.628906 202.199219 159.273438 193.617188 159.273438 180.738281 C 159.273438 164.179688 162.953125 145.167969 166.019531 116.347656 L 143.941406 116.347656 C 137.808594 181.960938 136.582031 202.199219 116.34375 202.199219 C 111.441406 202.199219 104.082031 198.519531 104.082031 189.324219 C 104.082031 170.925781 126.160156 193.003906 132.289062 116.347656 C 132.289062 116.347656 126.160156 116.347656 123.09375 116.347656 C 115.117188 116.347656 108.988281 119.414062 104.082031 128.609375 C 102.855469 131.066406 101.625 132.289062 97.949219 131.066406 Z M 97.949219 131.066406 " fill-opacity="1" fill-rule="nonzero"/></g></svg>